<?xml version="1.0" encoding="utf-8"?>
<!-- Generator: Adobe Illustrator 17.0.0, SVG Export Plug-In . SVG Version: 6.00 Build 0)  -->
<!DOCTYPE svg PUBLIC "-//W3C//DTD SVG 1.1//EN" "http://www.w3.org/Graphics/SVG/1.1/DTD/svg11.dtd">
<svg version="1.1" id="Layer_1" xmlns="http://www.w3.org/2000/svg" xmlns:xlink="http://www.w3.org/1999/xlink" x="0px" y="0px"
	 width="48.57px" height="48.57px" viewBox="0 0 48.57 48.57" enable-background="new 0 0 48.57 48.57" xml:space="preserve">
<g id="XMLID_97_">
	<linearGradient id="XMLID_2_" gradientUnits="userSpaceOnUse" x1="24.285" y1="48.57" x2="24.285" y2="8.435727e-007">
		<stop  offset="0" style="stop-color:#77C499"/>
		<stop  offset="0.8011" style="stop-color:#6DD8A0"/>
	</linearGradient>
	<circle id="XMLID_302_" fill="url(#XMLID_2_)" cx="24.285" cy="24.285" r="24.285"/>
	<polygon id="XMLID_298_" opacity="0.9" fill="#F1F1F1" points="22.745,14.188 23.892,12.812 25.345,13.424 25.956,14.57 
		28.25,16.405 29.549,20.227 31.155,25.808 33.907,30.395 31.46,32.001 27.179,32.994 26.568,35.058 25.115,36.129 23.433,35.746 
		21.446,33.453 15.33,31.389 14.642,29.631 18.617,24.738 18.77,22.521 19.382,17.781 20.605,15.717 	"/>
	<g id="XMLID_191_">
		<path id="XMLID_293_" fill="#2E3C54" d="M14.587,29.985l0.496,0.373c0.003-0.005,0.846-1.124,1.754-2.459
			c0.455-0.668,0.926-1.388,1.32-2.056c0.395-0.673,0.712-1.273,0.869-1.789c0.62-2.119,0.45-4.43,0.911-6.074
			c0.227-0.824,0.567-1.445,1.174-1.893c0.608-0.448,1.555-0.759,3.087-0.759h0.172c1.411,0.002,2.293,0.305,2.887,0.754
			c0.447,0.339,0.757,0.778,0.996,1.33c0.358,0.826,0.524,1.901,0.666,3.059c0.145,1.159,0.272,2.4,0.624,3.582
			c0.157,0.516,0.474,1.116,0.869,1.789c1.18,1.999,3.068,4.505,3.074,4.515l0.496-0.373h-0.62
			c-0.001,0.126-0.033,0.236-0.119,0.373c-0.148,0.237-0.505,0.531-1.051,0.79c-1.639,0.796-4.788,1.248-7.908,1.242
			c-2.38,0.001-4.767-0.251-6.501-0.734c-0.866-0.239-1.567-0.54-2.003-0.853c-0.218-0.155-0.368-0.31-0.454-0.445
			c-0.087-0.137-0.118-0.247-0.119-0.373H14.587l0.496,0.373L14.587,29.985h-0.62c-0.001,0.378,0.119,0.741,0.317,1.045
			c0.349,0.535,0.896,0.916,1.557,1.237c1.984,0.94,5.199,1.357,8.444,1.363c2.469-0.001,4.931-0.253,6.833-0.779
			c0.952-0.266,1.766-0.595,2.391-1.038c0.312-0.223,0.579-0.478,0.777-0.783c0.198-0.304,0.318-0.667,0.317-1.045v-0.207
			l-0.124-0.165c-0.001-0.001-0.206-0.274-0.525-0.714c-0.479-0.66-1.21-1.69-1.861-2.7c-0.65-0.999-1.225-2.024-1.36-2.5
			c-0.558-1.834-0.5-4.116-1.08-6.062c-0.293-0.971-0.78-1.89-1.646-2.544c-0.865-0.656-2.054-1.007-3.636-1.005h-0.172
			c-1.69-0.001-2.928,0.344-3.822,1c-0.669,0.49-1.111,1.143-1.395,1.846c-0.426,1.058-0.537,2.234-0.643,3.406
			c-0.103,1.172-0.196,2.342-0.501,3.359c-0.089,0.31-0.376,0.886-0.749,1.514c-0.559,0.949-1.312,2.055-1.922,2.917
			c-0.305,0.432-0.575,0.803-0.768,1.066c-0.193,0.263-0.308,0.416-0.308,0.416l-0.125,0.166v0.207H14.587z"/>
		<path id="XMLID_292_" fill="#2E3C54" d="M26.595,33.092c-0.002,1.275-1.034,2.307-2.31,2.31c-1.275-0.002-2.307-1.034-2.31-2.31
			h-1.24c0,1.961,1.589,3.55,3.55,3.55c1.961,0,3.549-1.589,3.55-3.55H26.595L26.595,33.092z"/>
		<path id="XMLID_289_" fill="#2E3C54" d="M23.104,14.815c-0.001-0.493,0.162-0.928,0.393-1.217c0.236-0.292,0.509-0.429,0.788-0.43
			c0.279,0.001,0.552,0.138,0.788,0.43c0.231,0.29,0.394,0.724,0.393,1.217h1.24c-0.001-0.759-0.242-1.458-0.662-1.989
			c-0.416-0.529-1.044-0.899-1.759-0.898c-0.715-0.001-1.343,0.37-1.759,0.898c-0.42,0.531-0.661,1.23-0.662,1.989H23.104
			L23.104,14.815z"/>
		<path id="XMLID_282_" fill="#2E3C54" d="M21.254,22.808c0,0,0.071-1.868,0.234-2.927c0.117-0.761,0.644-1.932,0.644-1.932"/>
		<path id="XMLID_280_" fill="#2E3C54" d="M21.873,22.831c0-0.001,0.017-0.459,0.055-1.05c0.037-0.59,0.096-1.314,0.172-1.806
			c0.044-0.295,0.193-0.76,0.333-1.127c0.07-0.185,0.136-0.348,0.185-0.464c0.049-0.116,0.078-0.181,0.078-0.181
			c0.14-0.313,0.001-0.68-0.311-0.82c-0.312-0.141-0.679-0.001-0.82,0.311c-0.007,0.027-0.543,1.18-0.691,2.092
			c-0.172,1.126-0.24,2.986-0.241,2.998c-0.013,0.342,0.254,0.63,0.596,0.643C21.572,23.44,21.86,23.173,21.873,22.831
			L21.873,22.831z"/>
	</g>
	<g id="XMLID_99_" opacity="0.46">
		<path id="XMLID_134_" fill="#2E3C54" d="M6.063,26.658c0.055-2.525,0.838-4.692,2.55-6.492c0.277-0.291,0.515-0.339,0.76-0.162
			c0.285,0.206,0.303,0.541,0.022,0.835c-0.622,0.65-1.142,1.371-1.503,2.195c-1.259,2.879-0.971,5.675,0.554,8.359
			c0.413,0.728,0.995,1.363,1.521,2.023c0.269,0.338,0.319,0.611,0.077,0.849c-0.232,0.228-0.553,0.186-0.845-0.119
			C7.174,32.034,6.12,29.52,6.063,26.658z"/>
		<path id="XMLID_132_" fill="#2E3C54" d="M42.507,26.274c-0.072,3.366-1.175,5.881-3.254,7.975
			c-0.205,0.207-0.511,0.206-0.717,0.013c-0.207-0.194-0.229-0.491-0.034-0.72c0.274-0.323,0.583-0.618,0.836-0.955
			c2.034-2.71,2.688-5.674,1.587-8.938c-0.357-1.059-0.965-1.977-1.742-2.782c-0.251-0.26-0.29-0.52-0.126-0.745
			c0.216-0.296,0.558-0.295,0.858,0.015c1.11,1.144,1.887,2.484,2.253,4.033C42.361,24.989,42.439,25.835,42.507,26.274z"/>
		<path id="XMLID_129_" fill="#2E3C54" d="M11.786,22.045c0.479-0.008,0.742,0.419,0.553,0.758
			c-0.058,0.105-0.149,0.193-0.232,0.282c-2.122,2.265-2.135,5.86-0.028,8.14c0.03,0.033,0.062,0.064,0.092,0.097
			c0.283,0.304,0.309,0.586,0.076,0.817c-0.248,0.246-0.556,0.235-0.827-0.121c-0.456-0.599-0.943-1.196-1.274-1.864
			c-1.279-2.58-0.741-5.781,1.262-7.827C11.534,22.197,11.701,22.107,11.786,22.045z"/>
		<path id="XMLID_126_" fill="#2E3C54" d="M39.114,27.165c-0.02,1.9-0.675,3.542-2,4.91c-0.302,0.312-0.673,0.287-0.869-0.046
			c-0.168-0.284-0.04-0.503,0.161-0.712c0.766-0.797,1.285-1.734,1.511-2.816c0.426-2.046-0.056-3.858-1.452-5.421
			c-0.096-0.107-0.209-0.214-0.26-0.342c-0.098-0.247-0.009-0.464,0.212-0.608c0.243-0.158,0.468-0.095,0.662,0.1
			c0.684,0.689,1.204,1.485,1.555,2.39C38.951,25.437,39.12,26.284,39.114,27.165z"/>
	</g>
</g>
</svg>
