<?xml version="1.0" encoding="utf-8"?>
<!-- Generator: Adobe Illustrator 17.0.0, SVG Export Plug-In . SVG Version: 6.00 Build 0)  -->
<!DOCTYPE svg PUBLIC "-//W3C//DTD SVG 1.1//EN" "http://www.w3.org/Graphics/SVG/1.1/DTD/svg11.dtd">
<svg version="1.1" id="Layer_1" xmlns="http://www.w3.org/2000/svg" xmlns:xlink="http://www.w3.org/1999/xlink" x="0px" y="0px"
	 width="42px" height="42px" viewBox="0 0 42 42" enable-background="new 0 0 42 42" xml:space="preserve">
<g id="XMLID_4831_">
	<path id="XMLID_4835_" fill="none" stroke="#2E3C54" stroke-miterlimit="10" d="M23.642,33.843c-0.943,0-1.889,0-2.832,0
		c-6.405,0-12.795,0-19.251,0c0.103-0.476,0.157-0.863,0.27-1.233c0.524-1.714,1.852-2.617,3.364-3.305
		c0.981-0.446,1.989-0.831,2.979-1.257c1.309-0.563,2.147-1.44,1.932-3.01c-0.038-0.278,0.009-0.568-0.022-0.848
		c-0.02-0.183-0.096-0.365-0.174-0.535c-0.376-0.821-0.758-1.638-1.146-2.454c-0.068-0.143-0.146-0.304-0.265-0.398
		c-0.828-0.656-1.047-1.785-0.543-2.736c0.087-0.165,0.076-0.402,0.061-0.602c-0.096-1.295-0.324-2.593-0.281-3.883
		c0.057-1.712,0.874-3.09,2.529-3.688c1.792-0.647,3.678-0.623,5.616,0.436c1.48,0.809,2.061,1.296,2.337,2.499
		c0.355,1.552,0.09,3.068-0.269,4.582c-0.053,0.221-0.035,0.511,0.065,0.709c0.335,0.66,0.337,1.84-0.237,2.32
		c-0.536,0.448-0.666,1.007-0.866,1.587c-0.127,0.367-0.242,0.785-0.495,1.052c-0.61,0.643-0.589,1.401-0.561,2.183
		c0.006,0.174,0.027,0.35,0.012,0.523c-0.056,0.654,0.24,1.149,0.725,1.518c0.393,0.298,0.82,0.569,1.267,0.775
		c0.92,0.424,1.905,0.719,2.784,1.212c0.317,0.178,0.638,0.286,0.961,0.368c1.215,0.65,2.241,1.505,2.683,2.952
		c0.113,0.369,0.168,0.756,0.27,1.233C24.247,33.843,23.946,33.843,23.642,33.843z"/>
	<path id="XMLID_5852_" fill="none" stroke="#2E3C54" stroke-miterlimit="10" d="M25.057,8.157c-1.09,0-1.978,0.786-1.978,1.75
		v13.85c0,0.964,0.887,1.75,1.978,1.75h13.405c1.091,0,1.978-0.786,1.978-1.75V9.907c0-0.964-0.887-1.75-1.978-1.75H25.057z"/>
	<polyline id="XMLID_4833_" fill="none" stroke="#2E3C54" stroke-miterlimit="10" points="27.104,17.822 30.34,21.355 
		36.352,13.991 	"/>
</g>
</svg>
