<?xml version="1.0" encoding="utf-8"?>
<!-- Generator: Adobe Illustrator 17.0.0, SVG Export Plug-In . SVG Version: 6.00 Build 0)  -->
<!DOCTYPE svg PUBLIC "-//W3C//DTD SVG 1.1//EN" "http://www.w3.org/Graphics/SVG/1.1/DTD/svg11.dtd">
<svg version="1.1" id="Layer_1" xmlns="http://www.w3.org/2000/svg" xmlns:xlink="http://www.w3.org/1999/xlink" x="0px" y="0px"
	 width="313.336px" height="227.669px" viewBox="0 0 313.336 227.669" enable-background="new 0 0 313.336 227.669"
	 xml:space="preserve">
<g>
	<rect id="XMLID_2298_" x="89.497" y="78.92" opacity="0.4" fill="#49EF5F" width="44.533" height="37.125"/>
	<rect id="XMLID_2802_" x="224.123" y="40.19" fill="#FAFAFA" width="89.16" height="187.473"/>
	<rect id="XMLID_640_" x="179.502" y="116.093" opacity="0.35" fill="#FFDF2E" width="44.533" height="37.125"/>
	<rect id="XMLID_639_" x="134.437" y="115.94" opacity="0.35" fill="#49EFAE" width="44.533" height="37.125"/>
	<line id="XMLID_637_" fill="#FAFAFA" stroke="#E0E0E0" stroke-miterlimit="10" x1="313.216" y1="15.891" x2="0" y2="15.891"/>
	<line id="XMLID_636_" fill="#FAFAFA" stroke="#E0E0E0" stroke-miterlimit="10" x1="0" y1="40.329" x2="313.216" y2="40.329"/>
	<g id="XMLID_3265_">
		<g id="XMLID_3266_">
			<text transform="matrix(0.9993 0 0 1 123.9282 51.5049)" fill="#8C8C8C" font-family="'Lato-Regular'" font-size="9">1</text>
		</g>
	</g>
	<g id="XMLID_3263_">
		<g id="XMLID_3264_">
			<text transform="matrix(0.9993 0 0 1 76.917 51.5049)" fill="#DBDBDB" font-family="'Lato-Regular'" font-size="9">31</text>
		</g>
	</g>
	<g id="XMLID_3258_">
		<g id="XMLID_3262_">
			<text transform="matrix(0.9993 0 0 1 30.9448 51.5049)" fill="#DBDBDB" font-family="'Lato-Regular'" font-size="9">30</text>
		</g>
	</g>
	<g id="XMLID_3255_">
		<g id="XMLID_3256_">
			<text transform="matrix(0.9993 0 0 1 166.919 51.5049)" fill="#8C8C8C" font-family="'Lato-Regular'" font-size="9">2</text>
		</g>
	</g>
	<g id="XMLID_3252_">
		<g id="XMLID_3253_">
			<text transform="matrix(0.9993 0 0 1 212.69 51.5049)" fill="#8C8C8C" font-family="'Lato-Regular'" font-size="9">3</text>
		</g>
	</g>
	<g id="XMLID_3250_">
		<g id="XMLID_3251_">
			<text transform="matrix(0.9993 0 0 1 256.8135 51.5049)" fill="#8C8C8C" font-family="'Lato-Regular'" font-size="9">4</text>
		</g>
	</g>
	<g id="XMLID_3248_">
		<g id="XMLID_3249_">
			<text transform="matrix(0.9993 0 0 1 300.5869 51.7295)" fill="#8C8C8C" font-family="'Lato-Regular'" font-size="9">5</text>
		</g>
	</g>
	<g id="XMLID_3246_">
		<g id="XMLID_3247_">
			<text transform="matrix(0.9993 0 0 1 122.7144 89.8896)" fill="#8C8C8C" font-family="'Lato-Regular'" font-size="9">8</text>
		</g>
	</g>
	<g id="XMLID_3244_">
		<g id="XMLID_3245_">
			<text transform="matrix(0.9993 0 0 1 34.0698 89.8896)" fill="#8C8C8C" font-family="'Lato-Regular'" font-size="9">6</text>
		</g>
	</g>
	<g id="XMLID_3241_">
		<g id="XMLID_3243_">
			<text transform="matrix(0.9993 0 0 1 78.7256 89.8896)" fill="#8C8C8C" font-family="'Lato-Regular'" font-size="9">7</text>
		</g>
	</g>
	<g id="XMLID_3239_">
		<g id="XMLID_3240_">
			<text transform="matrix(0.9993 0 0 1 166.7886 89.8896)" fill="#8C8C8C" font-family="'Roboto-Regular'" font-size="9">9</text>
		</g>
	</g>
	<g id="XMLID_3237_">
		<g id="XMLID_3238_">
			<text transform="matrix(0.9993 0 0 1 209.9497 89.8896)" fill="#8C8C8C" font-family="'Lato-Regular'" font-size="9">10</text>
		</g>
	</g>
	<g id="XMLID_3234_">
		<g id="XMLID_3235_">
			<text transform="matrix(0.9993 0 0 1 255.9243 89.8896)" fill="#8C8C8C" font-family="'Lato-Regular'" font-size="9">11</text>
		</g>
	</g>
	<g id="XMLID_3231_">
		<g id="XMLID_3233_">
			<text transform="matrix(0.9993 0 0 1 298.564 90.1143)" fill="#8C8C8C" font-family="'Lato-Regular'" font-size="9">12</text>
		</g>
	</g>
	<g id="XMLID_3229_">
		<g id="XMLID_3230_">
			<text transform="matrix(0.9993 0 0 1 120.9961 127.6025)" fill="#8C8C8C" font-family="'Lato-Regular'" font-size="9">15</text>
		</g>
	</g>
	<g id="XMLID_3227_">
		<g id="XMLID_3228_">
			<text transform="matrix(0.9993 0 0 1 32.4907 127.6025)" fill="#8C8C8C" font-family="'Lato-Regular'" font-size="9">13</text>
		</g>
	</g>
	<g id="XMLID_3225_">
		<g id="XMLID_3226_">
			<text transform="matrix(0.9993 0 0 1 76.6109 127.6025)" fill="#8C8C8C" font-family="'Lato-Regular'" font-size="9">14</text>
		</g>
	</g>
	<g id="XMLID_3205_">
		<g id="XMLID_3224_">
			<text transform="matrix(0.9993 0 0 1 164.9238 127.6025)" fill="#8C8C8C" font-family="'Roboto-Regular'" font-size="9">16</text>
		</g>
	</g>
	<g id="XMLID_3196_">
		<g id="XMLID_3202_">
			<text transform="matrix(0.9993 0 0 1 210.5664 127.6025)" fill="#8C8C8C" font-family="'Lato-Regular'" font-size="9">17</text>
		</g>
	</g>
	<g id="XMLID_3194_">
		<g id="XMLID_3195_">
			<text transform="matrix(0.9993 0 0 1 254.7095 127.6025)" fill="#8C8C8C" font-family="'Lato-Regular'" font-size="9">18</text>
		</g>
	</g>
	<g id="XMLID_3192_">
		<g id="XMLID_3193_">
			<text transform="matrix(0.9993 0 0 1 298.4268 127.8262)" fill="#8C8C8C" font-family="'Lato-Regular'" font-size="9">19</text>
		</g>
	</g>
	<g id="XMLID_3190_">
		<g id="XMLID_3191_">
			<text transform="matrix(0.9993 0 0 1 119.9185 164.9326)" fill="#8C8C8C" font-family="'Lato-Regular'" font-size="9">22</text>
		</g>
	</g>
	<rect id="XMLID_426_" x="44.962" y="190.539" opacity="0.35" fill="#FFBAE5" width="134.21" height="37.125"/>
	<g id="XMLID_3186_">
		<g id="XMLID_3187_">
			<text transform="matrix(0.9993 0 0 1 76.6675 164.9326)" fill="#8C8C8C" font-family="'Lato-Regular'" font-size="9">21</text>
		</g>
	</g>
	<g id="XMLID_3184_">
		<g id="XMLID_3185_">
			<text transform="matrix(0.9993 0 0 1 164.3213 164.9326)" fill="#8C8C8C" font-family="'Lato-Regular'" font-size="9">23</text>
		</g>
	</g>
	<g id="XMLID_3127_">
		<g id="XMLID_3128_">
			<text transform="matrix(0.9993 0 0 1 209.3965 164.9326)" fill="#8C8C8C" font-family="'Lato-Regular'" font-size="9">24</text>
		</g>
	</g>
	<g id="XMLID_3125_">
		<g id="XMLID_3126_">
			<text transform="matrix(0.9993 0 0 1 253.937 164.9326)" fill="#8C8C8C" font-family="'Lato-Regular'" font-size="9">25</text>
		</g>
	</g>
	<g id="XMLID_3122_">
		<g id="XMLID_3124_">
			<text transform="matrix(0.9993 0 0 1 297.4053 165.1563)" fill="#8C8C8C" font-family="'Lato-Regular'" font-size="9">26</text>
		</g>
	</g>
	<g id="XMLID_3042_">
		<g>
			<g id="XMLID_27_">
				<text transform="matrix(0.9993 0 0 1 213.1426 201.2168)" fill="#DBDBDB" font-family="'Roboto-Regular'" font-size="9">1</text>
			</g>
		</g>
	</g>
	<g id="XMLID_2673_">
		<g>
			<g id="XMLID_49_">
				<text transform="matrix(0.9993 0 0 1 257.6836 201.2168)" fill="#DBDBDB" font-family="'Roboto-Regular'" font-size="9">2</text>
			</g>
		</g>
	</g>
	<g id="XMLID_1385_">
		<g>
			<g id="XMLID_51_">
				<text transform="matrix(0.9993 0 0 1 301.1524 201.4434)" fill="#DBDBDB" font-family="'Roboto-Regular'" font-size="9">3</text>
			</g>
		</g>
	</g>
	<g id="XMLID_2494_">
		<g id="XMLID_3119_">
			<text transform="matrix(0.9993 0 0 1 31.3111 202.3633)" fill="#8C8C8C" font-family="'Lato-Regular'" font-size="9">27</text>
		</g>
	</g>
	<g id="XMLID_2488_">
		<g id="XMLID_2493_">
			<text transform="matrix(0.9993 0 0 1 75.4527 202.3633)" fill="#8C8C8C" font-family="'Lato-Regular'" font-size="9">28</text>
		</g>
	</g>
	<text id="XMLID_2328_" transform="matrix(1 0 0 1 122.8783 9.4404)" fill="#2E3C54" font-family="'Lato-Regular'" font-size="11">January 2017</text>
	<text id="XMLID_2307_" transform="matrix(1 0 0 1 284.1169 30.5918)" fill="#6DD8A0" font-family="'Lato-Bold'" font-size="9">Sun</text>
	<text id="XMLID_2306_" transform="matrix(1 0 0 1 16.0081 30.5918)" fill="#6DD8A0" font-family="'Lato-Bold'" font-size="9">Mon</text>
	<text id="XMLID_2305_" transform="matrix(1 0 0 1 59.7251 30.5918)" fill="#6DD8A0" font-family="'Lato-Bold'" font-size="9">Tue</text>
	<text id="XMLID_2304_" transform="matrix(1 0 0 1 102.5709 30.5918)" fill="#6DD8A0" font-family="'Lato-Bold'" font-size="9">Wed</text>
	<text id="XMLID_2303_" transform="matrix(1 0 0 1 148.1918 30.5918)" fill="#6DD8A0" font-family="'Lato-Bold'" font-size="9">Thu</text>
	<g id="XMLID_635_">
		<text transform="matrix(0.9992 0.015 -0.015 0.9999 277.4287 8.4485)" fill="#8C8C8C" font-family="'Lato-Bold'" font-size="8">Next</text>
	</g>
	<g id="XMLID_634_">
		<text transform="matrix(0.9993 0 0 1 17.9729 8.5643)" fill="#8C8C8C" font-family="'Lato-Bold'" font-size="8">Previous</text>
	</g>
	<text id="XMLID_2302_" transform="matrix(1 0 0 1 195.2781 30.5918)" fill="#6DD8A0" font-family="'Lato-Bold'" font-size="9">Fri</text>
	<text id="XMLID_2301_" transform="matrix(1 0 0 1 238.4534 30.5918)" fill="#6DD8A0" font-family="'Lato-Bold'" font-size="9">Sat</text>
	<line id="XMLID_2294_" fill="none" stroke="#E0E0E0" stroke-miterlimit="10" x1="0.204" y1="78.785" x2="313.336" y2="78.785"/>
	<line id="XMLID_2289_" fill="none" stroke="#E0E0E0" stroke-miterlimit="10" x1="0.204" y1="115.993" x2="313.336" y2="115.993"/>
	<line id="XMLID_2285_" fill="none" stroke="#E0E0E0" stroke-miterlimit="10" x1="0.204" y1="153.2" x2="313.336" y2="153.2"/>
	<line id="XMLID_2280_" fill="none" stroke="#E0E0E0" stroke-miterlimit="10" x1="0.204" y1="190.407" x2="313.336" y2="190.407"/>
	<line id="XMLID_2270_" fill="none" stroke="#E0E0E0" stroke-miterlimit="10" x1="44.911" y1="40.328" x2="44.911" y2="227.663"/>
	<line id="XMLID_2266_" fill="none" stroke="#E0E0E0" stroke-miterlimit="10" x1="89.646" y1="40.328" x2="89.646" y2="227.663"/>
	<line id="XMLID_2263_" fill="none" stroke="#E0E0E0" stroke-miterlimit="10" x1="134.382" y1="40.328" x2="134.382" y2="227.663"/>
	<line id="XMLID_2258_" fill="none" stroke="#E0E0E0" stroke-miterlimit="10" x1="179.118" y1="40.328" x2="179.118" y2="227.663"/>
	<line id="XMLID_2255_" fill="none" stroke="#E0E0E0" stroke-miterlimit="10" x1="223.853" y1="40.328" x2="223.853" y2="227.663"/>
	<line id="XMLID_1166_" fill="none" stroke="#E0E0E0" stroke-miterlimit="10" x1="268.589" y1="40.328" x2="268.589" y2="227.663"/>
	
		<polyline id="XMLID_1499_" fill="none" stroke="#CCCCCC" stroke-linecap="round" stroke-linejoin="round" stroke-miterlimit="10" points="
		299.429,3.086 302.569,6.226 299.429,9.366 	"/>
	
		<polyline id="XMLID_1162_" fill="none" stroke="#CCCCCC" stroke-linecap="round" stroke-linejoin="round" stroke-miterlimit="10" points="
		13,9.366 9.86,6.226 13,3.086 	"/>
	<text id="XMLID_1305_" transform="matrix(0.9993 0 0 1 94.395 99.2642)"><tspan x="0" y="0" fill="#404040" font-family="'Lato-Regular'" font-size="9">Test</tspan><tspan x="0" y="10.8" fill="#404040" font-family="'Lato-Regular'" font-size="9">Fee Due</tspan></text>
	
		<text id="XMLID_1334_" transform="matrix(0.9993 0 0 1 139.335 146.7178)" fill="#404040" font-family="'Lato-Regular'" font-size="9">Exam</text>
	
		<text id="XMLID_1335_" transform="matrix(0.9993 0 0 1 184.032 146.6786)" fill="#404040" font-family="'Lato-Regular'" font-size="9">PTM</text>
	<g id="XMLID_3188_">
		<g>
			<g id="XMLID_53_">
				<text transform="matrix(0.9993 0 0 1 30.6963 164.9326)" fill="#8C8C8C" font-family="'Lato-Regular'" font-size="9">20</text>
			</g>
		</g>
	</g>
	
		<text id="XMLID_320_" transform="matrix(0.9993 0 0 1 48.9746 220.4304)" fill="#404040" font-family="'Lato-Regular'" font-size="9">Winter Vacations</text>
	<g id="XMLID_3121_">
		<text transform="matrix(0.9993 0 0 1 119.7813 202.3633)" fill="#8C8C8C" font-family="'Lato-Regular'" font-size="9">29</text>
	</g>
	<g id="XMLID_3120_">
		<text transform="matrix(0.9993 0 0 1 163.8252 202.3633)" fill="#8C8C8C" font-family="'Lato-Regular'" font-size="9">30</text>
	</g>
</g>
</svg>
