<?xml version="1.0" encoding="utf-8"?>
<!-- Generator: Adobe Illustrator 17.0.0, SVG Export Plug-In . SVG Version: 6.00 Build 0)  -->
<!DOCTYPE svg PUBLIC "-//W3C//DTD SVG 1.1//EN" "http://www.w3.org/Graphics/SVG/1.1/DTD/svg11.dtd">
<svg version="1.1" id="Layer_1" xmlns="http://www.w3.org/2000/svg" xmlns:xlink="http://www.w3.org/1999/xlink" x="0px" y="0px"
	 width="687.274px" height="438.448px" viewBox="0 0 687.274 438.448" enable-background="new 0 0 687.274 438.448"
	 xml:space="preserve">
<g>
	<rect id="XMLID_7669_" x="196.312" y="160" opacity="0.35" fill="#49EFAE" width="97.753" height="69.499"/>
	<rect id="XMLID_7668_" x="491.494" y="87.497" fill="#FAFAFA" width="195.681" height="350.951"/>
	<rect id="XMLID_7667_" x="393.576" y="229.588" opacity="0.35" fill="#FFDF2E" width="97.753" height="69.499"/>
	<line id="XMLID_7625_" fill="#FAFAFA" stroke="#E0E0E0" stroke-miterlimit="10" x1="687.05" y1="42.01" x2="0" y2="42.01"/>
	<line id="XMLID_621_" fill="#FAFAFA" stroke="#E0E0E0" stroke-miterlimit="10" x1="687.05" y1="0" x2="0" y2="0"/>
	<line id="XMLID_7582_" fill="#FAFAFA" stroke="#E0E0E0" stroke-miterlimit="10" x1="0" y1="87.757" x2="687.05" y2="87.757"/>
	<g id="XMLID_7578_">
		<g id="XMLID_7579_">
			<text transform="matrix(0.9993 0 0 1 278.1541 106.6779)" fill="#8C8C8C" font-family="'Lato-Regular'" font-size="13">1</text>
		</g>
	</g>
	<g id="XMLID_7574_">
		<g id="XMLID_7575_">
			<text transform="matrix(0.9993 0 0 1 175.762 106.6779)" fill="#DBDBDB" font-family="'Lato-Regular'" font-size="13">31</text>
		</g>
	</g>
	<g id="XMLID_7570_">
		<g id="XMLID_7571_">
			<text transform="matrix(0.9993 0 0 1 75.3149 106.6779)" fill="#DBDBDB" font-family="'Lato-Regular'" font-size="13">30</text>
		</g>
	</g>
	<g id="XMLID_7566_">
		<g id="XMLID_7567_">
			<text transform="matrix(0.9993 0 0 1 373.0198 106.6779)" fill="#8C8C8C" font-family="'Lato-Regular'" font-size="13">2</text>
		</g>
	</g>
	<g id="XMLID_7562_">
		<g id="XMLID_7563_">
			<text transform="matrix(0.9993 0 0 1 473.0894 106.6779)" fill="#8C8C8C" font-family="'Lato-Regular'" font-size="13">3</text>
		</g>
	</g>
	<g id="XMLID_7558_">
		<g id="XMLID_7559_">
			<text transform="matrix(0.9993 0 0 1 570.0764 106.6779)" fill="#8C8C8C" font-family="'Lato-Regular'" font-size="13">4</text>
		</g>
	</g>
	<g id="XMLID_7553_">
		<g id="XMLID_7554_">
			<text transform="matrix(0.9993 0 0 1 666.4075 107.0978)" fill="#8C8C8C" font-family="'Lato-Regular'" font-size="13">5</text>
		</g>
	</g>
	<g id="XMLID_7548_">
		<g id="XMLID_7550_">
			<text transform="matrix(0.9993 0 0 1 275.8826 178.5353)" fill="#8C8C8C" font-family="'Lato-Regular'" font-size="13">8</text>
		</g>
	</g>
	<g id="XMLID_7544_">
		<g id="XMLID_7545_">
			<text transform="matrix(0.9993 0 0 1 81.1646 178.5353)" fill="#8C8C8C" font-family="'Lato-Regular'" font-size="13">6</text>
		</g>
	</g>
	<g id="XMLID_7538_">
		<g id="XMLID_7541_">
			<text transform="matrix(0.9993 0 0 1 176.1477 180.5353)" fill="#8C8C8C" font-family="'Lato-Regular'" font-size="16.8481">7</text>
		</g>
	</g>
	<g id="XMLID_7534_">
		<g id="XMLID_7535_">
			<text transform="matrix(0.9993 0 0 1 372.7751 178.5353)" fill="#8C8C8C" font-family="'Roboto-Regular'" font-size="13">9</text>
		</g>
	</g>
	<g id="XMLID_7530_">
		<g id="XMLID_7531_">
			<text transform="matrix(0.9993 0 0 1 467.9604 178.5353)" fill="#8C8C8C" font-family="'Lato-Regular'" font-size="13">10</text>
		</g>
	</g>
	<g id="XMLID_7524_">
		<g id="XMLID_7525_">
			<text transform="matrix(0.9993 0 0 1 568.4114 178.5353)" fill="#8C8C8C" font-family="'Lato-Regular'" font-size="13">11</text>
		</g>
	</g>
	<g id="XMLID_7511_">
		<g id="XMLID_7512_">
			<text transform="matrix(0.9993 0 0 1 662.6194 178.9552)" fill="#8C8C8C" font-family="'Lato-Regular'" font-size="13">12</text>
		</g>
	</g>
	<g id="XMLID_7499_">
		<g id="XMLID_7500_">
			<text transform="matrix(0.9993 0 0 1 272.6648 249.1349)" fill="#8C8C8C" font-family="'Lato-Regular'" font-size="13">15</text>
		</g>
	</g>
	<g id="XMLID_7495_">
		<g id="XMLID_7496_">
			<text transform="matrix(0.9993 0 0 1 78.2085 249.1349)" fill="#8C8C8C" font-family="'Lato-Regular'" font-size="13">13</text>
		</g>
	</g>
	<g id="XMLID_7490_">
		<g id="XMLID_7491_">
			<text transform="matrix(0.9993 0 0 1 172.1887 251.1349)" fill="#8C8C8C" font-family="'Lato-Regular'" font-size="16.8481">14</text>
		</g>
	</g>
	<g id="XMLID_7486_">
		<g id="XMLID_7487_">
			<text transform="matrix(0.9993 0 0 1 369.2854 249.1349)" fill="#8C8C8C" font-family="'Roboto-Regular'" font-size="13">16</text>
		</g>
	</g>
	<g id="XMLID_7482_">
		<g id="XMLID_7483_">
			<text transform="matrix(0.9993 0 0 1 469.1147 249.1349)" fill="#8C8C8C" font-family="'Lato-Regular'" font-size="13">17</text>
		</g>
	</g>
	<g id="XMLID_7469_">
		<g id="XMLID_7471_">
			<text transform="matrix(0.9993 0 0 1 566.137 249.1349)" fill="#8C8C8C" font-family="'Lato-Regular'" font-size="13">18</text>
		</g>
	</g>
	<g id="XMLID_7333_">
		<g id="XMLID_7334_">
			<text transform="matrix(0.9993 0 0 1 662.3635 249.5529)" fill="#8C8C8C" font-family="'Lato-Regular'" font-size="13">19</text>
		</g>
	</g>
	<g id="XMLID_7222_">
		<g id="XMLID_7225_">
			<text transform="matrix(0.9993 0 0 1 270.6477 319.0157)" fill="#8C8C8C" font-family="'Lato-Regular'" font-size="13">22</text>
		</g>
	</g>
	<rect id="XMLID_7220_" x="98.555" y="298.599" opacity="0.35" fill="#FFBAE5" width="97.391" height="69.499"/>
	<g id="XMLID_7195_">
		<g id="XMLID_7210_">
			<text transform="matrix(0.9993 0 0 1 172.2942 321.0157)" fill="#8C8C8C" font-family="'Lato-Regular'" font-size="16.8481">21</text>
		</g>
	</g>
	<g id="XMLID_7123_">
		<g id="XMLID_7127_">
			<text transform="matrix(0.9993 0 0 1 368.1575 319.0157)" fill="#8C8C8C" font-family="'Lato-Regular'" font-size="13">23</text>
		</g>
	</g>
	<g id="XMLID_7117_">
		<g id="XMLID_7118_">
			<text transform="matrix(0.9993 0 0 1 466.9243 319.0157)" fill="#8C8C8C" font-family="'Lato-Regular'" font-size="13">24</text>
		</g>
	</g>
	<g id="XMLID_7113_">
		<g id="XMLID_7114_">
			<text transform="matrix(0.9993 0 0 1 564.6917 319.0157)" fill="#8C8C8C" font-family="'Lato-Regular'" font-size="13">25</text>
		</g>
	</g>
	<g id="XMLID_7109_">
		<g id="XMLID_7110_">
			<text transform="matrix(0.9993 0 0 1 660.4504 319.4337)" fill="#8C8C8C" font-family="'Lato-Regular'" font-size="13">26</text>
		</g>
	</g>
	<g id="XMLID_6954_">
		<g>
			<g id="XMLID_52_">
				<text transform="matrix(0.9993 0 0 1 473.938 386.9396)" fill="#DBDBDB" font-family="'Roboto-Regular'" font-size="13">1</text>
			</g>
		</g>
	</g>
	<g id="XMLID_6941_">
		<g>
			<g id="XMLID_50_">
				<text transform="matrix(0.9993 0 0 1 571.7053 386.9396)" fill="#DBDBDB" font-family="'Roboto-Regular'" font-size="13">2</text>
			</g>
		</g>
	</g>
	<g id="XMLID_6917_">
		<g>
			<g id="XMLID_48_">
				<text transform="matrix(0.9993 0 0 1 667.4651 387.3634)" fill="#DBDBDB" font-family="'Roboto-Regular'" font-size="13">3</text>
			</g>
		</g>
	</g>
	<g id="XMLID_6906_">
		<g id="XMLID_6907_">
			<text transform="matrix(0.9993 0 0 1 76.0005 389.0861)" fill="#8C8C8C" font-family="'Lato-Regular'" font-size="13">27</text>
		</g>
	</g>
	<g id="XMLID_6902_">
		<g id="XMLID_6903_">
			<text transform="matrix(0.9993 0 0 1 173.0208 389.0861)" fill="#8C8C8C" font-family="'Lato-Regular'" font-size="13">28</text>
		</g>
	</g>
	<text id="XMLID_6901_" transform="matrix(1 0 0 1 287.575 25.9318)" fill="#2E3C54" font-family="'Lato-Regular'" font-size="16">January 2017</text>
	<text id="XMLID_6900_" transform="matrix(1 0 0 1 632.5776 69.5294)" fill="#6DD8A0" font-family="'Lato-Bold'" font-size="15">Sun</text>
	<text id="XMLID_6899_" transform="matrix(1 0 0 1 44.3542 69.5294)" fill="#6DD8A0" font-family="'Lato-Bold'" font-size="15">Mon</text>
	<text id="XMLID_6898_" transform="matrix(1 0 0 1 140.5784 69.5294)" fill="#6DD8A0" font-family="'Lato-Bold'" font-size="15">Tue</text>
	<text id="XMLID_6897_" transform="matrix(1 0 0 1 235.1729 69.5294)" fill="#6DD8A0" font-family="'Lato-Bold'" font-size="15">Wed</text>
	<text id="XMLID_6896_" transform="matrix(1 0 0 1 334.9614 69.5294)" fill="#6DD8A0" font-family="'Lato-Bold'" font-size="15">Thu</text>
	<g id="XMLID_6893_">
		<text transform="matrix(0.9992 0.015 -0.015 0.9999 620.0762 24.7748)" fill="#8C8C8C" font-family="'Lato-Bold'" font-size="13">Next</text>
	</g>
	<g id="XMLID_6890_">
		<text transform="matrix(0.9993 0 0 1 33.646 24.9518)" fill="#8C8C8C" font-family="'Lato-Bold'" font-size="13">Previous</text>
	</g>
	<text id="XMLID_6889_" transform="matrix(1 0 0 1 423.1079 69.5294)" fill="#6DD8A0" font-family="'Lato-Bold'" font-size="15">Fri</text>
	<text id="XMLID_6888_" transform="matrix(1 0 0 1 532.7063 69.5294)" fill="#6DD8A0" font-family="'Lato-Bold'" font-size="15">Sat</text>
	<line id="XMLID_6885_" fill="none" stroke="#E0E0E0" stroke-miterlimit="10" x1="0.381" y1="159.748" x2="687.274" y2="159.748"/>
	<line id="XMLID_6881_" fill="none" stroke="#E0E0E0" stroke-miterlimit="10" x1="0.381" y1="229.4" x2="687.274" y2="229.4"/>
	<line id="XMLID_6874_" fill="none" stroke="#E0E0E0" stroke-miterlimit="10" x1="0.381" y1="299.052" x2="687.274" y2="299.052"/>
	<line id="XMLID_6868_" fill="none" stroke="#E0E0E0" stroke-miterlimit="10" x1="0.381" y1="368.704" x2="687.274" y2="368.704"/>
	<line id="XMLID_6865_" fill="none" stroke="#E0E0E0" stroke-miterlimit="10" x1="98.46" y1="87.755" x2="98.46" y2="438.448"/>
	<line id="XMLID_6862_" fill="none" stroke="#E0E0E0" stroke-miterlimit="10" x1="196.592" y1="87.755" x2="196.592" y2="438.448"/>
	<line id="XMLID_6857_" fill="none" stroke="#E0E0E0" stroke-miterlimit="10" x1="294.724" y1="87.755" x2="294.724" y2="438.448"/>
	<line id="XMLID_6854_" fill="none" stroke="#E0E0E0" stroke-miterlimit="10" x1="392.856" y1="87.755" x2="392.856" y2="438.448"/>
	<line id="XMLID_6851_" fill="none" stroke="#E0E0E0" stroke-miterlimit="10" x1="490.989" y1="87.755" x2="490.989" y2="438.448"/>
	<line id="XMLID_6847_" fill="none" stroke="#E0E0E0" stroke-miterlimit="10" x1="589.121" y1="87.755" x2="589.121" y2="438.448"/>
	
		<polyline id="XMLID_6846_" fill="none" stroke="#CCCCCC" stroke-linecap="round" stroke-linejoin="round" stroke-miterlimit="10" points="
		661.241,14.648 667.119,20.526 661.241,26.404 	"/>
	
		<polyline id="XMLID_6845_" fill="none" stroke="#CCCCCC" stroke-linecap="round" stroke-linejoin="round" stroke-miterlimit="10" points="
		24.336,26.404 18.458,20.526 24.336,14.648 	"/>
	
		<text id="XMLID_6844_" transform="matrix(0.9993 0 0 1 206.8245 218.1486)" fill="#404040" font-family="'Lato-Regular'" font-size="14">Sick Leave</text>
	
		<text id="XMLID_6842_" transform="matrix(0.9993 0 0 1 402.0559 286.8439)" fill="#404040" font-family="'Lato-Regular'" font-size="14">Fee Due</text>
	<g id="XMLID_6832_">
		<g>
			<g id="XMLID_27_">
				<text transform="matrix(0.9993 0 0 1 74.8501 319.0157)" fill="#8C8C8C" font-family="'Lato-Regular'" font-size="13">20</text>
			</g>
		</g>
	</g>
	
		<text id="XMLID_6831_" transform="matrix(0.9993 0 0 1 111.8674 354.5616)" fill="#404040" font-family="'Lato-Regular'" font-size="14">Late</text>
	<g id="XMLID_6828_">
		<text transform="matrix(0.9993 0 0 1 270.3904 389.0861)" fill="#8C8C8C" font-family="'Lato-Regular'" font-size="13">29</text>
	</g>
	<g id="XMLID_6825_">
		<text transform="matrix(0.9993 0 0 1 367.2288 389.0861)" fill="#8C8C8C" font-family="'Lato-Regular'" font-size="13">30</text>
	</g>
</g>
</svg>
