<?xml version="1.0" encoding="utf-8"?>
<!-- Generator: Adobe Illustrator 17.0.0, SVG Export Plug-In . SVG Version: 6.00 Build 0)  -->
<!DOCTYPE svg PUBLIC "-//W3C//DTD SVG 1.1//EN" "http://www.w3.org/Graphics/SVG/1.1/DTD/svg11.dtd">
<svg version="1.1" id="Layer_1" xmlns="http://www.w3.org/2000/svg" xmlns:xlink="http://www.w3.org/1999/xlink" x="0px" y="0px"
	 width="38.902px" height="38.902px" viewBox="0 0 38.902 38.902" enable-background="new 0 0 38.902 38.902" xml:space="preserve">
<g id="XMLID_35_">
	<path fill="#E0E0E0" d="M18.046,27.665c-0.232,0-0.459-0.081-0.64-0.231l-7.853-6.535c-0.425-0.353-0.482-0.984-0.129-1.408
		c0.352-0.424,0.983-0.484,1.408-0.129l7.034,5.854l10.2-13.954c0.326-0.445,0.952-0.543,1.397-0.217
		c0.446,0.326,0.543,0.952,0.218,1.397L18.854,27.255c-0.163,0.223-0.411,0.368-0.686,0.402
		C18.128,27.662,18.087,27.665,18.046,27.665z"/>
	
		<path id="XMLID_52_" fill="none" stroke="#E0E0E0" stroke-width="2" stroke-linecap="round" stroke-linejoin="round" stroke-miterlimit="10" d="
		M35.468,16.937"/>
	<path fill="#E0E0E0" d="M19.451,38.902C8.726,38.902,0,30.177,0,19.451S8.726,0,19.451,0s19.451,8.726,19.451,19.451
		S30.177,38.902,19.451,38.902z M19.451,2C9.828,2,2,9.829,2,19.451s7.828,17.451,17.451,17.451s17.451-7.829,17.451-17.451
		S29.074,2,19.451,2z"/>
</g>
</svg>
