<?xml version="1.0" encoding="utf-8"?>
<!-- Generator: Adobe Illustrator 17.0.0, SVG Export Plug-In . SVG Version: 6.00 Build 0)  -->
<!DOCTYPE svg PUBLIC "-//W3C//DTD SVG 1.1//EN" "http://www.w3.org/Graphics/SVG/1.1/DTD/svg11.dtd">
<svg version="1.1" id="Layer_1" xmlns="http://www.w3.org/2000/svg" xmlns:xlink="http://www.w3.org/1999/xlink" x="0px" y="0px"
	 width="10px" height="10.261px" viewBox="0 0 10 10.261" enable-background="new 0 0 10 10.261" xml:space="preserve">
<path fill="#CCCCCC" d="M5.697,5.131l4.161-4.282c0.192-0.198,0.188-0.515-0.01-0.707C9.65-0.051,9.334-0.046,9.142,0.151L5,4.413
	L0.858,0.151C0.667-0.046,0.35-0.052,0.151,0.141c-0.198,0.192-0.203,0.509-0.01,0.707L4.302,5.13l-4.16,4.283
	c-0.193,0.198-0.188,0.515,0.01,0.707c0.097,0.095,0.223,0.142,0.349,0.142c0.13,0,0.261-0.051,0.358-0.151L5,5.848l4.142,4.262
	c0.098,0.101,0.229,0.151,0.358,0.151c0.126,0,0.251-0.047,0.349-0.142c0.198-0.192,0.202-0.509,0.01-0.707L5.697,5.131z"/>
</svg>
