<?xml version="1.0" encoding="utf-8"?>
<!-- Generator: Adobe Illustrator 17.0.0, SVG Export Plug-In . SVG Version: 6.00 Build 0)  -->
<!DOCTYPE svg PUBLIC "-//W3C//DTD SVG 1.1//EN" "http://www.w3.org/Graphics/SVG/1.1/DTD/svg11.dtd">
<svg version="1.1" id="Layer_1" xmlns="http://www.w3.org/2000/svg" xmlns:xlink="http://www.w3.org/1999/xlink" x="0px" y="0px"
	 width="18.229px" height="17.271px" viewBox="0 0 18.229 17.271" enable-background="new 0 0 18.229 17.271" xml:space="preserve">
<g id="XMLID_501_" opacity="0.4">
	<path fill="#FFFFFF" d="M14.881,13.323H3.348c-0.276,0-0.5-0.224-0.5-0.5s0.224-0.5,0.5-0.5h11.533c0.276,0,0.5,0.224,0.5,0.5
		S15.157,13.323,14.881,13.323z"/>
	<path fill="#FFFFFF" d="M17.729,17.271H0.5c-0.276,0-0.5-0.224-0.5-0.5V0.5C0,0.224,0.224,0,0.5,0h17.229
		c0.276,0,0.5,0.224,0.5,0.5v16.271C18.229,17.048,18.005,17.271,17.729,17.271z M1,16.271h16.229V1H1V16.271z"/>
</g>
</svg>
