<?xml version="1.0" encoding="utf-8"?>
<!-- Generator: Adobe Illustrator 17.0.0, SVG Export Plug-In . SVG Version: 6.00 Build 0)  -->
<!DOCTYPE svg PUBLIC "-//W3C//DTD SVG 1.1//EN" "http://www.w3.org/Graphics/SVG/1.1/DTD/svg11.dtd">
<svg version="1.1" id="Layer_1" xmlns="http://www.w3.org/2000/svg" xmlns:xlink="http://www.w3.org/1999/xlink" x="0px" y="0px"
	 width="19.646px" height="19.125px" viewBox="0 0 19.646 19.125" enable-background="new 0 0 19.646 19.125" xml:space="preserve">
<g>
	<polygon fill="#212E47" points="12.875,18.125 1,18.125 1,1 12.875,1 12.875,7.505 13.875,7.505 13.875,0 0,0 0,19.125 
		13.875,19.125 13.875,11.62 12.875,11.62 	"/>
	<path fill="#212E47" d="M19.645,9.563c0.002-0.055,0.002-0.105-0.015-0.157l0,0l0,0c-0.022-0.067-0.048-0.134-0.1-0.186
		l-2.783-2.783c-0.09-0.09-0.207-0.134-0.325-0.134s-0.235,0.045-0.325,0.134c-0.179,0.179-0.179,0.47,0,0.649l1.999,1.999H7.042
		c-0.254,0-0.459,0.205-0.459,0.459c0,0.007,0.004,0.012,0.004,0.019c0,0.007-0.004,0.012-0.004,0.019
		c0,0.254,0.205,0.459,0.459,0.459h11.056l-1.999,1.999c-0.179,0.179-0.179,0.47,0,0.649c0.09,0.09,0.207,0.134,0.325,0.134
		s0.235-0.045,0.325-0.134l2.783-2.783c0.052-0.052,0.078-0.119,0.1-0.186l0,0l0,0C19.647,9.667,19.648,9.617,19.645,9.563z"/>
</g>
</svg>
