<?xml version="1.0" encoding="utf-8"?>
<!-- Generator: Adobe Illustrator 17.0.0, SVG Export Plug-In . SVG Version: 6.00 Build 0)  -->
<!DOCTYPE svg PUBLIC "-//W3C//DTD SVG 1.1//EN" "http://www.w3.org/Graphics/SVG/1.1/DTD/svg11.dtd">
<svg version="1.1" id="Layer_1" xmlns="http://www.w3.org/2000/svg" xmlns:xlink="http://www.w3.org/1999/xlink" x="0px" y="0px"
	 width="23px" height="18px" viewBox="0 0 23 18" enable-background="new 0 0 23 18" xml:space="preserve">
<g id="XMLID_20666_" opacity="0.75">
	<path id="XMLID_458_" fill="#6DD8A0" d="M20.796,16.15H2.204c-0.401,0-0.704-0.256-0.704-0.596V2.446
		c0-0.34,0.303-0.596,0.704-0.596h18.592c0.401,0,0.704,0.256,0.704,0.596v13.108C21.5,15.894,21.198,16.15,20.796,16.15z
		 M2.409,15.241h18.182V2.759H2.409V15.241z"/>
	<g id="XMLID_20669_">
		<g id="XMLID_20676_">
			<g id="XMLID_20677_">
				<path id="XMLID_20680_" fill="#6DD8A0" d="M7.772,7.93H5.635c-0.14,0-0.254-0.114-0.254-0.254V6.019
					c0-0.14,0.114-0.254,0.254-0.254h2.137c0.14,0,0.254,0.114,0.254,0.254v1.657C8.026,7.816,7.912,7.93,7.772,7.93z"/>
				<path id="XMLID_20679_" fill="#6DD8A0" d="M17.366,7.93H9.804c-0.14,0-0.254-0.114-0.254-0.254V6.019
					c0-0.14,0.114-0.254,0.254-0.254h7.562c0.14,0,0.254,0.114,0.254,0.254v1.657C17.62,7.816,17.506,7.93,17.366,7.93z"/>
			</g>
		</g>
		<g id="XMLID_20670_">
			<g id="XMLID_20671_">
				<path id="XMLID_20674_" fill="#6DD8A0" d="M15.229,10.07h2.137c0.14,0,0.254,0.114,0.254,0.254v1.657
					c0,0.14-0.114,0.254-0.254,0.254h-2.137c-0.14,0-0.254-0.114-0.254-0.254v-1.657C14.974,10.184,15.088,10.07,15.229,10.07z"/>
				<path id="XMLID_20673_" fill="#6DD8A0" d="M5.635,10.07h7.562c0.14,0,0.254,0.114,0.254,0.254v1.657
					c0,0.14-0.114,0.254-0.254,0.254H5.635c-0.14,0-0.254-0.114-0.254-0.254v-1.657C5.38,10.184,5.494,10.07,5.635,10.07z"/>
			</g>
		</g>
	</g>
</g>
</svg>
