<?xml version="1.0" encoding="utf-8"?>
<!-- Generator: Adobe Illustrator 17.0.0, SVG Export Plug-In . SVG Version: 6.00 Build 0)  -->
<!DOCTYPE svg PUBLIC "-//W3C//DTD SVG 1.1//EN" "http://www.w3.org/Graphics/SVG/1.1/DTD/svg11.dtd">
<svg version="1.1" id="Layer_1" xmlns="http://www.w3.org/2000/svg" xmlns:xlink="http://www.w3.org/1999/xlink" x="0px" y="0px"
	 width="23px" height="18px" viewBox="0 0 23 18" enable-background="new 0 0 23 18" xml:space="preserve">
<g id="XMLID_20756_" opacity="0.75">
	<path id="XMLID_508_" fill="#6DD8A0" d="M20.796,16.15H2.204c-0.401,0-0.704-0.256-0.704-0.596V2.446
		c0-0.34,0.303-0.596,0.704-0.596h18.592c0.401,0,0.704,0.256,0.704,0.596v13.108C21.5,15.894,21.197,16.15,20.796,16.15z
		 M2.409,15.241h18.182V2.759H2.409V15.241z"/>
	<g id="XMLID_20757_">
		<g id="XMLID_20761_">
			<path id="XMLID_507_" fill="#6DD8A0" d="M18.394,6.951h-3.775c-0.251,0-0.455-0.203-0.455-0.455c0-0.251,0.203-0.455,0.455-0.455
				h3.775c0.251,0,0.455,0.203,0.455,0.455C18.849,6.747,18.645,6.951,18.394,6.951z"/>
			<path id="XMLID_506_" fill="#6DD8A0" d="M18.394,9.455h-3.775c-0.251,0-0.455-0.203-0.455-0.455s0.203-0.455,0.455-0.455h3.775
				c0.251,0,0.455,0.203,0.455,0.455S18.645,9.455,18.394,9.455z"/>
			<path id="XMLID_498_" fill="#6DD8A0" d="M18.394,11.959h-3.775c-0.251,0-0.455-0.203-0.455-0.455s0.203-0.455,0.455-0.455h3.775
				c0.251,0,0.455,0.203,0.455,0.455S18.645,11.959,18.394,11.959z"/>
		</g>
		<path id="XMLID_20758_" fill="#6DD8A0" d="M11.911,13.03c-0.312,0-0.625,0-0.937,0c-2.119,0-4.233,0-6.369,0
			c0.034-0.157,0.052-0.285,0.089-0.407c0.173-0.567,0.613-0.865,1.113-1.093c0.324-0.148,0.658-0.275,0.985-0.415
			c0.433-0.186,0.71-0.476,0.639-0.995c-0.013-0.092,0.003-0.188-0.007-0.28c-0.007-0.06-0.032-0.121-0.058-0.177
			C7.243,9.391,7.117,9.12,6.989,8.851C6.966,8.803,6.94,8.75,6.901,8.719c-0.274-0.217-0.346-0.59-0.18-0.905
			C6.75,7.76,6.746,7.682,6.741,7.616C6.709,7.188,6.634,6.759,6.648,6.332c0.019-0.566,0.289-1.022,0.837-1.219
			c0.593-0.214,1.217-0.206,1.858,0.144c0.49,0.267,0.682,0.428,0.773,0.826c0.118,0.513,0.03,1.014-0.089,1.515
			c-0.017,0.073-0.012,0.169,0.022,0.234C10.159,8.051,10.16,8.441,9.97,8.6C9.793,8.748,9.75,8.932,9.683,9.124
			c-0.042,0.121-0.08,0.26-0.164,0.348c-0.202,0.212-0.195,0.463-0.185,0.722c0.002,0.058,0.009,0.116,0.004,0.173
			c-0.019,0.216,0.079,0.38,0.24,0.502c0.13,0.099,0.271,0.188,0.419,0.256c0.304,0.14,0.63,0.238,0.921,0.401
			c0.105,0.059,0.211,0.095,0.318,0.122c0.402,0.215,0.741,0.498,0.888,0.976c0.037,0.122,0.055,0.25,0.089,0.407
			C12.111,13.03,12.012,13.03,11.911,13.03z"/>
	</g>
</g>
</svg>
