<?xml version="1.0" encoding="utf-8"?>
<!-- Generator: Adobe Illustrator 17.0.0, SVG Export Plug-In . SVG Version: 6.00 Build 0)  -->
<!DOCTYPE svg PUBLIC "-//W3C//DTD SVG 1.1//EN" "http://www.w3.org/Graphics/SVG/1.1/DTD/svg11.dtd">
<svg version="1.1" id="Layer_1" xmlns="http://www.w3.org/2000/svg" xmlns:xlink="http://www.w3.org/1999/xlink" x="0px" y="0px"
	 width="23px" height="18px" viewBox="0 0 23 18" enable-background="new 0 0 23 18" xml:space="preserve">
<g id="XMLID_12_" opacity="0.75">
	<path id="XMLID_451_" fill="#6DD8A0" d="M13.154,13.736c-0.046,0-0.093-0.008-0.138-0.024L2.453,10.007
		c-0.13-0.046-0.229-0.153-0.265-0.286c-0.035-0.133-0.002-0.276,0.088-0.38l7.558-8.736c0.103-0.12,0.263-0.171,0.418-0.131
		l10.935,2.772c0.138,0.035,0.249,0.138,0.293,0.274c0.044,0.136,0.017,0.284-0.074,0.394l-7.929,9.67
		C13.396,13.682,13.277,13.736,13.154,13.736z M3.307,9.423l9.71,3.406l7.328-8.936l-10.05-2.548L3.307,9.423z"/>
	<path id="XMLID_450_" fill="#6DD8A0" d="M13.282,17.54c-0.05,0-0.099-0.009-0.147-0.027L2.391,13.449
		c-0.084-0.032-0.155-0.09-0.204-0.165c-0.565-0.88-1.266-2.854,0.116-4.021c0.177-0.15,0.44-0.125,0.587,0.049
		C3.039,9.489,3.017,9.752,2.841,9.9c-1.01,0.853-0.258,2.392-0.018,2.821l10.323,3.905c1.029-1.285,5.944-7.432,7.22-9.197
		c-0.72-0.865-0.379-2.636-0.332-2.86c0.047-0.225,0.263-0.374,0.493-0.322c0.225,0.047,0.37,0.268,0.323,0.493
		c-0.158,0.76-0.179,2.003,0.276,2.257c0.101,0.057,0.175,0.153,0.202,0.265c0.027,0.113,0.007,0.232-0.057,0.328
		c-0.896,1.354-7.387,9.45-7.663,9.794C13.526,17.484,13.406,17.54,13.282,17.54z"/>
	<path id="XMLID_17077_" fill="#6DD8A0" d="M14.666,6.868c0.358,0.007,0.574-0.058,0.737-0.242c0.18-0.202,0.354-0.41,0.522-0.623
		c0.131-0.165,0.093-0.318-0.097-0.416c-0.071-0.037-0.15-0.061-0.227-0.08c-0.882-0.218-1.764-0.435-2.647-0.652
		c-0.791-0.194-1.581-0.391-2.374-0.576C10.222,4.196,9.916,4.3,9.684,4.6c-0.091,0.118-0.19,0.23-0.285,0.344
		C9.055,5.355,9.111,5.511,9.641,5.641c1.301,0.318,2.602,0.638,3.902,0.957C13.955,6.698,14.367,6.796,14.666,6.868z"/>
</g>
</svg>
