<?xml version="1.0" encoding="utf-8"?>
<!-- Generator: Adobe Illustrator 17.0.0, SVG Export Plug-In . SVG Version: 6.00 Build 0)  -->
<!DOCTYPE svg PUBLIC "-//W3C//DTD SVG 1.1//EN" "http://www.w3.org/Graphics/SVG/1.1/DTD/svg11.dtd">
<svg version="1.1" id="Layer_1" xmlns="http://www.w3.org/2000/svg" xmlns:xlink="http://www.w3.org/1999/xlink" x="0px" y="0px"
	 width="23px" height="18px" viewBox="0 0 23 18" enable-background="new 0 0 23 18" xml:space="preserve">
<g id="XMLID_17069_" opacity="0.75">
	<path id="XMLID_448_" fill="#6DD8A0" d="M17.777,5.189c-0.226,0-0.409-0.183-0.409-0.409l-0.004-2.959l-2.776-0.005
		c-0.226,0-0.409-0.184-0.408-0.41c0-0.226,0.183-0.408,0.409-0.408h0.001l3.051,0.005c0.303,0.002,0.541,0.274,0.542,0.619
		l0.004,3.156C18.186,5.005,18.003,5.189,17.777,5.189L17.777,5.189z"/>
	<path id="XMLID_431_" fill="#6DD8A0" d="M17.663,18L5.36,17.979c-0.303,0-0.541-0.273-0.541-0.621L4.795,1.605
		C4.795,1.423,4.861,1.252,4.977,1.136c0.077-0.077,0.251-0.153,0.36-0.153l3.089,0.005c0.226,0,0.409,0.184,0.408,0.41
		c0,0.226-0.183,0.408-0.409,0.408c0,0,0,0,0,0l-2.81-0.005l0.022,15.36l11.75,0.02l-0.02-13.857c0-0.226,0.183-0.409,0.408-0.41
		c0,0,0.001,0,0.001,0c0.226,0,0.409,0.183,0.409,0.408l0.021,14.056C18.205,17.728,17.967,18,17.663,18z"/>
	<path id="XMLID_17_" fill="#6DD8A0" d="M14.455,0.372l0.004,2.663c0,0.022-0.028,0.04-0.063,0.04l-5.813-0.01
		c-0.034,0-0.063-0.018-0.063-0.04L8.517,0.04C8.517,0.018,8.545,0,8.58,0l5.813,0.01c0.034,0,0.063,0.018,0.063,0.04l0.001,0.598"
		/>
	<path id="XMLID_447_" fill="#6DD8A0" d="M14.568,12.067L14.568,12.067l-6.13-0.01c-0.226,0-0.409-0.184-0.408-0.41
		c0-0.226,0.183-0.408,0.409-0.408c0,0,0,0,0.001,0l6.13,0.01c0.226,0,0.409,0.184,0.408,0.41
		C14.977,11.884,14.794,12.067,14.568,12.067z"/>
	<path id="XMLID_445_" fill="#6DD8A0" d="M14.572,14.485C14.571,14.485,14.571,14.485,14.572,14.485l-6.13-0.01
		c-0.226,0-0.409-0.184-0.408-0.41c0-0.226,0.183-0.408,0.409-0.408c0,0,0,0,0,0l6.13,0.01c0.226,0,0.409,0.184,0.408,0.41
		C14.98,14.303,14.797,14.485,14.572,14.485z"/>
	<path id="XMLID_432_" fill="#6DD8A0" d="M10.537,9.452c-0.118,0-0.234-0.05-0.315-0.147L8.555,7.3
		C8.411,7.126,8.434,6.868,8.608,6.724C8.783,6.579,9.04,6.603,9.184,6.777l1.411,1.697l3.788-3.003
		c0.177-0.142,0.434-0.111,0.574,0.066c0.141,0.177,0.111,0.434-0.066,0.574L10.79,9.363C10.715,9.423,10.626,9.452,10.537,9.452z"
		/>
</g>
</svg>
