<?xml version="1.0" encoding="utf-8"?>
<!-- Generator: Adobe Illustrator 17.0.0, SVG Export Plug-In . SVG Version: 6.00 Build 0)  -->
<!DOCTYPE svg PUBLIC "-//W3C//DTD SVG 1.1//EN" "http://www.w3.org/Graphics/SVG/1.1/DTD/svg11.dtd">
<svg version="1.1" id="Layer_1" xmlns="http://www.w3.org/2000/svg" xmlns:xlink="http://www.w3.org/1999/xlink" x="0px" y="0px"
	 width="23px" height="18px" viewBox="0 0 23 18" enable-background="new 0 0 23 18" xml:space="preserve">
<g id="XMLID_20742_" opacity="0.75">
	<path id="XMLID_495_" fill="#6DD8A0" d="M18.739,18H4.261c-0.317,0-0.565-0.278-0.565-0.634V0.634C3.696,0.278,3.944,0,4.261,0
		h14.478c0.317,0,0.565,0.278,0.565,0.634v16.733C19.304,17.722,19.056,18,18.739,18z M4.514,17.182h13.973V0.818H4.514V17.182z"/>
	<g id="XMLID_20743_">
		<path id="XMLID_491_" fill="#6DD8A0" d="M16.596,6.964H6.403c-0.226,0-0.409-0.183-0.409-0.409V3.038
			c0-0.226,0.183-0.409,0.409-0.409h10.193c0.226,0,0.409,0.183,0.409,0.409v3.517C17.005,6.781,16.822,6.964,16.596,6.964z
			 M6.812,6.146h9.375V3.447H6.812V6.146z"/>
		<g id="XMLID_20744_">
			<g id="XMLID_20751_">
				<rect id="XMLID_20753_" x="6.403" y="8.81" fill="#6DD8A0" width="2.38" height="2.201"/>
				<rect id="XMLID_20752_" x="6.403" y="12.761" fill="#6DD8A0" width="2.38" height="2.201"/>
			</g>
			<g id="XMLID_20748_">
				<rect id="XMLID_20750_" x="10.292" y="8.81" fill="#6DD8A0" width="2.38" height="2.201"/>
				<rect id="XMLID_20749_" x="10.292" y="12.761" fill="#6DD8A0" width="2.38" height="2.201"/>
			</g>
			<g id="XMLID_20745_">
				<rect id="XMLID_20747_" x="14.181" y="8.81" fill="#6DD8A0" width="2.38" height="2.201"/>
				<rect id="XMLID_20746_" x="14.181" y="12.761" fill="#6DD8A0" width="2.38" height="2.201"/>
			</g>
		</g>
	</g>
</g>
</svg>
