<?xml version="1.0" encoding="utf-8"?>
<!-- Generator: Adobe Illustrator 17.0.0, SVG Export Plug-In . SVG Version: 6.00 Build 0)  -->
<!DOCTYPE svg PUBLIC "-//W3C//DTD SVG 1.1//EN" "http://www.w3.org/Graphics/SVG/1.1/DTD/svg11.dtd">
<svg version="1.1" id="Layer_1" xmlns="http://www.w3.org/2000/svg" xmlns:xlink="http://www.w3.org/1999/xlink" x="0px" y="0px"
	 width="23px" height="18px" viewBox="0 0 23 18" enable-background="new 0 0 23 18" xml:space="preserve">
<g id="XMLID_20725_" opacity="0.75">
	<path id="XMLID_481_" fill="#6DD8A0" d="M14.757,13.753H7.731c-0.23,0-0.417-0.186-0.417-0.417c0-0.23,0.186-0.417,0.417-0.417
		h7.026c0.23,0,0.417,0.186,0.417,0.417C15.174,13.567,14.987,13.753,14.757,13.753z"/>
	<path id="XMLID_480_" fill="#6DD8A0" d="M19.944,13.753h-0.888c-0.23,0-0.417-0.186-0.417-0.417c0-0.23,0.186-0.417,0.417-0.417
		h0.888c0.038,0,0.072-0.032,0.072-0.068l0.642-3.725c-0.242-0.72-2.309-5.042-2.83-5.824H2.405c-0.038,0-0.072,0.032-0.072,0.068
		v9.48c0,0.036,0.034,0.068,0.072,0.068h1.097c0.23,0,0.417,0.186,0.417,0.417c0,0.23-0.186,0.417-0.417,0.417H2.405
		c-0.499,0-0.905-0.404-0.905-0.901v-9.48c0-0.497,0.406-0.902,0.905-0.902h15.602c0.753,0,3.492,6.573,3.492,6.64l-0.657,3.813
		C20.849,13.349,20.443,13.753,19.944,13.753z"/>
	<path id="XMLID_20730_" fill="#6DD8A0" d="M7.829,7.414h-2.63c-0.171,0-0.312-0.14-0.312-0.312V4.663
		c0-0.171,0.14-0.312,0.312-0.312h2.63c0.171,0,0.312,0.14,0.312,0.312v2.439C8.141,7.274,8,7.414,7.829,7.414z"/>
	<path id="XMLID_20729_" fill="#6DD8A0" d="M12.764,7.414h-2.365c-0.245,0-0.444-0.199-0.444-0.444V4.796
		c0-0.245,0.199-0.444,0.444-0.444h2.365c0.245,0,0.444,0.199,0.444,0.444V6.97C13.208,7.215,13.009,7.414,12.764,7.414z"/>
	<path id="XMLID_20728_" fill="#6DD8A0" d="M20.022,7.414h-4.635c-0.204,0-0.37-0.166-0.37-0.37V4.722c0-0.204,0.166-0.37,0.37-0.37
		h3.087"/>
	<path id="XMLID_476_" fill="#6DD8A0" d="M5.686,15.53c-1.357,0-2.461-1.097-2.461-2.447c0-1.349,1.104-2.446,2.461-2.446
		c1.357,0,2.462,1.097,2.462,2.446C8.148,14.432,7.044,15.53,5.686,15.53z M5.686,11.47c-0.898,0-1.628,0.723-1.628,1.613
		c0,0.889,0.73,1.613,1.628,1.613c0.898,0,1.628-0.724,1.628-1.613C7.315,12.193,6.584,11.47,5.686,11.47z"/>
	<path id="XMLID_470_" fill="#6DD8A0" d="M16.837,15.53c-1.357,0-2.461-1.097-2.461-2.447c0-1.349,1.104-2.446,2.461-2.446
		c1.357,0,2.461,1.097,2.461,2.446C19.298,14.432,18.194,15.53,16.837,15.53z M16.837,11.47c-0.898,0-1.628,0.723-1.628,1.613
		c0,0.889,0.73,1.613,1.628,1.613c0.898,0,1.628-0.724,1.628-1.613C18.465,12.193,17.734,11.47,16.837,11.47z"/>
</g>
</svg>
