<?xml version="1.0" encoding="utf-8"?>
<!-- Generator: Adobe Illustrator 17.0.0, SVG Export Plug-In . SVG Version: 6.00 Build 0)  -->
<!DOCTYPE svg PUBLIC "-//W3C//DTD SVG 1.1//EN" "http://www.w3.org/Graphics/SVG/1.1/DTD/svg11.dtd">
<svg version="1.1" id="Layer_1" xmlns="http://www.w3.org/2000/svg" xmlns:xlink="http://www.w3.org/1999/xlink" x="0px" y="0px"
	 width="23px" height="18px" viewBox="0 0 23 18" enable-background="new 0 0 23 18" xml:space="preserve">
<g id="XMLID_20733_" opacity="0.75">
	<path id="XMLID_490_" fill="#6DD8A0" d="M9.667,17.919c-0.226,0-0.449-0.24-0.449-0.466v-4.285c0-0.226,0.223-0.467,0.449-0.467
		h3.665c0.226,0,0.449,0.241,0.449,0.467v4.292c0,0.226-0.183,0.409-0.409,0.409s-0.409-0.183-0.409-0.409v-3.941h-2.926v3.814
		c0.025,0.053,0.04,0.113,0.04,0.176C10.076,17.736,9.893,17.919,9.667,17.919z"/>
	<path id="XMLID_489_" fill="#6DD8A0" d="M18.114,4.265c-0.064,0-0.128-0.015-0.189-0.046L11.5,0.87L5.075,4.219
		C4.874,4.324,4.627,4.245,4.523,4.045c-0.104-0.2-0.027-0.447,0.174-0.552l6.614-3.447c0.118-0.062,0.26-0.062,0.378,0l6.614,3.447
		c0.201,0.104,0.278,0.352,0.174,0.552C18.404,4.185,18.261,4.265,18.114,4.265z"/>
	<path id="XMLID_482_" fill="#6DD8A0" d="M17.349,18H5.651c-0.3,0-0.535-0.26-0.535-0.592V3.733c0-0.332,0.235-0.592,0.535-0.592
		h11.699c0.3,0,0.535,0.26,0.535,0.592v13.675C17.885,17.74,17.649,18,17.349,18z M5.933,17.182h11.133V3.959H5.933V17.182z"/>
	<g id="XMLID_20734_">
		<rect id="XMLID_20738_" x="7.96" y="5.8" fill="#6DD8A0" width="2.401" height="1.823"/>
		<rect id="XMLID_20737_" x="12.639" y="5.8" fill="#6DD8A0" width="2.401" height="1.823"/>
		<rect id="XMLID_20736_" x="7.96" y="9.457" fill="#6DD8A0" width="2.401" height="1.823"/>
		<rect id="XMLID_20735_" x="12.639" y="9.457" fill="#6DD8A0" width="2.401" height="1.823"/>
	</g>
</g>
</svg>
