<?xml version="1.0" encoding="utf-8"?>
<!-- Generator: Adobe Illustrator 17.0.0, SVG Export Plug-In . SVG Version: 6.00 Build 0)  -->
<!DOCTYPE svg PUBLIC "-//W3C//DTD SVG 1.1//EN" "http://www.w3.org/Graphics/SVG/1.1/DTD/svg11.dtd">
<svg version="1.1" id="Layer_1" xmlns="http://www.w3.org/2000/svg" xmlns:xlink="http://www.w3.org/1999/xlink" x="0px" y="0px"
	 width="23px" height="18px" viewBox="0 0 23 18" enable-background="new 0 0 23 18" xml:space="preserve">
<g opacity="0.6">
	<path fill="#FFFFFF" d="M11.564,17.895L9.86,17.89c-0.535-0.002-0.896-0.329-0.966-0.876c-0.077-0.598-0.163-1.196-0.276-1.789
		c-0.004-0.004-0.04-0.047-0.068-0.066c-0.276-0.187-0.592-0.368-0.937-0.539c-0.41,0.104-0.77,0.25-1.13,0.396
		c-0.236,0.095-0.471,0.189-0.708,0.281c-0.812,0.315-1.178-0.267-1.291-0.464l-1.502-2.629c-0.331-0.582-0.258-0.958,0.268-1.388
		l0.53-0.431c0.299-0.242,0.599-0.483,0.893-0.731c-0.007-0.112-0.007-0.3-0.007-0.489c0-0.24,0-0.479,0.015-0.718
		C4.171,8.052,3.678,7.674,3.19,7.292c-0.485-0.377-0.575-0.84-0.27-1.374l0.088-0.155c0.471-0.825,0.941-1.65,1.415-2.474
		C4.531,3.1,4.982,2.453,5.84,2.806l0.578,0.242c0.358,0.151,0.716,0.303,1.08,0.439c0.372-0.196,0.704-0.4,1.028-0.609
		c0.037-0.224,0.07-0.449,0.103-0.674C8.685,1.822,8.741,1.439,8.815,1.06c0.043-0.227,0.159-0.408,0.251-0.554
		c0.03-0.045,0.059-0.09,0.084-0.137l0.142-0.263h4.288l0.142,0.264c0.116,0.183,0.209,0.327,0.239,0.518
		c0.053,0.323,0.098,0.647,0.143,0.971c0.051,0.358,0.101,0.717,0.16,1.075c0.335,0.167,0.661,0.36,0.997,0.528
		c0.434-0.114,0.814-0.269,1.196-0.423l0.548-0.22c0.208-0.082,0.384-0.136,0.565-0.136c0.494,0,0.726,0.405,0.851,0.623l1.42,2.484
		c0.392,0.686,0.331,1.026-0.271,1.517l-0.449,0.364c-0.31,0.25-0.619,0.499-0.923,0.754c0.008,0.122,0.008,0.32,0.008,0.517
		c-0.001,0.229-0.001,0.458-0.014,0.686c0.382,0.265,0.782,0.546,1.183,0.827l0.371,0.26c0.557,0.389,0.652,0.805,0.317,1.393
		c-0.514,0.906-1.03,1.812-1.55,2.716c-0.128,0.22-0.426,0.801-1.32,0.448l-0.507-0.203c-0.406-0.164-0.813-0.328-1.224-0.479
		c-0.354,0.187-0.681,0.376-0.985,0.577c-0.16,0.636-0.248,1.244-0.337,1.852c-0.077,0.538-0.452,0.868-0.98,0.872
		C12.628,17.893,12.096,17.895,11.564,17.895z M7.534,13.601c0.176,0,0.367,0.045,0.524,0.123c0.384,0.19,0.739,0.395,1.052,0.606
		c0.189,0.128,0.43,0.39,0.491,0.707c0.117,0.612,0.206,1.23,0.286,1.85l1.678,0.008c0.529,0,1.058-0.002,1.587-0.006
		c0.089-0.638,0.18-1.261,0.298-1.878c0.059-0.307,0.283-0.552,0.475-0.679c0.338-0.224,0.699-0.433,1.074-0.622
		c0.241-0.12,0.565-0.149,0.806-0.062c0.423,0.154,0.84,0.322,1.257,0.49l0.5,0.201c0.024,0.01,0.044,0.018,0.062,0.023
		c0.007-0.012,0.015-0.025,0.023-0.04c0.519-0.902,1.034-1.806,1.548-2.711c0.01-0.018,0.018-0.033,0.025-0.047
		c-0.014-0.01-0.028-0.021-0.046-0.032L18.8,11.27c-0.393-0.276-0.785-0.553-1.186-0.817c-0.402-0.269-0.433-0.631-0.42-0.88
		c0.011-0.212,0.011-0.424,0.012-0.635c0-0.212,0.001-0.425,0.011-0.636c0.014-0.278,0.184-0.515,0.338-0.645
		c0.309-0.26,0.623-0.514,0.938-0.768l0.445-0.36c0.05-0.042,0.088-0.073,0.115-0.097c-0.019-0.036-0.045-0.083-0.082-0.148
		l-1.397-2.446c-0.035-0.062-0.062-0.105-0.081-0.136c-0.029,0.01-0.069,0.024-0.121,0.045l-0.54,0.216
		c-0.395,0.159-0.788,0.318-1.188,0.461c-0.246,0.088-0.577,0.055-0.83-0.071c-0.368-0.184-0.724-0.393-1.07-0.614
		c-0.095-0.06-0.405-0.283-0.467-0.642c-0.061-0.368-0.112-0.735-0.164-1.103c-0.041-0.297-0.083-0.594-0.13-0.891H9.872
		C9.836,1.162,9.803,1.221,9.797,1.25c-0.071,0.365-0.124,0.732-0.178,1.1C9.582,2.596,9.546,2.843,9.505,3.088
		c-0.03,0.181-0.146,0.444-0.374,0.59C8.762,3.917,8.385,4.15,7.994,4.355C7.843,4.434,7.653,4.479,7.473,4.479l0,0
		c-0.117,0-0.227-0.019-0.325-0.056C6.77,4.282,6.399,4.125,6.028,3.969L5.461,3.731C5.403,3.708,5.367,3.698,5.346,3.693
		C5.342,3.706,5.32,3.736,5.289,3.788C4.816,4.611,4.346,5.435,3.876,6.259L3.788,6.414C3.775,6.436,3.766,6.455,3.759,6.469
		C3.77,6.477,3.785,6.49,3.805,6.505C4.284,6.88,4.767,7.251,5.259,7.609c0.307,0.224,0.443,0.519,0.419,0.903
		C5.663,8.729,5.664,8.947,5.664,9.165c0,0.205,0,0.409-0.009,0.613c-0.014,0.276-0.186,0.514-0.341,0.644
		c-0.298,0.251-0.602,0.497-0.907,0.743L3.882,11.59c-0.027,0.022-0.049,0.041-0.066,0.057c0.009,0.018,0.021,0.039,0.035,0.063
		l1.5,2.625c0.01,0.018,0.019,0.031,0.026,0.043c0.011-0.004,0.022-0.008,0.036-0.013c0.232-0.091,0.463-0.184,0.695-0.277
		c0.371-0.15,0.743-0.3,1.119-0.437C7.323,13.617,7.425,13.601,7.534,13.601z"/>
	<path fill="#FFFFFF" d="M8.48,9.031C8.476,10.63,9.846,12,11.444,11.994c1.586-0.005,2.943-1.363,2.947-2.949
		c0.004-1.598-1.366-2.968-2.965-2.963C9.84,6.088,8.483,7.445,8.48,9.031z"/>
</g>
</svg>
