<?xml version="1.0" encoding="utf-8"?>
<!-- Generator: Adobe Illustrator 17.0.0, SVG Export Plug-In . SVG Version: 6.00 Build 0)  -->
<!DOCTYPE svg PUBLIC "-//W3C//DTD SVG 1.1//EN" "http://www.w3.org/Graphics/SVG/1.1/DTD/svg11.dtd">
<svg version="1.1" id="Layer_1" xmlns="http://www.w3.org/2000/svg" xmlns:xlink="http://www.w3.org/1999/xlink" x="0px" y="0px"
	 width="29.292px" height="37.014px" viewBox="0 0 29.292 37.014" enable-background="new 0 0 29.292 37.014" xml:space="preserve">
<path fill="#E0E0E0" d="M28.885,5.543l-7.268-5.349c-0.215-0.158-0.482-0.224-0.745-0.183c-0.263,0.041-0.498,0.184-0.655,0.398
	L0.193,27.804c-0.138,0.188-0.206,0.419-0.191,0.651l0.471,7.62c0.019,0.311,0.182,0.594,0.439,0.768
	c0.167,0.112,0.362,0.171,0.559,0.171c0.106,0,0.214-0.017,0.317-0.052l6.796-2.272c0.197-0.065,0.368-0.19,0.49-0.358L29.1,6.939
	C29.425,6.494,29.328,5.869,28.885,5.543z M7.648,32.894l-5.259,1.759l-0.369-5.96L16.774,8.509l5.71,4.09L7.648,32.894z
	 M23.664,10.984l-5.71-4.09L21.239,2.4l5.657,4.163L23.664,10.984z"/>
</svg>
