<?xml version="1.0" encoding="utf-8"?>
<!-- Generator: Adobe Illustrator 17.0.0, SVG Export Plug-In . SVG Version: 6.00 Build 0)  -->
<!DOCTYPE svg PUBLIC "-//W3C//DTD SVG 1.1//EN" "http://www.w3.org/Graphics/SVG/1.1/DTD/svg11.dtd">
<svg version="1.1" id="Layer_1" xmlns="http://www.w3.org/2000/svg" xmlns:xlink="http://www.w3.org/1999/xlink" x="0px" y="0px"
	 width="43.75px" height="42px" viewBox="0 0 43.75 42" enable-background="new 0 0 43.75 42" xml:space="preserve">
<g>
	<g id="XMLID_7147_">
		<g id="XMLID_7148_">
			<path id="XMLID_7178_" fill="#3A3A3A" d="M8.702,30.09h25.201c0.427,0,0.772,0.227,0.772,0.508s-0.345,0.508-0.772,0.508H8.702
				c-0.427,0-0.772-0.227-0.772-0.508S8.275,30.09,8.702,30.09z"/>
			<path id="XMLID_7149_" fill="#3A3A3A" d="M8.702,26.175h25.201c0.427,0,0.772,0.227,0.772,0.508s-0.345,0.508-0.772,0.508H8.702
				c-0.427,0-0.772-0.227-0.772-0.508S8.275,26.175,8.702,26.175z"/>
		</g>
	</g>
	<path id="XMLID_7145_" fill="none" stroke="#3A3A3A" stroke-linecap="round" stroke-linejoin="round" stroke-miterlimit="10" d="
		M38.37,36.767H5.379c-1.1,0-2-0.9-2-2V7.233c0-1.1,0.9-2,2-2H38.37c1.1,0,2,0.9,2,2v27.533C40.37,35.867,39.47,36.767,38.37,36.767
		z"/>
	<path id="XMLID_6585_" fill="none" stroke="#3A3A3A" stroke-linecap="round" stroke-linejoin="round" stroke-miterlimit="10" d="
		M27.189,21.835c-0.473,0-0.948,0-1.421,0c-3.215,0-6.422,0-9.663,0c0.051-0.239,0.079-0.433,0.136-0.619
		c0.263-0.861,0.929-1.314,1.688-1.659c0.492-0.224,0.998-0.417,1.495-0.631c0.657-0.283,1.078-0.723,0.97-1.511
		c-0.019-0.14,0.005-0.285-0.011-0.426c-0.01-0.092-0.048-0.183-0.087-0.269c-0.189-0.412-0.381-0.822-0.575-1.232
		c-0.034-0.072-0.073-0.153-0.133-0.2c-0.416-0.329-0.525-0.896-0.273-1.373c0.044-0.083,0.038-0.202,0.031-0.302
		c-0.048-0.65-0.163-1.302-0.141-1.949c0.029-0.859,0.439-1.551,1.269-1.851c0.9-0.325,1.846-0.313,2.819,0.219
		c0.743,0.406,1.035,0.651,1.173,1.255c0.178,0.779,0.045,1.54-0.135,2.3c-0.026,0.111-0.018,0.256,0.033,0.356
		c0.168,0.331,0.169,0.923-0.119,1.165c-0.269,0.225-0.334,0.505-0.435,0.797c-0.064,0.184-0.121,0.394-0.249,0.528
		c-0.306,0.323-0.296,0.703-0.281,1.096c0.003,0.088,0.013,0.176,0.006,0.262c-0.028,0.328,0.12,0.577,0.364,0.762
		c0.197,0.15,0.412,0.285,0.636,0.389c0.462,0.213,0.956,0.361,1.397,0.608c0.159,0.089,0.32,0.144,0.482,0.185
		c0.61,0.326,1.125,0.756,1.347,1.482c0.057,0.185,0.084,0.38,0.136,0.619C27.492,21.835,27.341,21.835,27.189,21.835z"/>
</g>
</svg>
