<?xml version="1.0" encoding="utf-8"?>
<!-- Generator: Adobe Illustrator 17.0.0, SVG Export Plug-In . SVG Version: 6.00 Build 0)  -->
<!DOCTYPE svg PUBLIC "-//W3C//DTD SVG 1.1//EN" "http://www.w3.org/Graphics/SVG/1.1/DTD/svg11.dtd">
<svg version="1.1" id="Layer_1" xmlns="http://www.w3.org/2000/svg" xmlns:xlink="http://www.w3.org/1999/xlink" x="0px" y="0px"
	 width="43.75px" height="42px" viewBox="0 0 43.75 42" enable-background="new 0 0 43.75 42" xml:space="preserve">
<g id="XMLID_8393_">
	<path id="XMLID_8396_" fill="none" stroke="#3A3A3A" stroke-linecap="round" stroke-linejoin="round" stroke-miterlimit="10" d="
		M24.729,34.913c-1.018,0-2.041,0-3.059,0c-6.918,0-13.821,0-20.795,0c0.111-0.516,0.17-0.935,0.292-1.335
		c0.566-1.857,2-2.836,3.633-3.581c1.059-0.483,2.148-0.9,3.218-1.362c1.414-0.61,2.319-1.56,2.087-3.26
		c-0.041-0.301,0.01-0.615-0.024-0.919c-0.022-0.198-0.104-0.396-0.188-0.58c-0.406-0.889-0.819-1.775-1.238-2.658
		c-0.074-0.155-0.158-0.329-0.286-0.431c-0.895-0.711-1.131-1.934-0.587-2.964c0.094-0.179,0.082-0.435,0.066-0.652
		c-0.104-1.403-0.35-2.809-0.304-4.206c0.062-1.855,0.944-3.348,2.731-3.995c1.936-0.701,3.973-0.675,6.067,0.472
		c1.599,0.876,2.227,1.404,2.524,2.708c0.384,1.682,0.098,3.324-0.29,4.964c-0.057,0.24-0.038,0.553,0.071,0.768
		c0.362,0.715,0.364,1.993-0.256,2.513c-0.579,0.486-0.719,1.091-0.936,1.719c-0.137,0.398-0.261,0.851-0.535,1.14
		c-0.659,0.696-0.636,1.518-0.606,2.365c0.007,0.189,0.029,0.379,0.013,0.566c-0.06,0.708,0.259,1.245,0.783,1.644
		c0.425,0.323,0.886,0.616,1.368,0.839c0.993,0.459,2.058,0.779,3.007,1.313c0.343,0.193,0.689,0.31,1.038,0.398
		c1.312,0.704,2.421,1.631,2.899,3.198c0.122,0.4,0.181,0.819,0.292,1.335C25.383,34.913,25.057,34.913,24.729,34.913z"/>
	<path id="XMLID_8395_" fill="none" stroke="#3A3A3A" stroke-linecap="round" stroke-linejoin="round" stroke-miterlimit="10" d="
		M26.257,7.087c-1.178,0-2.136,0.851-2.136,1.896v15.004c0,1.045,0.958,1.896,2.136,1.896h14.481c1.179,0,2.137-0.851,2.137-1.896
		V8.983c0-1.045-0.958-1.896-2.137-1.896H26.257z"/>
	
		<polyline id="XMLID_8394_" fill="none" stroke="#3A3A3A" stroke-linecap="round" stroke-linejoin="round" stroke-miterlimit="10" points="
		28.469,17.557 31.964,21.385 38.459,13.407 	"/>
</g>
</svg>
