<?xml version="1.0" encoding="utf-8"?>
<!-- Generator: Adobe Illustrator 17.0.0, SVG Export Plug-In . SVG Version: 6.00 Build 0)  -->
<!DOCTYPE svg PUBLIC "-//W3C//DTD SVG 1.1//EN" "http://www.w3.org/Graphics/SVG/1.1/DTD/svg11.dtd">
<svg version="1.1" id="Layer_1" xmlns="http://www.w3.org/2000/svg" xmlns:xlink="http://www.w3.org/1999/xlink" x="0px" y="0px"
	 width="43.75px" height="42px" viewBox="0 0 43.75 42" enable-background="new 0 0 43.75 42" xml:space="preserve">
<g id="XMLID_7182_">
	<path id="XMLID_8389_" fill="none" stroke="#3A3A3A" stroke-linecap="round" stroke-linejoin="round" stroke-miterlimit="10" d="
		M24.617,35.013c-1.013,0-2.031,0-3.044,0c-6.886,0-13.756,0-20.698,0c0.11-0.513,0.169-0.931,0.29-1.329
		c0.564-1.848,1.991-2.822,3.616-3.563c1.054-0.481,2.138-0.896,3.202-1.355c1.408-0.607,2.308-1.552,2.077-3.244
		c-0.041-0.3,0.01-0.612-0.024-0.914c-0.022-0.197-0.103-0.394-0.187-0.577c-0.404-0.885-0.815-1.766-1.232-2.645
		c-0.073-0.155-0.157-0.328-0.285-0.429c-0.891-0.707-1.126-1.924-0.584-2.95c0.094-0.178,0.081-0.433,0.065-0.649
		c-0.103-1.396-0.349-2.796-0.303-4.186c0.061-1.846,0.94-3.332,2.719-3.976c1.927-0.698,3.955-0.672,6.038,0.47
		c1.591,0.872,2.216,1.397,2.512,2.694c0.382,1.673,0.097,3.308-0.289,4.939c-0.057,0.239-0.038,0.55,0.07,0.764
		c0.36,0.712,0.362,1.983-0.255,2.501c-0.576,0.483-0.716,1.085-0.932,1.711c-0.137,0.396-0.26,0.846-0.532,1.134
		c-0.656,0.693-0.633,1.51-0.603,2.354c0.007,0.188,0.029,0.377,0.013,0.563c-0.06,0.705,0.258,1.238,0.78,1.636
		c0.423,0.322,0.882,0.613,1.362,0.835c0.989,0.457,2.048,0.775,2.993,1.307c0.341,0.192,0.686,0.308,1.033,0.396
		c1.306,0.7,2.409,1.623,2.885,3.183c0.121,0.398,0.18,0.815,0.29,1.329C25.267,35.013,24.943,35.013,24.617,35.013z"/>
	<g id="XMLID_7184_">
		<g id="XMLID_8357_">
			
				<line id="XMLID_8380_" fill="none" stroke="#3A3A3A" stroke-linecap="round" stroke-linejoin="round" stroke-miterlimit="10" x1="33.015" y1="11.75" x2="33.015" y2="21.997"/>
			
				<line id="XMLID_8377_" fill="none" stroke="#3A3A3A" stroke-linecap="round" stroke-linejoin="round" stroke-miterlimit="10" x1="38.125" y1="16.874" x2="27.904" y2="16.874"/>
		</g>
		
			<ellipse id="XMLID_8013_" fill="none" stroke="#3A3A3A" stroke-linecap="round" stroke-linejoin="round" stroke-miterlimit="10" cx="33.015" cy="16.874" rx="9.86" ry="9.887"/>
	</g>
</g>
</svg>
