<?xml version="1.0" encoding="utf-8"?>
<!-- Generator: Adobe Illustrator 17.0.0, SVG Export Plug-In . SVG Version: 6.00 Build 0)  -->
<!DOCTYPE svg PUBLIC "-//W3C//DTD SVG 1.1//EN" "http://www.w3.org/Graphics/SVG/1.1/DTD/svg11.dtd">
<svg version="1.1" id="Layer_1" xmlns="http://www.w3.org/2000/svg" xmlns:xlink="http://www.w3.org/1999/xlink" x="0px" y="0px"
	 width="43.75px" height="42px" viewBox="0 0 43.75 42" enable-background="new 0 0 43.75 42" xml:space="preserve">
<g>
	<path id="XMLID_8885_" fill="#3A3A3A" d="M19.539,19.361h-8.348c-1.214,0-2.201-0.988-2.201-2.202v-9.75
		c0-1.214,0.988-2.202,2.201-2.202h8.348c1.214,0,2.202,0.988,2.202,2.202v9.75C21.741,18.373,20.753,19.361,19.539,19.361z
		 M11.191,6.177c-0.679,0-1.232,0.553-1.232,1.232v9.75c0,0.679,0.553,1.232,1.232,1.232h8.348c0.679,0,1.232-0.553,1.232-1.232
		v-9.75c0-0.679-0.553-1.232-1.232-1.232H11.191z"/>
	<g id="XMLID_8881_">
		<path id="XMLID_8882_" fill="#3A3A3A" d="M18.771,16.379h-6.813c-0.146,0-0.285-0.066-0.377-0.18
			c-0.092-0.115-0.128-0.263-0.097-0.407l0.025-0.121c0.019-0.103,0.038-0.194,0.066-0.284c0.222-0.726,0.79-1.064,1.259-1.278
			c0.18-0.082,0.365-0.158,0.549-0.233l0.343-0.143c0.317-0.136,0.301-0.255,0.284-0.38C14,13.284,14,13.214,14.001,13.144
			l-0.343-0.777c-0.365-0.328-0.472-0.84-0.272-1.293c-0.01-0.135-0.022-0.246-0.034-0.356c-0.03-0.28-0.059-0.562-0.049-0.84
			c0.024-0.737,0.413-1.296,1.069-1.532c0.706-0.256,1.4-0.203,2.061,0.16c0.447,0.244,0.799,0.476,0.933,1.057
			c0.128,0.561,0.036,1.079-0.069,1.526c0.156,0.377,0.12,0.921-0.223,1.208c-0.029,0.025-0.045,0.062-0.086,0.188
			c0,0.001-0.038,0.112-0.038,0.113c-0.043,0.126-0.101,0.298-0.239,0.443c-0.034,0.036-0.04,0.094-0.033,0.295
			c0.006,0.096,0.007,0.157,0.001,0.218c0.125,0.093,0.22,0.152,0.31,0.192c0.101,0.047,0.204,0.087,0.306,0.128
			c0.189,0.075,0.378,0.151,0.554,0.249c0.045,0.026,0.096,0.045,0.164,0.062c0.039,0.009,0.077,0.024,0.112,0.043
			c0.346,0.186,0.83,0.507,1.03,1.16c0.027,0.091,0.046,0.182,0.066,0.283l0.025,0.122c0.031,0.144-0.005,0.293-0.097,0.407
			C19.056,16.313,18.918,16.379,18.771,16.379z M12.635,15.409h5.457c-0.087-0.11-0.209-0.206-0.377-0.301
			c-0.127-0.036-0.237-0.081-0.342-0.14c-0.137-0.077-0.286-0.134-0.435-0.193c-0.119-0.046-0.239-0.095-0.355-0.148
			c-0.152-0.069-0.308-0.165-0.465-0.283c-0.291-0.22-0.435-0.531-0.405-0.878c-0.015-0.357-0.029-0.753,0.295-1.094
			c0.001-0.009,0.01-0.049,0.023-0.085l0.497,0.045l-0.461-0.152c0.059-0.178,0.139-0.421,0.384-0.627
			c-0.032,0.016-0.035-0.063-0.051-0.096c-0.08-0.157-0.102-0.36-0.059-0.541c0.107-0.45,0.158-0.796,0.08-1.137
			c-0.034-0.146-0.046-0.201-0.453-0.423c-0.412-0.225-0.827-0.258-1.267-0.098c-0.102,0.036-0.412,0.149-0.429,0.652
			c-0.008,0.234,0.019,0.469,0.045,0.704c0.014,0.132,0.028,0.263,0.038,0.394c0.006,0.088,0.019,0.267-0.073,0.441
			c-0.04,0.076-0.027,0.155,0.033,0.203c0.124,0.098,0.183,0.223,0.215,0.289l0.342,0.733c0.041,0.09,0.08,0.188,0.093,0.308
			c0.007,0.062,0.007,0.123,0.005,0.185c0.049,0.419,0.004,1.085-0.862,1.456l-0.358,0.15c-0.172,0.071-0.345,0.141-0.514,0.219
			C12.943,15.124,12.755,15.253,12.635,15.409z"/>
	</g>
	<g id="XMLID_8401_">
		<g id="XMLID_8616_">
			<path id="XMLID_8880_" fill="#3A3A3A" d="M26.54,25.084H9.981c-0.281,0-0.508-0.227-0.508-0.508s0.227-0.508,0.508-0.508H26.54
				c0.281,0,0.508,0.227,0.508,0.508S26.821,25.084,26.54,25.084z"/>
			<path id="XMLID_8877_" fill="#3A3A3A" d="M26.54,28.998H9.981c-0.281,0-0.508-0.227-0.508-0.508s0.227-0.508,0.508-0.508H26.54
				c0.281,0,0.508,0.227,0.508,0.508S26.821,28.998,26.54,28.998z"/>
			<path id="XMLID_8876_" fill="#3A3A3A" d="M26.54,32.913H9.981c-0.281,0-0.508-0.227-0.508-0.508s0.227-0.508,0.508-0.508H26.54
				c0.281,0,0.508,0.227,0.508,0.508S26.821,32.913,26.54,32.913z"/>
		</g>
	</g>
	<path fill="#3A3A3A" d="M37.595,11.993h-9.599c-0.276,0-0.5-0.224-0.5-0.5V3.077c0-0.276,0.224-0.5,0.5-0.5s0.5,0.224,0.5,0.5
		v7.916h9.099c0.276,0,0.5,0.224,0.5,0.5S37.872,11.993,37.595,11.993z"/>
	<path fill="#3A3A3A" d="M35.705,39.918H8.045c-1.378,0-2.5-1.122-2.5-2.5V4.582c0-1.378,1.122-2.5,2.5-2.5h20.042
		c0.126,0,0.248,0.048,0.341,0.134l9.617,8.951c0.102,0.095,0.159,0.228,0.159,0.366v25.886
		C38.205,38.797,37.084,39.918,35.705,39.918z M8.045,3.082c-0.827,0-1.5,0.673-1.5,1.5v32.837c0,0.827,0.673,1.5,1.5,1.5h27.66
		c0.827,0,1.5-0.673,1.5-1.5V11.75l-9.313-8.668H8.045z"/>
</g>
</svg>
