<?xml version="1.0" encoding="utf-8"?>
<!-- Generator: Adobe Illustrator 17.0.0, SVG Export Plug-In . SVG Version: 6.00 Build 0)  -->
<!DOCTYPE svg PUBLIC "-//W3C//DTD SVG 1.1//EN" "http://www.w3.org/Graphics/SVG/1.1/DTD/svg11.dtd">
<svg version="1.1" id="Layer_1" xmlns="http://www.w3.org/2000/svg" xmlns:xlink="http://www.w3.org/1999/xlink" x="0px" y="0px"
	 width="50.292px" height="42px" viewBox="-10.667 0 50.292 42" enable-background="new -10.667 0 50.292 42" xml:space="preserve">
<g id="XMLID_9062_">
	<g id="XMLID_9729_">
		<path fill="#3A3A3A" d="M1.68,22.431c-0.129,0-0.27-0.02-0.441-0.063c-0.505-0.125-0.991-0.304-1.461-0.478l-0.283-0.104
			c-0.527-0.191-0.817-0.758-0.674-1.318c0.117-0.459,0.24-0.916,0.362-1.373c0.02-0.073,0.007-0.085-0.023-0.11
			c-0.406-0.348-0.82-0.689-1.236-1.027l-0.115,0.018l-0.435,0.208c-0.265,0.128-0.53,0.256-0.798,0.376
			c-0.175,0.077-0.378,0.119-0.573,0.119c-0.396-0.014-0.695-0.206-0.894-0.543l-0.094-0.159c-0.282-0.477-0.563-0.953-0.836-1.434
			c-0.286-0.504-0.128-1.107,0.382-1.469l0.22-0.155c0.273-0.193,0.547-0.387,0.825-0.573c0.134-0.091,0.133-0.133,0.111-0.24
			C-4.347,13.8-4.4,13.492-4.453,13.183l-0.092-0.523c-0.012-0.063-0.022-0.086-0.108-0.108l-0.208-0.056
			c-0.33-0.088-0.661-0.176-0.994-0.252c-1.052-0.236-0.964-1.021-0.926-1.356c0.046-0.412,0.109-0.822,0.172-1.232l0.071-0.473
			C-6.457,8.633-5.964,8.22-5.391,8.22c0.02,0,0.118,0.006,0.138,0.009c0.463,0.057,0.928,0.1,1.394,0.129
			C-3.567,7.876-3.287,7.396-3.02,6.91c0.004-0.007,0.001-0.048-0.071-0.148l-0.112-0.155c-0.228-0.314-0.456-0.63-0.672-0.952
			C-4.005,5.458-4.05,5.24-4.074,5.093c-0.052-0.33,0.075-0.652,0.348-0.886l0.11-0.095c0.447-0.383,0.894-0.767,1.351-1.139
			C-1.827,2.617-1.229,2.655-0.8,3.072c0.309,0.301,0.612,0.606,0.916,0.913c0.113,0.114,0.152,0.114,0.166,0.114
			C0.81,3.913,1.246,3.748,1.686,3.594C1.806,3.553,1.859,3.515,1.87,3.326c0.022-0.391,0.053-0.78,0.084-1.169l0.011-0.145
			C2.01,1.469,2.396,1.095,2.929,1.081c0.617-0.016,1.233-0.025,1.849-0.025h0.158c0.591,0.002,1.006,0.403,1.057,1.023
			c0.037,0.462,0.08,0.924,0.124,1.386c0.542,0.237,1.069,0.422,1.597,0.603c0.003-0.006,0.035-0.026,0.09-0.081l0.921-0.928
			c0.493-0.493,1.06-0.526,1.602-0.078l1.214,1.001c0.006,0.006,0.083,0.074,0.089,0.08c0.498,0.446,0.569,1.021,0.19,1.571
			l-0.126,0.185c-0.196,0.287-0.392,0.574-0.6,0.853c-0.087,0.115-0.088,0.157-0.012,0.28c0.238,0.381,0.459,0.771,0.68,1.161
			c0.051,0.09,0.092,0.138,0.118,0.162l0.467-0.049c0.315-0.031,0.585-0.058,0.855-0.093c0.781-0.089,1.273,0.313,1.368,1.01
			c0.031,0.229,0.069,0.457,0.106,0.685c0.06,0.36,0.119,0.72,0.155,1.082c0.064,0.638-0.195,1.018-0.817,1.194l-0.224,0.065
			c-0.307,0.089-0.614,0.177-0.926,0.238c-0.203,0.04-0.27,0.093-0.298,0.347c-0.034,0.308-0.089,0.613-0.144,0.918l-0.07,0.396
			c-0.012,0.071-0.008,0.087,0.061,0.135c0.367,0.249,0.733,0.499,1.096,0.754c0.589,0.413,0.713,0.962,0.36,1.589
			c-0.273,0.485-0.549,0.97-0.828,1.451c-0.29,0.501-0.675,0.606-0.948,0.606c-0.168,0-0.345-0.04-0.527-0.121
			c-0.399-0.176-0.794-0.36-1.189-0.547c-0.072-0.033-0.115-0.046-0.146-0.046c-0.012,0-0.048,0-0.121,0.064
			c-0.361,0.322-0.732,0.631-1.104,0.94c-0.058,0.049-0.073,0.066-0.046,0.167l0.088,0.323c0.08,0.294,0.16,0.588,0.245,0.88
			c0.211,0.723-0.072,1.283-0.776,1.538L7.221,22.28c-0.346,0.125-0.624,0.16-0.934,0.099c-0.402-0.076-0.599-0.324-0.692-0.52
			l-0.562-1.185c-0.043-0.093-0.059-0.132-0.081-0.166L4.7,20.488c-0.467,0.03-0.925,0.012-1.371-0.014c-0.085,0-0.112,0-0.16,0.11
			c-0.072,0.162-0.146,0.324-0.221,0.485c-0.09,0.195-0.18,0.39-0.264,0.587C2.594,21.868,2.355,22.431,1.68,22.431z M-2.096,16.947
			c0.236,0,0.462,0.082,0.652,0.236c0.421,0.344,0.841,0.689,1.254,1.043c0.333,0.285,0.456,0.697,0.339,1.13
			c-0.122,0.453-0.243,0.906-0.359,1.361c-0.004,0.018-0.023,0.105,0.046,0.131l0.288,0.105c0.465,0.171,0.904,0.333,1.356,0.444
			c0.111,0.027,0.17,0.033,0.201,0.033h0.006c0-0.012,0.032-0.059,0.078-0.166c0.088-0.207,0.182-0.411,0.276-0.614l0.213-0.469
			c0.201-0.457,0.573-0.709,1.049-0.709c0.379,0.019,0.643,0.051,0.974,0.031c0.129,0,0.246-0.008,0.363-0.015l0.253-0.014
			c0.001,0,0.002,0,0.003,0c0.393,0,0.699,0.176,0.901,0.495c0.045,0.071,0.084,0.15,0.12,0.229l0.58,1.225
			c0.163-0.021,0.261-0.041,0.387-0.086l1.296-0.479c0.205-0.074,0.22-0.104,0.157-0.317c-0.087-0.299-0.169-0.6-0.25-0.899
			l-0.087-0.321c-0.127-0.467,0.004-0.893,0.37-1.198c0.364-0.303,0.726-0.604,1.079-0.919c0.387-0.343,0.857-0.41,1.333-0.188
			c0.412,0.193,0.799,0.376,1.191,0.548c0.076,0.034,0.113,0.036,0.123,0.036l0,0c0,0,0.033-0.021,0.083-0.106
			c0.277-0.479,0.551-0.96,0.823-1.441c0.061-0.109,0.067-0.158,0.067-0.167l0,0c-0.002,0-0.029-0.042-0.131-0.113
			c-0.359-0.251-0.722-0.499-1.084-0.746c-0.389-0.264-0.561-0.664-0.485-1.125l0.072-0.41c0.051-0.281,0.103-0.563,0.134-0.849
			c0.093-0.848,0.649-1.131,1.099-1.219c0.283-0.056,0.562-0.137,0.841-0.218l0.229-0.066c0.051-0.015,0.084-0.026,0.104-0.036
			c-0.004-0.015-0.004-0.048-0.009-0.097c-0.034-0.341-0.09-0.68-0.146-1.019c-0.039-0.237-0.078-0.474-0.111-0.712
			c-0.021-0.151-0.059-0.159-0.168-0.159c-0.36,0.041-0.639,0.069-0.965,0.102l-0.52,0.053c-0.435-0.011-0.789-0.236-1.019-0.642
			c-0.229-0.404-0.443-0.782-0.672-1.15c-0.297-0.474-0.277-0.961,0.058-1.41c0.199-0.267,0.387-0.542,0.575-0.816l0.127-0.187
			c0.066-0.097,0.066-0.138,0.066-0.139c0,0-0.01-0.043-0.104-0.127L9.691,3.752C9.604,3.681,9.56,3.667,9.553,3.666
			c0,0.003-0.042,0.02-0.122,0.1L8.51,4.694C8.392,4.81,7.918,5.192,7.397,5.015C6.856,4.831,6.318,4.642,5.785,4.442
			C5.409,4.303,5.16,3.973,5.12,3.558C5.076,3.092,5.033,2.626,4.995,2.16C4.99,2.091,4.975,2.058,4.97,2.05L4.777,2.055
			c-0.607,0-1.215,0.01-1.822,0.025L2.951,2.237C2.92,2.618,2.89,3,2.868,3.381c-0.04,0.724-0.485,1.029-0.853,1.157
			C1.584,4.689,1.157,4.85,0.73,5.013C0.579,5.07,0.428,5.099,0.282,5.099c-0.214,0-0.534-0.064-0.837-0.371
			c-0.339-0.342-0.638-0.644-0.942-0.939c-0.054-0.052-0.089-0.063-0.096-0.063c-0.49,0.392-0.931,0.77-1.372,1.147l-0.111,0.095
			C-3.067,5.06-3.046,5.096-3.043,5.1c0.208,0.31,0.429,0.614,0.65,0.92l0.112,0.155c0.377,0.523,0.283,0.949,0.138,1.215
			c-0.271,0.496-0.556,0.984-0.843,1.472c-0.182,0.311-0.506,0.496-0.867,0.496c-0.554-0.033-1.038-0.078-1.52-0.137
			C-5.435,9.244-5.54,9.274-5.548,9.328l-0.072,0.479c-0.061,0.396-0.122,0.794-0.166,1.192c-0.016,0.14-0.013,0.201-0.009,0.226
			c0.004,0.001,0.059,0.021,0.162,0.045c0.346,0.078,0.688,0.169,1.031,0.261l0.206,0.055c0.449,0.118,0.753,0.444,0.836,0.896
			l0.094,0.535c0.051,0.297,0.102,0.594,0.163,0.89c0.075,0.365,0.044,0.883-0.533,1.271c-0.272,0.183-0.539,0.371-0.805,0.56
			l-0.221,0.156c-0.058,0.04-0.121,0.102-0.089,0.157c0.27,0.477,0.548,0.947,0.827,1.419l0.095,0.16
			c0.09,0.049,0.154,0.038,0.201,0.017c0.257-0.114,0.513-0.237,0.769-0.361l0.444-0.212C-2.442,16.989-2.266,16.947-2.096,16.947z
			 M3.999,16.942C3.998,16.942,3.999,16.942,3.999,16.942c-2.903-0.035-5.195-2.383-5.178-5.233C-1.162,8.859,1.14,6.54,3.952,6.54
			c0.003,0,0.073,0,0.077,0.001c1.39,0,2.711,0.558,3.677,1.531c0.989,0.995,1.528,2.316,1.519,3.719
			C9.206,14.631,6.862,16.942,3.999,16.942z M3.952,7.54c-2.226,0-4.118,1.912-4.132,4.175c-0.013,2.303,1.836,4.199,4.122,4.228h0
			c2.372,0,4.267-1.865,4.282-4.157c0.008-1.136-0.429-2.203-1.228-3.009C6.217,7.991,5.154,7.541,4.08,7.541L3.952,7.54z"/>
	</g>
	
		<path id="XMLID_9727_" fill="#3A3A3A" stroke="#8C8C8C" stroke-linecap="round" stroke-linejoin="round" stroke-miterlimit="10" d="
		M8.734,13.475"/>
	<path fill="#3A3A3A" d="M35.258,13.355c-0.075,0-0.152-0.017-0.224-0.053L22.264,6.89l-5.756,3.043
		c-0.245,0.129-0.548,0.035-0.676-0.209c-0.129-0.244-0.036-0.547,0.208-0.676l5.984-3.163c0.143-0.075,0.314-0.076,0.458-0.005
		l13.001,6.527c0.247,0.124,0.347,0.425,0.223,0.672C35.618,13.254,35.441,13.355,35.258,13.355z"/>
	<path fill="#3A3A3A" d="M33.454,40.945H11.731c-0.81,0-1.469-0.659-1.469-1.47V21.987c0-0.276,0.224-0.5,0.5-0.5s0.5,0.224,0.5,0.5
		v17.488c0,0.259,0.21,0.47,0.469,0.47h21.723c0.259,0,0.469-0.211,0.469-0.47V13.45c0-0.259-0.21-0.469-0.469-0.469H17.278
		c-0.276,0-0.5-0.224-0.5-0.5s0.224-0.5,0.5-0.5h16.176c0.81,0,1.469,0.659,1.469,1.469v26.025
		C34.923,40.286,34.264,40.945,33.454,40.945z"/>
	<path fill="#3A3A3A" d="M19.322,21.226h-2.661c-0.827,0-1.5-0.673-1.5-1.5v-1.823c0-0.827,0.673-1.5,1.5-1.5h2.661
		c0.827,0,1.5,0.673,1.5,1.5v1.823C20.822,20.553,20.149,21.226,19.322,21.226z M16.661,17.403c-0.276,0-0.5,0.225-0.5,0.5v1.823
		c0,0.275,0.224,0.5,0.5,0.5h2.661c0.276,0,0.5-0.225,0.5-0.5v-1.823c0-0.275-0.224-0.5-0.5-0.5H16.661z"/>
	<path fill="#3A3A3A" d="M28.763,21.226h-2.661c-0.827,0-1.5-0.673-1.5-1.5v-1.823c0-0.827,0.673-1.5,1.5-1.5h2.661
		c0.827,0,1.5,0.673,1.5,1.5v1.823C30.263,20.553,29.59,21.226,28.763,21.226z M26.102,17.403c-0.276,0-0.5,0.225-0.5,0.5v1.823
		c0,0.275,0.224,0.5,0.5,0.5h2.661c0.276,0,0.5-0.225,0.5-0.5v-1.823c0-0.275-0.224-0.5-0.5-0.5H26.102z"/>
	<path fill="#3A3A3A" d="M19.322,28.635h-2.661c-0.827,0-1.5-0.673-1.5-1.5v-1.823c0-0.827,0.673-1.5,1.5-1.5h2.661
		c0.827,0,1.5,0.673,1.5,1.5v1.823C20.822,27.962,20.149,28.635,19.322,28.635z M16.661,24.812c-0.276,0-0.5,0.225-0.5,0.5v1.823
		c0,0.275,0.224,0.5,0.5,0.5h2.661c0.276,0,0.5-0.225,0.5-0.5v-1.823c0-0.275-0.224-0.5-0.5-0.5H16.661z"/>
	<path fill="#3A3A3A" d="M28.763,28.635h-2.661c-0.827,0-1.5-0.673-1.5-1.5v-1.823c0-0.827,0.673-1.5,1.5-1.5h2.661
		c0.827,0,1.5,0.673,1.5,1.5v1.823C30.263,27.962,29.59,28.635,28.763,28.635z M26.102,24.812c-0.276,0-0.5,0.225-0.5,0.5v1.823
		c0,0.275,0.224,0.5,0.5,0.5h2.661c0.276,0,0.5-0.225,0.5-0.5v-1.823c0-0.275-0.224-0.5-0.5-0.5H26.102z"/>
	<path fill="#3A3A3A" d="M26.416,40.333c-0.276,0-0.5-0.224-0.5-0.5v-7.86c0-0.259-0.21-0.47-0.469-0.47h-5.949
		c-0.259,0-0.469,0.211-0.469,0.47v7.86c0,0.276-0.224,0.5-0.5,0.5s-0.5-0.224-0.5-0.5v-7.86c0-0.811,0.659-1.47,1.469-1.47h5.949
		c0.81,0,1.469,0.659,1.469,1.47v7.86C26.916,40.11,26.693,40.333,26.416,40.333z"/>
</g>
</svg>
