<?xml version="1.0" encoding="utf-8"?>
<!-- Generator: Adobe Illustrator 17.0.0, SVG Export Plug-In . SVG Version: 6.00 Build 0)  -->
<!DOCTYPE svg PUBLIC "-//W3C//DTD SVG 1.1//EN" "http://www.w3.org/Graphics/SVG/1.1/DTD/svg11.dtd">
<svg version="1.1" id="Layer_1" xmlns="http://www.w3.org/2000/svg" xmlns:xlink="http://www.w3.org/1999/xlink" x="0px" y="0px"
	 width="50.292px" height="42px" viewBox="-10.667 0 50.292 42" enable-background="new -10.667 0 50.292 42" xml:space="preserve">
<g id="XMLID_3177_">
	<g id="XMLID_7216_">
		<path fill="#3A3A3A" d="M-9.237,13.975c-0.18,0-0.353-0.097-0.442-0.267c-0.129-0.244-0.036-0.547,0.208-0.676L4.052,5.885
			C4.195,5.812,4.365,5.808,4.509,5.88l13.88,6.913c0.247,0.123,0.348,0.423,0.225,0.67c-0.122,0.248-0.421,0.35-0.671,0.225
			L4.293,6.889l-13.297,7.028C-9.078,13.957-9.158,13.975-9.237,13.975z"/>
		<path fill="#3A3A3A" d="M15.482,40.945H-6.241c-0.81,0-1.469-0.659-1.469-1.47V13.45c0-0.81,0.659-1.469,1.469-1.469h21.723
			c0.81,0,1.469,0.659,1.469,1.469v26.025C16.951,40.286,16.292,40.945,15.482,40.945z M-6.241,12.981
			c-0.259,0-0.469,0.21-0.469,0.469v26.025c0,0.259,0.21,0.47,0.469,0.47h21.723c0.259,0,0.469-0.211,0.469-0.47V13.45
			c0-0.259-0.21-0.469-0.469-0.469H-6.241z"/>
		<path fill="#3A3A3A" d="M1.349,21.226h-2.66c-0.827,0-1.5-0.673-1.5-1.5v-1.823c0-0.827,0.673-1.5,1.5-1.5h2.66
			c0.827,0,1.5,0.673,1.5,1.5v1.823C2.849,20.553,2.176,21.226,1.349,21.226z M-1.311,17.403c-0.276,0-0.5,0.225-0.5,0.5v1.823
			c0,0.275,0.224,0.5,0.5,0.5h2.66c0.276,0,0.5-0.225,0.5-0.5v-1.823c0-0.275-0.224-0.5-0.5-0.5H-1.311z"/>
		<path fill="#3A3A3A" d="M10.79,21.226H8.13c-0.827,0-1.5-0.673-1.5-1.5v-1.823c0-0.827,0.673-1.5,1.5-1.5h2.661
			c0.827,0,1.5,0.673,1.5,1.5v1.823C12.29,20.553,11.617,21.226,10.79,21.226z M8.13,17.403c-0.276,0-0.5,0.225-0.5,0.5v1.823
			c0,0.275,0.224,0.5,0.5,0.5h2.661c0.276,0,0.5-0.225,0.5-0.5v-1.823c0-0.275-0.224-0.5-0.5-0.5H8.13z"/>
		<path fill="#3A3A3A" d="M1.349,28.635h-2.66c-0.827,0-1.5-0.673-1.5-1.5v-1.823c0-0.827,0.673-1.5,1.5-1.5h2.66
			c0.827,0,1.5,0.673,1.5,1.5v1.823C2.849,27.962,2.176,28.635,1.349,28.635z M-1.311,24.812c-0.276,0-0.5,0.225-0.5,0.5v1.823
			c0,0.275,0.224,0.5,0.5,0.5h2.66c0.276,0,0.5-0.225,0.5-0.5v-1.823c0-0.275-0.224-0.5-0.5-0.5H-1.311z"/>
		<path fill="#3A3A3A" d="M10.79,28.635H8.13c-0.827,0-1.5-0.673-1.5-1.5v-1.823c0-0.827,0.673-1.5,1.5-1.5h2.661
			c0.827,0,1.5,0.673,1.5,1.5v1.823C12.29,27.962,11.617,28.635,10.79,28.635z M8.13,24.812c-0.276,0-0.5,0.225-0.5,0.5v1.823
			c0,0.275,0.224,0.5,0.5,0.5h2.661c0.276,0,0.5-0.225,0.5-0.5v-1.823c0-0.275-0.224-0.5-0.5-0.5H8.13z"/>
		<path fill="#3A3A3A" d="M8.444,40.333c-0.276,0-0.5-0.224-0.5-0.5v-7.86c0-0.259-0.21-0.47-0.469-0.47H1.526
			c-0.259,0-0.469,0.211-0.469,0.47v7.86c0,0.276-0.224,0.5-0.5,0.5s-0.5-0.224-0.5-0.5v-7.86c0-0.811,0.659-1.47,1.469-1.47h5.949
			c0.81,0,1.469,0.659,1.469,1.47v7.86C8.944,40.11,8.72,40.333,8.444,40.333z"/>
	</g>
	<g id="XMLID_3452_">
		<g id="XMLID_6688_">
			<path fill="#3A3A3A" d="M29.307,15.551c-0.276,0-0.5-0.224-0.5-0.5V5.837c0-0.276,0.224-0.5,0.5-0.5s0.5,0.224,0.5,0.5v9.214
				C29.807,15.328,29.583,15.551,29.307,15.551z"/>
			<path fill="#3A3A3A" d="M33.914,10.944H24.7c-0.276,0-0.5-0.224-0.5-0.5s0.224-0.5,0.5-0.5h9.214c0.276,0,0.5,0.224,0.5,0.5
				S34.19,10.944,33.914,10.944z"/>
		</g>
		<path fill="#3A3A3A" d="M29.307,19.833c-5.177,0-9.39-4.212-9.39-9.39c0-5.177,4.212-9.389,9.39-9.389s9.389,4.212,9.389,9.389
			C38.696,15.622,34.484,19.833,29.307,19.833z M29.307,2.055c-4.626,0-8.39,3.763-8.39,8.389s3.764,8.39,8.39,8.39
			s8.389-3.764,8.389-8.39S33.933,2.055,29.307,2.055z"/>
	</g>
</g>
</svg>
