<?xml version="1.0" encoding="utf-8"?>
<!-- Generator: Adobe Illustrator 17.0.0, SVG Export Plug-In . SVG Version: 6.00 Build 0)  -->
<!DOCTYPE svg PUBLIC "-//W3C//DTD SVG 1.1//EN" "http://www.w3.org/Graphics/SVG/1.1/DTD/svg11.dtd">
<svg version="1.1" id="Layer_1" xmlns="http://www.w3.org/2000/svg" xmlns:xlink="http://www.w3.org/1999/xlink" x="0px" y="0px"
	 width="118.928px" height="25.791px" viewBox="0 0 118.928 25.791" enable-background="new 0 0 118.928 25.791"
	 xml:space="preserve">
<g id="XMLID_9_">
	<g opacity="0.9">
		<g>
			<path fill="#2E3C54" d="M112.841,0v0.773h-1.522v4.288h-0.941V0.773h-1.529V0H112.841z"/>
			<path fill="#2E3C54" d="M116.091,3.194c0.034,0.081,0.067,0.162,0.1,0.243c0.033-0.084,0.066-0.167,0.102-0.249
				s0.072-0.16,0.112-0.234l1.498-2.804c0.019-0.035,0.038-0.063,0.058-0.084s0.042-0.036,0.066-0.045s0.052-0.015,0.082-0.018
				C118.139,0.001,118.175,0,118.217,0h0.711v5.061h-0.829V1.792c0-0.061,0.001-0.127,0.005-0.199
				c0.004-0.073,0.009-0.146,0.016-0.221l-1.529,2.87c-0.035,0.065-0.081,0.116-0.137,0.152c-0.056,0.037-0.121,0.055-0.196,0.055
				h-0.129c-0.075,0-0.141-0.018-0.196-0.055c-0.056-0.036-0.102-0.086-0.137-0.152l-1.55-2.881
				c0.009,0.077,0.016,0.152,0.019,0.226c0.004,0.073,0.006,0.142,0.006,0.205v3.269h-0.83V0h0.711c0.042,0,0.078,0.001,0.108,0.003
				c0.03,0.002,0.058,0.008,0.082,0.018s0.048,0.024,0.068,0.045c0.021,0.021,0.041,0.049,0.06,0.084l1.512,2.811
				C116.021,3.036,116.057,3.113,116.091,3.194z"/>
		</g>
	</g>
	<g opacity="0.9">
		<path fill="#2E3C54" d="M0,25.519V7.89h3.264c0.329,0,0.604,0.074,0.824,0.221C4.31,8.258,4.465,8.479,4.556,8.774l0.289,0.952
			C5.14,9.42,5.445,9.14,5.763,8.885c0.317-0.255,0.66-0.476,1.028-0.663C7.16,8.035,7.557,7.887,7.981,7.78
			c0.425-0.108,0.893-0.162,1.402-0.162c1.065,0,1.947,0.275,2.644,0.824c0.697,0.55,1.227,1.284,1.59,2.202
			c0.294-0.544,0.654-1.009,1.079-1.394c0.425-0.385,0.884-0.697,1.377-0.935c0.493-0.238,1.014-0.414,1.564-0.527
			c0.549-0.113,1.096-0.17,1.64-0.17c1.009,0,1.904,0.15,2.686,0.45c0.782,0.301,1.437,0.737,1.963,1.309
			c0.527,0.573,0.927,1.275,1.199,2.108s0.408,1.777,0.408,2.831v11.203h-5.27V14.316c0-1.824-0.782-2.737-2.346-2.737
			c-0.714,0-1.306,0.235-1.776,0.706c-0.471,0.47-0.706,1.147-0.706,2.031v11.203h-5.27V14.316c0-1.008-0.198-1.717-0.595-2.125
			c-0.396-0.408-0.98-0.612-1.751-0.612c-0.476,0-0.926,0.108-1.352,0.323c-0.425,0.216-0.824,0.504-1.198,0.867v12.75H0z"/>
		<path fill="#2E3C54" d="M41.446,25.519c-0.499,0-0.875-0.068-1.13-0.204c-0.255-0.136-0.468-0.419-0.638-0.85l-0.374-0.969
			c-0.442,0.374-0.867,0.703-1.275,0.986c-0.408,0.284-0.83,0.524-1.267,0.723c-0.436,0.198-0.901,0.346-1.394,0.442
			c-0.493,0.096-1.04,0.145-1.64,0.145c-0.805,0-1.536-0.105-2.193-0.315c-0.657-0.21-1.215-0.52-1.674-0.93
			c-0.459-0.409-0.813-0.918-1.063-1.526c-0.25-0.608-0.374-1.311-0.374-2.106c0-0.625,0.159-1.268,0.476-1.928
			c0.317-0.659,0.867-1.259,1.649-1.799c0.782-0.54,1.836-0.992,3.162-1.355c1.326-0.364,2.998-0.546,5.015-0.546V14.53
			c0-1.041-0.213-1.793-0.638-2.256s-1.028-0.695-1.811-0.695c-0.624,0-1.133,0.068-1.53,0.204
			c-0.397,0.136-0.751,0.289-1.063,0.459c-0.312,0.17-0.615,0.323-0.91,0.459c-0.295,0.136-0.646,0.204-1.054,0.204
			c-0.363,0-0.671-0.088-0.926-0.264s-0.457-0.394-0.604-0.655l-0.952-1.649c1.065-0.94,2.247-1.64,3.544-2.099
			c1.298-0.459,2.689-0.689,4.174-0.689c1.065,0,2.025,0.173,2.881,0.519c0.855,0.346,1.581,0.828,2.176,1.445
			c0.595,0.618,1.051,1.352,1.368,2.201c0.317,0.85,0.476,1.78,0.476,2.788v11.016H41.446z M35.394,22.306
			c0.68,0,1.275-0.119,1.785-0.357c0.51-0.238,1.026-0.624,1.547-1.156v-2.414c-1.054,0-1.921,0.069-2.601,0.206
			c-0.68,0.137-1.219,0.309-1.615,0.515c-0.396,0.206-0.671,0.44-0.824,0.703c-0.153,0.263-0.229,0.548-0.229,0.857
			c0,0.606,0.164,1.032,0.493,1.278S34.759,22.306,35.394,22.306z"/>
		<path fill="#2E3C54" d="M58.377,11.749c-0.136,0.215-0.28,0.369-0.434,0.459c-0.153,0.091-0.348,0.136-0.586,0.136
			c-0.25,0-0.499-0.054-0.748-0.162c-0.249-0.107-0.518-0.224-0.807-0.349c-0.289-0.125-0.615-0.241-0.978-0.349
			c-0.363-0.107-0.776-0.161-1.241-0.161c-0.669,0-1.182,0.127-1.539,0.382s-0.535,0.609-0.535,1.063
			c0,0.329,0.116,0.601,0.348,0.816c0.232,0.215,0.541,0.405,0.927,0.57c0.385,0.164,0.821,0.32,1.309,0.467
			c0.487,0.147,0.986,0.312,1.496,0.493c0.51,0.181,1.009,0.394,1.496,0.637c0.487,0.244,0.924,0.544,1.309,0.901
			c0.385,0.357,0.694,0.791,0.927,1.301c0.232,0.51,0.348,1.122,0.348,1.836c0,0.873-0.159,1.677-0.476,2.414
			s-0.791,1.372-1.419,1.904c-0.629,0.533-1.405,0.947-2.329,1.241c-0.924,0.294-1.987,0.442-3.188,0.442
			c-0.601,0-1.202-0.057-1.802-0.17c-0.601-0.113-1.182-0.266-1.743-0.459s-1.079-0.422-1.555-0.688s-0.884-0.553-1.224-0.858
			l1.224-1.938c0.147-0.227,0.323-0.405,0.527-0.536s0.47-0.196,0.799-0.196c0.306,0,0.581,0.068,0.825,0.204
			c0.244,0.136,0.507,0.284,0.791,0.442c0.283,0.159,0.615,0.306,0.995,0.442c0.379,0.136,0.858,0.204,1.437,0.204
			c0.408,0,0.753-0.043,1.037-0.128s0.51-0.201,0.68-0.348s0.294-0.312,0.374-0.493c0.079-0.181,0.119-0.368,0.119-0.561
			c0-0.351-0.119-0.64-0.357-0.867c-0.238-0.227-0.55-0.422-0.935-0.586c-0.386-0.164-0.825-0.317-1.318-0.459
			c-0.493-0.142-0.994-0.303-1.504-0.484c-0.51-0.181-1.011-0.399-1.504-0.654c-0.493-0.255-0.932-0.578-1.317-0.969
			c-0.386-0.391-0.697-0.87-0.935-1.437c-0.238-0.566-0.357-1.252-0.357-2.057c0-0.748,0.145-1.459,0.434-2.133
			c0.289-0.674,0.722-1.267,1.3-1.776c0.578-0.51,1.303-0.915,2.176-1.216c0.873-0.3,1.893-0.45,3.06-0.45
			c0.635,0,1.25,0.057,1.845,0.17C55.92,7.901,56.479,8.06,57,8.264c0.521,0.204,0.997,0.445,1.428,0.722
			c0.431,0.278,0.81,0.581,1.139,0.91L58.377,11.749z"/>
		<path fill="#2E3C54" d="M62.559,25.519V0.07h5.27v9.367c0.635-0.544,1.323-0.983,2.066-1.317c0.741-0.334,1.629-0.501,2.66-0.501
			c0.963,0,1.816,0.167,2.559,0.501s1.368,0.799,1.878,1.394c0.511,0.595,0.896,1.303,1.156,2.125s0.391,1.714,0.391,2.677v11.203
			h-5.27V14.316c0-0.861-0.198-1.533-0.595-2.014c-0.397-0.482-0.98-0.723-1.751-0.723c-0.578,0-1.122,0.125-1.632,0.374
			c-0.511,0.25-0.998,0.584-1.463,1.003v12.563H62.559z"/>
		<path fill="#2E3C54" d="M94.45,25.519c-0.499,0-0.875-0.068-1.131-0.204c-0.255-0.136-0.467-0.419-0.637-0.85l-0.374-0.969
			c-0.442,0.374-0.867,0.703-1.275,0.986c-0.408,0.284-0.83,0.524-1.267,0.723s-0.9,0.346-1.394,0.442s-1.04,0.145-1.641,0.145
			c-0.805,0-1.536-0.105-2.193-0.315s-1.215-0.52-1.674-0.93c-0.459-0.409-0.813-0.918-1.063-1.526
			c-0.25-0.608-0.374-1.311-0.374-2.106c0-0.625,0.158-1.268,0.476-1.928c0.317-0.659,0.867-1.259,1.649-1.799
			c0.781-0.54,1.836-0.992,3.161-1.355c1.326-0.364,2.998-0.546,5.016-0.546V14.53c0-1.041-0.213-1.793-0.638-2.256
			s-1.028-0.695-1.811-0.695c-0.623,0-1.134,0.068-1.53,0.204c-0.396,0.136-0.751,0.289-1.063,0.459s-0.614,0.323-0.909,0.459
			c-0.295,0.136-0.646,0.204-1.054,0.204c-0.363,0-0.672-0.088-0.927-0.264s-0.456-0.394-0.604-0.655l-0.952-1.649
			c1.065-0.94,2.247-1.64,3.545-2.099c1.297-0.459,2.688-0.689,4.173-0.689c1.065,0,2.026,0.173,2.882,0.519
			c0.855,0.346,1.581,0.828,2.176,1.445c0.596,0.618,1.052,1.352,1.369,2.201c0.316,0.85,0.476,1.78,0.476,2.788v11.016H94.45z
			 M88.398,22.306c0.68,0,1.274-0.119,1.785-0.357c0.51-0.238,1.025-0.624,1.547-1.156v-2.414c-1.054,0-1.921,0.069-2.602,0.206
			c-0.68,0.137-1.218,0.309-1.614,0.515c-0.397,0.206-0.672,0.44-0.825,0.703c-0.152,0.263-0.229,0.548-0.229,0.857
			c0,0.606,0.164,1.032,0.493,1.278S87.764,22.306,88.398,22.306z"/>
		<path fill="#2E3C54" d="M106.044,0.07v25.449h-5.271V0.07H106.044z"/>
	</g>
</g>
</svg>
