<?xml version="1.0" encoding="utf-8"?>
<!-- Generator: Adobe Illustrator 17.0.0, SVG Export Plug-In . SVG Version: 6.00 Build 0)  -->
<!DOCTYPE svg PUBLIC "-//W3C//DTD SVG 1.1//EN" "http://www.w3.org/Graphics/SVG/1.1/DTD/svg11.dtd">
<svg version="1.1" id="Layer_1" xmlns="http://www.w3.org/2000/svg" xmlns:xlink="http://www.w3.org/1999/xlink" x="0px" y="0px"
	 width="42px" height="42px" viewBox="0 0 42 42" enable-background="new 0 0 42 42" xml:space="preserve">
<g id="XMLID_16_">
	<path id="XMLID_35_" fill="#2E3C54" d="M274.92-91.497h-27.89c-1.242,0-2.253-1.01-2.253-2.253v-31.905
		c0-1.242,1.01-2.253,2.253-2.253h27.89c1.242,0,2.253,1.01,2.253,2.253v10.921h-0.97v-10.921c0-0.707-0.576-1.283-1.283-1.283
		h-27.89c-0.707,0-1.283,0.576-1.283,1.283v31.905c0,0.707,0.576,1.283,1.283,1.283h27.89c0.707,0,1.283-0.576,1.283-1.283h0.97
		C277.173-92.507,276.162-91.497,274.92-91.497z"/>
	<path id="XMLID_32_" fill="#2E3C54" d="M276.717-95.741c-4.445,0-8.061-3.616-8.061-8.06c0-4.444,3.616-8.06,8.061-8.06
		c4.444,0,8.06,3.616,8.06,8.06C284.777-99.357,281.161-95.741,276.717-95.741z M276.717-110.891c-3.91,0-7.091,3.181-7.091,7.09
		c0,3.909,3.181,7.09,7.091,7.09c3.909,0,7.09-3.181,7.09-7.09C283.807-107.71,280.626-110.891,276.717-110.891z"/>
	<g id="XMLID_29_">
		<path id="XMLID_31_" fill="#2E3C54" d="M276.717-99.453c-0.268,0-0.485-0.217-0.485-0.485v-7.725c0-0.268,0.217-0.485,0.485-0.485
			s0.485,0.217,0.485,0.485v7.725C277.202-99.67,276.985-99.453,276.717-99.453z"/>
		<path id="XMLID_30_" fill="#2E3C54" d="M280.579-103.316h-7.725c-0.268,0-0.485-0.217-0.485-0.485
			c0-0.268,0.217-0.485,0.485-0.485h7.725c0.268,0,0.485,0.217,0.485,0.485C281.064-103.533,280.847-103.316,280.579-103.316z"/>
	</g>
	<path id="XMLID_26_" fill="#2E3C54" d="M258.572-111.201h-8.348c-1.214,0-2.201-0.988-2.201-2.202v-9.75
		c0-1.214,0.988-2.202,2.201-2.202h8.348c1.214,0,2.202,0.988,2.202,2.202v9.75C260.773-112.189,259.786-111.201,258.572-111.201z
		 M250.223-124.385c-0.679,0-1.232,0.553-1.232,1.232v9.75c0,0.679,0.553,1.232,1.232,1.232h8.348c0.679,0,1.232-0.553,1.232-1.232
		v-9.75c0-0.679-0.553-1.232-1.232-1.232H250.223z"/>
	<g id="XMLID_22_">
		<path id="XMLID_23_" fill="#2E3C54" d="M257.804-114.183h-6.813c-0.146,0-0.285-0.066-0.377-0.18
			c-0.092-0.115-0.128-0.263-0.097-0.407l0.025-0.121c0.019-0.103,0.038-0.194,0.066-0.284c0.222-0.726,0.79-1.064,1.259-1.278
			c0.18-0.082,0.365-0.158,0.549-0.233l0.343-0.143c0.317-0.136,0.301-0.255,0.284-0.38c-0.009-0.069-0.01-0.139-0.009-0.209
			l-0.343-0.777c-0.365-0.328-0.472-0.84-0.272-1.293c-0.01-0.135-0.022-0.246-0.034-0.356c-0.03-0.28-0.059-0.562-0.049-0.84
			c0.024-0.737,0.413-1.296,1.069-1.532c0.706-0.256,1.4-0.203,2.061,0.16c0.447,0.244,0.799,0.476,0.933,1.057
			c0.128,0.561,0.036,1.079-0.069,1.526c0.156,0.377,0.12,0.921-0.224,1.208c-0.029,0.025-0.044,0.062-0.086,0.188
			c0,0.001-0.038,0.112-0.038,0.113c-0.043,0.126-0.101,0.298-0.239,0.443c-0.034,0.036-0.04,0.094-0.033,0.295
			c0.006,0.096,0.007,0.157,0.001,0.218c0.125,0.093,0.22,0.152,0.31,0.192c0.101,0.047,0.204,0.087,0.306,0.128
			c0.189,0.075,0.378,0.151,0.554,0.249c0.045,0.026,0.096,0.045,0.164,0.062c0.039,0.009,0.077,0.024,0.112,0.043
			c0.346,0.186,0.83,0.507,1.03,1.16c0.027,0.091,0.046,0.182,0.066,0.283l0.025,0.122c0.031,0.144-0.005,0.293-0.097,0.407
			C258.089-114.249,257.95-114.183,257.804-114.183z M251.667-115.153h5.457c-0.087-0.11-0.209-0.206-0.377-0.301
			c-0.127-0.036-0.237-0.081-0.342-0.14c-0.137-0.077-0.286-0.134-0.435-0.193c-0.119-0.046-0.239-0.095-0.355-0.148
			c-0.152-0.069-0.308-0.165-0.465-0.283c-0.291-0.22-0.435-0.531-0.405-0.878c-0.015-0.357-0.029-0.753,0.295-1.094
			c0.001-0.009,0.01-0.049,0.023-0.085l0.497,0.045l-0.461-0.152c0.059-0.178,0.139-0.421,0.384-0.627
			c-0.032,0.016-0.035-0.063-0.051-0.096c-0.08-0.157-0.102-0.36-0.059-0.541c0.107-0.45,0.158-0.796,0.08-1.137
			c-0.034-0.146-0.046-0.201-0.453-0.423c-0.412-0.225-0.827-0.258-1.267-0.098c-0.102,0.036-0.412,0.149-0.429,0.652
			c-0.008,0.234,0.019,0.469,0.045,0.704c0.014,0.132,0.028,0.263,0.038,0.394c0.006,0.088,0.019,0.267-0.073,0.441
			c-0.04,0.076-0.027,0.155,0.033,0.203c0.124,0.098,0.183,0.223,0.215,0.289l0.342,0.733c0.041,0.09,0.08,0.188,0.093,0.308
			c0.007,0.062,0.007,0.123,0.005,0.185c0.049,0.419,0.004,1.085-0.862,1.456l-0.358,0.15c-0.172,0.071-0.345,0.141-0.514,0.219
			C251.976-115.438,251.787-115.309,251.667-115.153z"/>
	</g>
	<g id="XMLID_17_">
		<g id="XMLID_18_">
			<path id="XMLID_21_" fill="#2E3C54" d="M265.573-105.478h-16.559c-0.281,0-0.508-0.227-0.508-0.508s0.227-0.508,0.508-0.508
				h16.559c0.281,0,0.508,0.227,0.508,0.508S265.854-105.478,265.573-105.478z"/>
			<path id="XMLID_20_" fill="#2E3C54" d="M265.573-101.564h-16.559c-0.281,0-0.508-0.227-0.508-0.508s0.227-0.508,0.508-0.508
				h16.559c0.281,0,0.508,0.227,0.508,0.508S265.854-101.564,265.573-101.564z"/>
			<path id="XMLID_19_" fill="#2E3C54" d="M265.573-97.649h-16.559c-0.281,0-0.508-0.227-0.508-0.508s0.227-0.508,0.508-0.508
				h16.559c0.281,0,0.508,0.227,0.508,0.508S265.854-97.649,265.573-97.649z"/>
		</g>
	</g>
</g>
<g id="XMLID_11_">
	<path id="XMLID_14_" fill="none" stroke="#8C8C8C" stroke-miterlimit="10" d="M90.957-96.859c-0.943,0-1.889,0-2.831,0
		c-6.405,0-12.795,0-19.251,0c0.103-0.476,0.157-0.863,0.27-1.233c0.524-1.714,1.852-2.617,3.364-3.305
		c0.981-0.446,1.989-0.831,2.979-1.257c1.309-0.563,2.147-1.44,1.932-3.01c-0.038-0.278,0.009-0.568-0.022-0.848
		c-0.02-0.183-0.096-0.365-0.174-0.535c-0.376-0.821-0.758-1.638-1.146-2.454c-0.068-0.143-0.146-0.304-0.265-0.398
		c-0.828-0.656-1.047-1.785-0.543-2.736c0.087-0.165,0.076-0.402,0.061-0.602c-0.096-1.295-0.324-2.593-0.281-3.883
		c0.057-1.712,0.874-3.09,2.529-3.688c1.792-0.647,3.678-0.623,5.616,0.436c1.48,0.809,2.062,1.296,2.337,2.499
		c0.355,1.552,0.09,3.068-0.269,4.582c-0.053,0.221-0.035,0.511,0.065,0.709c0.335,0.66,0.337,1.84-0.237,2.32
		c-0.536,0.448-0.666,1.007-0.866,1.587c-0.127,0.367-0.242,0.785-0.495,1.052c-0.61,0.643-0.589,1.401-0.561,2.183
		c0.006,0.174,0.027,0.35,0.012,0.523c-0.056,0.654,0.24,1.149,0.725,1.518c0.393,0.298,0.82,0.569,1.267,0.775
		c0.92,0.424,1.905,0.719,2.784,1.212c0.317,0.178,0.638,0.286,0.961,0.368c1.215,0.65,2.241,1.505,2.683,2.952
		c0.113,0.369,0.168,0.756,0.27,1.233C91.562-96.859,91.26-96.859,90.957-96.859z"/>
	<path id="XMLID_13_" fill="none" stroke="#8C8C8C" stroke-miterlimit="10" d="M92.372-122.545c-1.09,0-1.978,0.786-1.978,1.75
		v13.85c0,0.964,0.887,1.75,1.978,1.75h13.405c1.091,0,1.978-0.786,1.978-1.75v-13.85c0-0.964-0.887-1.75-1.978-1.75H92.372z"/>
	<polyline id="XMLID_12_" fill="none" stroke="#8C8C8C" stroke-miterlimit="10" points="94.419,-112.88 97.655,-109.347 
		103.667,-116.711 	"/>
</g>
<g id="XMLID_5_">
	<path id="XMLID_10_" fill="none" stroke="#8C8C8C" stroke-miterlimit="10" d="M-71.095-115.448
		c3.029,9.444-2.104,19.558-11.466,22.591s-19.407-2.165-22.436-11.609c-3.029-9.444,2.104-19.558,11.466-22.591
		C-84.17-130.089-74.125-124.892-71.095-115.448z"/>
	<path id="XMLID_9_" fill="none" stroke="#8C8C8C" stroke-miterlimit="10" d="M-71.095-115.448
		c3.029,9.444-2.104,19.558-11.466,22.591s-19.407-2.165-22.436-11.609c-3.029-9.444,2.104-19.558,11.466-22.591
		C-84.17-130.089-74.125-124.892-71.095-115.448z"/>
	
		<line id="XMLID_8_" fill="none" stroke="#8C8C8C" stroke-linecap="round" stroke-linejoin="round" stroke-miterlimit="10" x1="-67.87" y1="-91.482" x2="-74.771" y2="-97.791"/>
	<path id="XMLID_6_" fill="none" stroke="#8C8C8C" stroke-miterlimit="10" d="M-80.613-101.397c-0.662,0-1.327,0-1.988,0
		c-4.497,0-8.984,0-13.517,0c0.072-0.334,0.11-0.606,0.19-0.865c0.368-1.204,1.3-1.838,2.362-2.321
		c0.689-0.313,1.396-0.583,2.091-0.882c0.919-0.396,1.507-1.011,1.357-2.113c-0.027-0.195,0.007-0.399-0.015-0.596
		c-0.014-0.128-0.068-0.256-0.122-0.376c-0.264-0.576-0.532-1.15-0.805-1.723c-0.048-0.101-0.102-0.213-0.186-0.279
		c-0.582-0.461-0.735-1.253-0.382-1.921c0.061-0.116,0.053-0.282,0.043-0.423c-0.067-0.909-0.228-1.821-0.198-2.726
		c0.04-1.202,0.614-2.17,1.775-2.589c1.258-0.454,2.583-0.437,3.943,0.306c1.039,0.568,1.447,0.91,1.641,1.755
		c0.249,1.09,0.063,2.154-0.189,3.217c-0.037,0.155-0.025,0.359,0.046,0.498c0.235,0.464,0.237,1.292-0.167,1.629
		c-0.376,0.315-0.468,0.707-0.608,1.114c-0.089,0.258-0.17,0.551-0.348,0.739c-0.428,0.451-0.414,0.984-0.394,1.533
		c0.004,0.122,0.019,0.246,0.008,0.367c-0.039,0.459,0.168,0.807,0.509,1.066c0.276,0.209,0.576,0.399,0.889,0.544
		c0.646,0.298,1.338,0.505,1.954,0.851c0.223,0.125,0.448,0.201,0.674,0.258c0.853,0.456,1.573,1.057,1.884,2.073
		c0.079,0.259,0.118,0.531,0.19,0.865C-80.188-101.397-80.4-101.397-80.613-101.397z"/>
</g>
<g id="XMLID_1_">
	<polyline id="XMLID_4_" fill="none" stroke="#8C8C8C" stroke-miterlimit="10" points="-251.135,-102.003 -238.361,-113.899 
		-227.412,-106.579 -213.27,-123.508 	"/>
	<polyline id="XMLID_3_" fill="none" stroke="#8C8C8C" stroke-miterlimit="10" points="-212.59,-116.343 -213.161,-123.793 
		-220.209,-123.602 	"/>
	<line id="XMLID_2_" fill="none" stroke="#8C8C8C" stroke-miterlimit="10" x1="-252.091" y1="-95.598" x2="-215.595" y2="-95.598"/>
</g>
<g id="XMLID_4848_">
	<path id="XMLID_7221_" fill="#2E3C54" d="M31.143,39.205H3.253C2.01,39.205,1,38.195,1,36.952V5.048
		c0-1.242,1.01-2.253,2.253-2.253h27.89c1.242,0,2.253,1.01,2.253,2.253v10.921h-0.97V5.048c0-0.707-0.576-1.283-1.283-1.283H3.253
		c-0.707,0-1.283,0.576-1.283,1.283v31.905c0,0.707,0.576,1.283,1.283,1.283h27.89c0.707,0,1.283-0.576,1.283-1.283h0.97
		C33.396,38.195,32.385,39.205,31.143,39.205z"/>
	<path id="XMLID_7216_" fill="#2E3C54" d="M32.94,34.961c-4.445,0-8.061-3.616-8.061-8.06s3.616-8.06,8.061-8.06
		c4.444,0,8.06,3.616,8.06,8.06S37.384,34.961,32.94,34.961z M32.94,19.811c-3.91,0-7.091,3.181-7.091,7.09s3.181,7.09,7.091,7.09
		c3.909,0,7.09-3.181,7.09-7.09S36.849,19.811,32.94,19.811z"/>
	<g id="XMLID_7205_">
		<path id="XMLID_7213_" fill="#2E3C54" d="M32.94,31.248c-0.268,0-0.485-0.217-0.485-0.485v-7.725c0-0.268,0.217-0.485,0.485-0.485
			s0.485,0.217,0.485,0.485v7.725C33.425,31.032,33.208,31.248,32.94,31.248z"/>
		<path id="XMLID_7212_" fill="#2E3C54" d="M36.802,27.386h-7.725c-0.268,0-0.485-0.217-0.485-0.485s0.217-0.485,0.485-0.485h7.725
			c0.268,0,0.485,0.217,0.485,0.485S37.07,27.386,36.802,27.386z"/>
	</g>
	<path id="XMLID_7160_" fill="#2E3C54" d="M14.795,19.501H6.446c-1.214,0-2.201-0.988-2.201-2.202v-9.75
		c0-1.214,0.988-2.202,2.201-2.202h8.348c1.214,0,2.202,0.988,2.202,2.202v9.75C16.996,18.513,16.009,19.501,14.795,19.501z
		 M6.446,6.317c-0.679,0-1.232,0.553-1.232,1.232v9.75c0,0.679,0.553,1.232,1.232,1.232h8.348c0.679,0,1.232-0.553,1.232-1.232
		v-9.75c0-0.679-0.553-1.232-1.232-1.232H6.446z"/>
	<g id="XMLID_6797_">
		<path id="XMLID_7153_" fill="#2E3C54" d="M14.027,16.519H7.214c-0.146,0-0.285-0.066-0.377-0.18
			c-0.092-0.115-0.128-0.263-0.097-0.407l0.025-0.121c0.019-0.103,0.038-0.194,0.066-0.284c0.222-0.726,0.79-1.064,1.259-1.278
			c0.18-0.082,0.365-0.158,0.549-0.233l0.343-0.143c0.317-0.136,0.301-0.255,0.284-0.38c-0.009-0.069-0.01-0.139-0.009-0.209
			l-0.343-0.777c-0.365-0.328-0.472-0.84-0.272-1.293c-0.01-0.135-0.022-0.246-0.034-0.356c-0.03-0.28-0.059-0.562-0.049-0.84
			c0.024-0.737,0.413-1.295,1.069-1.532c0.706-0.256,1.4-0.203,2.061,0.16c0.447,0.244,0.799,0.476,0.933,1.057
			c0.128,0.561,0.036,1.079-0.069,1.526c0.156,0.377,0.12,0.921-0.223,1.208c-0.029,0.025-0.045,0.062-0.086,0.188
			c0,0.001-0.038,0.112-0.038,0.113c-0.043,0.126-0.101,0.298-0.239,0.443c-0.034,0.036-0.04,0.094-0.033,0.295
			c0.006,0.096,0.007,0.157,0.001,0.218c0.125,0.093,0.22,0.152,0.31,0.192c0.101,0.047,0.204,0.087,0.306,0.128
			c0.189,0.075,0.378,0.151,0.554,0.249c0.045,0.026,0.096,0.045,0.164,0.062c0.039,0.009,0.077,0.024,0.112,0.043
			c0.346,0.186,0.83,0.507,1.03,1.16c0.027,0.091,0.046,0.182,0.066,0.283l0.025,0.122c0.031,0.144-0.005,0.293-0.097,0.407
			C14.312,16.452,14.173,16.519,14.027,16.519z M7.89,15.549h5.457c-0.087-0.11-0.209-0.206-0.377-0.301
			c-0.127-0.036-0.237-0.081-0.342-0.14c-0.137-0.077-0.286-0.134-0.435-0.193c-0.119-0.046-0.239-0.095-0.355-0.148
			c-0.152-0.069-0.308-0.165-0.465-0.283c-0.291-0.22-0.435-0.531-0.405-0.878c-0.015-0.357-0.029-0.753,0.295-1.094
			c0.001-0.009,0.01-0.049,0.023-0.085l0.497,0.045l-0.461-0.152c0.059-0.178,0.139-0.421,0.384-0.627
			c-0.032,0.016-0.035-0.063-0.051-0.096c-0.08-0.157-0.102-0.36-0.059-0.541c0.107-0.45,0.158-0.796,0.08-1.137
			c-0.034-0.146-0.046-0.201-0.453-0.423c-0.412-0.225-0.827-0.258-1.267-0.098c-0.102,0.036-0.412,0.149-0.429,0.652
			c-0.008,0.234,0.019,0.469,0.045,0.704c0.014,0.132,0.028,0.263,0.038,0.394c0.006,0.088,0.019,0.267-0.073,0.441
			c-0.04,0.076-0.027,0.155,0.033,0.203c0.124,0.098,0.183,0.223,0.215,0.289l0.342,0.733c0.041,0.09,0.08,0.188,0.093,0.308
			c0.007,0.062,0.007,0.123,0.005,0.185c0.049,0.419,0.004,1.085-0.862,1.456l-0.358,0.15c-0.172,0.071-0.345,0.141-0.514,0.219
			C8.199,15.264,8.01,15.393,7.89,15.549z"/>
	</g>
	<g id="XMLID_6743_">
		<g id="XMLID_6768_">
			<path id="XMLID_6794_" fill="#2E3C54" d="M21.796,25.224H5.237c-0.281,0-0.508-0.227-0.508-0.508
				c0-0.281,0.227-0.508,0.508-0.508h16.559c0.281,0,0.508,0.227,0.508,0.508C22.304,24.997,22.077,25.224,21.796,25.224z"/>
			<path id="XMLID_6792_" fill="#2E3C54" d="M21.796,29.138H5.237c-0.281,0-0.508-0.227-0.508-0.508s0.227-0.508,0.508-0.508h16.559
				c0.281,0,0.508,0.227,0.508,0.508S22.077,29.138,21.796,29.138z"/>
			<path id="XMLID_6769_" fill="#2E3C54" d="M21.796,33.053H5.237c-0.281,0-0.508-0.227-0.508-0.508s0.227-0.508,0.508-0.508h16.559
				c0.281,0,0.508,0.227,0.508,0.508S22.077,33.053,21.796,33.053z"/>
		</g>
	</g>
</g>
</svg>
