<?xml version="1.0" encoding="utf-8"?>
<!-- Generator: Adobe Illustrator 17.0.0, SVG Export Plug-In . SVG Version: 6.00 Build 0)  -->
<!DOCTYPE svg PUBLIC "-//W3C//DTD SVG 1.1//EN" "http://www.w3.org/Graphics/SVG/1.1/DTD/svg11.dtd">
<svg version="1.1" id="Layer_1" xmlns="http://www.w3.org/2000/svg" xmlns:xlink="http://www.w3.org/1999/xlink" x="0px" y="0px"
	 width="20.299px" height="22.473px" viewBox="0 0 20.299 22.473" enable-background="new 0 0 20.299 22.473" xml:space="preserve">
<g id="XMLID_3339_">
	<g>
		<path id="XMLID_49_" fill="#BFBFBF" d="M12.25,19.245c-0.002,1.16-0.941,2.098-2.1,2.1c-1.16-0.002-2.098-0.941-2.1-2.1H6.922
			c0,1.783,1.445,3.228,3.228,3.228c1.783,0,3.228-1.445,3.228-3.228H12.25L12.25,19.245z"/>
		<g id="XMLID_44_">
			<path id="XMLID_48_" fill="#BFBFBF" d="M1.332,16.419l0.451,0.339c0.003-0.004,0.769-1.022,1.595-2.236
				c0.413-0.607,0.842-1.262,1.2-1.87c0.359-0.612,0.647-1.158,0.79-1.627c0.564-1.927,0.409-4.028,0.828-5.523
				c0.206-0.749,0.516-1.314,1.068-1.722c0.553-0.408,1.414-0.69,2.807-0.69h0.156c1.283,0.001,2.085,0.277,2.625,0.686
				c0.406,0.309,0.688,0.707,0.906,1.21c0.326,0.751,0.476,1.728,0.606,2.782c0.132,1.054,0.247,2.182,0.567,3.258
				c0.143,0.469,0.431,1.015,0.79,1.627c1.073,1.817,2.79,4.097,2.796,4.106l0.451-0.339h-0.564
				c-0.001,0.115-0.03,0.215-0.108,0.339c-0.134,0.216-0.459,0.483-0.956,0.718c-1.491,0.724-4.354,1.135-7.191,1.129
				c-2.164,0.001-4.334-0.228-5.912-0.667c-0.788-0.217-1.425-0.491-1.821-0.775c-0.199-0.141-0.334-0.282-0.413-0.405
				c-0.079-0.125-0.107-0.224-0.108-0.339H1.332l0.451,0.339L1.332,16.419H0.768c-0.001,0.343,0.108,0.674,0.288,0.95
				c0.318,0.486,0.814,0.833,1.416,1.124c1.804,0.855,4.728,1.234,7.678,1.24c2.245-0.001,4.484-0.23,6.213-0.708
				c0.866-0.241,1.606-0.541,2.175-0.944c0.284-0.203,0.527-0.434,0.706-0.712c0.18-0.276,0.289-0.607,0.288-0.95v-0.188
				l-0.113-0.151c0-0.001-0.187-0.249-0.478-0.649c-0.435-0.6-1.1-1.537-1.692-2.455c-0.591-0.909-1.114-1.84-1.237-2.273
				c-0.507-1.668-0.455-3.742-0.982-5.512c-0.267-0.883-0.709-1.718-1.497-2.314c-0.787-0.596-1.867-0.916-3.306-0.914h-0.156
				c-1.537-0.001-2.663,0.312-3.476,0.91C5.988,3.318,5.585,3.912,5.327,4.551C4.94,5.513,4.839,6.583,4.743,7.649
				c-0.093,1.066-0.178,2.13-0.455,3.055c-0.081,0.282-0.342,0.806-0.681,1.376c-0.509,0.863-1.193,1.868-1.748,2.653
				c-0.277,0.392-0.522,0.73-0.698,0.97c-0.176,0.239-0.28,0.378-0.28,0.378l-0.113,0.151v0.188H1.332z"/>
			<path id="XMLID_47_" fill="#BFBFBF" d="M9.076,2.625C9.075,2.177,9.223,1.782,9.433,1.518c0.214-0.265,0.462-0.39,0.717-0.391
				c0.254,0.001,0.502,0.125,0.717,0.391c0.21,0.263,0.358,0.659,0.357,1.107h1.128c-0.001-0.69-0.22-1.326-0.602-1.808
				C11.371,0.336,10.8-0.001,10.15,0c-0.65-0.001-1.221,0.336-1.6,0.817C8.168,1.3,7.949,1.935,7.948,2.625H9.076L9.076,2.625z"/>
			<path id="XMLID_46_" fill="#BFBFBF" d="M7.393,9.893c0,0,0.065-1.698,0.213-2.662c0.106-0.692,0.586-1.757,0.586-1.757"/>
			<path id="XMLID_45_" fill="#BFBFBF" d="M7.957,9.914c0-0.001,0.016-0.418,0.05-0.955c0.034-0.536,0.088-1.195,0.157-1.642
				c0.04-0.268,0.176-0.691,0.303-1.025C8.53,6.124,8.59,5.976,8.635,5.87c0.044-0.106,0.071-0.164,0.071-0.164
				C8.834,5.422,8.707,5.088,8.423,4.96C8.139,4.832,7.805,4.959,7.678,5.243C7.671,5.268,7.184,6.316,7.049,7.145
				C6.893,8.17,6.831,9.86,6.83,9.871c-0.012,0.311,0.231,0.573,0.542,0.585C7.683,10.468,7.945,10.226,7.957,9.914L7.957,9.914z"/>
		</g>
	</g>
</g>
</svg>
