<?xml version="1.0" encoding="utf-8"?>
<!-- Generator: Adobe Illustrator 17.0.0, SVG Export Plug-In . SVG Version: 6.00 Build 0)  -->
<!DOCTYPE svg PUBLIC "-//W3C//DTD SVG 1.1//EN" "http://www.w3.org/Graphics/SVG/1.1/DTD/svg11.dtd">
<svg version="1.1" id="Layer_1" xmlns="http://www.w3.org/2000/svg" xmlns:xlink="http://www.w3.org/1999/xlink" x="0px" y="0px"
	 width="18.998px" height="18.998px" viewBox="0 0 18.998 18.998" enable-background="new 0 0 18.998 18.998" xml:space="preserve">
<g id="XMLID_17688_">
	<path id="XMLID_19110_" fill="#BFBFBF" d="M8.77,0.729v17.54c0,0.403,0.326,0.729,0.729,0.729c0.403,0,0.729-0.326,0.729-0.729
		V0.729C10.228,0.326,9.902,0,9.499,0C9.096,0,8.77,0.326,8.77,0.729"/>
	<path id="XMLID_19111_" fill="#BFBFBF" d="M18.269,8.77H0.729C0.326,8.77,0,9.096,0,9.499c0,0.403,0.326,0.729,0.729,0.729h17.54
		c0.403,0,0.729-0.326,0.729-0.729C18.998,9.096,18.672,8.77,18.269,8.77"/>
</g>
</svg>
