<?xml version="1.0" encoding="utf-8"?>
<!-- Generator: Adobe Illustrator 17.0.0, SVG Export Plug-In . SVG Version: 6.00 Build 0)  -->
<!DOCTYPE svg PUBLIC "-//W3C//DTD SVG 1.1//EN" "http://www.w3.org/Graphics/SVG/1.1/DTD/svg11.dtd">
<svg version="1.1" id="Layer_1" xmlns="http://www.w3.org/2000/svg" xmlns:xlink="http://www.w3.org/1999/xlink" x="0px" y="0px"
	 width="47.167px" height="47.167px" viewBox="0 0 47.167 47.167" enable-background="new 0 0 47.167 47.167" xml:space="preserve">
<path id="XMLID_5783_" fill="#6DD8A0" d="M45.199,7.731H1.968c-0.486,0-0.884,0.398-0.884,0.884v29.936
	c0,0.486,0.398,0.884,0.884,0.884h43.232c0.487,0,0.884-0.398,0.884-0.884V8.615C46.083,8.129,45.686,7.731,45.199,7.731z
	 M23.99,32.505c-0.69,0-1.383,0-2.073,0c-4.691,0-9.371,0-14.099,0c0.075-0.348,0.115-0.632,0.198-0.902
	c0.384-1.255,1.356-1.916,2.463-2.419c0.718-0.327,1.457-0.608,2.182-0.92c0.959-0.412,1.572-1.054,1.415-2.202
	c-0.028-0.204,0.007-0.416-0.016-0.621c-0.015-0.134-0.071-0.267-0.128-0.392c-0.275-0.601-0.555-1.199-0.839-1.796
	c-0.05-0.105-0.107-0.222-0.194-0.291c-0.607-0.48-0.767-1.306-0.398-2.002c0.064-0.121,0.056-0.294,0.045-0.44
	c-0.07-0.948-0.238-1.898-0.206-2.842c0.042-1.253,0.64-2.262,1.852-2.699c1.313-0.474,2.694-0.456,4.113,0.319
	c1.084,0.592,1.509,0.949,1.712,1.829c0.26,1.136,0.066,2.246-0.197,3.353c-0.039,0.162-0.026,0.374,0.047,0.519
	c0.246,0.483,0.247,1.346-0.174,1.698c-0.392,0.328-0.488,0.737-0.635,1.161c-0.093,0.269-0.177,0.574-0.363,0.77
	c-0.446,0.47-0.431,1.025-0.411,1.598c0.005,0.128,0.019,0.256,0.009,0.382c-0.041,0.478,0.176,0.841,0.531,1.111
	c0.288,0.218,0.601,0.416,0.927,0.567c0.674,0.31,1.395,0.526,2.039,0.887c0.232,0.13,0.467,0.209,0.703,0.269
	c0.889,0.475,1.641,1.102,1.965,2.161c0.082,0.27,0.123,0.554,0.198,0.902C24.434,32.505,24.213,32.505,23.99,32.505z
	 M38.343,30.133h-8.357c-0.556,0-1.006-0.45-1.006-1.006c0-0.556,0.45-1.006,1.006-1.006h8.357c0.557,0,1.006,0.45,1.006,1.006
	C39.349,29.683,38.899,30.133,38.343,30.133z M38.343,24.59h-8.357c-0.556,0-1.006-0.45-1.006-1.006c0-0.556,0.45-1.006,1.006-1.006
	h8.357c0.557,0,1.006,0.45,1.006,1.006C39.349,24.14,38.899,24.59,38.343,24.59z M38.343,19.047h-8.357
	c-0.556,0-1.006-0.45-1.006-1.006s0.45-1.006,1.006-1.006h8.357c0.557,0,1.006,0.45,1.006,1.006S38.899,19.047,38.343,19.047z"/>
</svg>
