<?xml version="1.0" encoding="utf-8"?>
<!-- Generator: Adobe Illustrator 17.0.0, SVG Export Plug-In . SVG Version: 6.00 Build 0)  -->
<!DOCTYPE svg PUBLIC "-//W3C//DTD SVG 1.1//EN" "http://www.w3.org/Graphics/SVG/1.1/DTD/svg11.dtd">
<svg version="1.1" id="Layer_1" xmlns="http://www.w3.org/2000/svg" xmlns:xlink="http://www.w3.org/1999/xlink" x="0px" y="0px"
	 width="47.167px" height="47.167px" viewBox="0 0 47.167 47.167" enable-background="new 0 0 47.167 47.167" xml:space="preserve">
<g id="XMLID_156_">
	<defs>
		<rect id="XMLID_152_" x="1.083" y="2.727" width="45" height="41.712"/>
	</defs>
	<clipPath id="XMLID_2_">
		<use xlink:href="#XMLID_152_"  overflow="visible"/>
	</clipPath>
	<g id="XMLID_136_" clip-path="url(#XMLID_2_)">
		<path id="XMLID_6603_" fill="#6DD8A0" d="M30.137,31.91c-1.661,0.655-2.493,2.047-3.332,3.568
			c-1.386-2.77-2.731-5.458-4.076-8.147c-0.038,0.007-0.076,0.014-0.114,0.021c0,0.195,0,0.389,0,0.584
			c-0.001,8.871,0,17.741-0.004,26.612c-0.001,1.886-1.549,3.104-3.22,2.547c-1.033-0.344-1.648-1.241-1.649-2.449
			c-0.005-4.404-0.002-8.808-0.002-13.213c0-0.248,0-0.497,0-0.823c-0.364-0.017-0.699-0.032-1.103-0.05c0,0.294,0,0.516,0,0.739
			c-0.001,4.487,0.005,8.975-0.007,13.462c-0.003,1.296-0.937,2.3-2.21,2.441c-1.164,0.129-2.324-0.691-2.586-1.878
			c-0.088-0.399-0.069-0.825-0.069-1.239c-0.003-8.684-0.001-17.367,0-26.051c0-0.227,0-0.454,0-0.682
			c-0.032-0.016-0.065-0.032-0.097-0.048c-0.103,0.184-0.212,0.366-0.309,0.553c-1.536,2.966-3.066,5.935-4.609,8.897
			c-0.573,1.101-1.545,1.568-2.614,1.296c-1.354-0.344-2.139-1.76-1.535-3.015c1.8-3.737,3.624-7.464,5.528-11.149
			c0.872-1.688,2.174-2.992,4.161-3.374c0.244-0.047,0.493-0.09,0.74-0.091c2.638-0.013,5.276-0.024,7.914-0.02
			c2.065,0.003,3.698,0.928,4.72,2.657c1.211,2.048,2.231,4.21,3.312,6.333C29.388,30.199,29.738,31.038,30.137,31.91z"/>
		<path id="XMLID_6602_" fill="#6DD8A0" d="M30.791,48.103c-0.719,0-1.358,0-2.119,0c0.687-3.558,1.36-7.046,2.034-10.534
			c-0.026-0.015-0.052-0.029-0.078-0.044c-0.09,0.156-0.185,0.309-0.268,0.468c-0.917,1.768-1.831,3.537-2.747,5.305
			c-0.086,0.166-0.165,0.336-0.266,0.493c-0.439,0.684-1.261,0.913-1.961,0.553c-0.691-0.355-1.027-1.187-0.676-1.916
			c1.189-2.466,2.389-4.927,3.638-7.363c0.856-1.669,2.245-2.475,4.163-2.388c1.347,0.061,2.7,0.029,4.05,0.008
			c1.542-0.024,2.741,0.584,3.565,1.885c0.388,0.612,0.747,1.246,1.069,1.895c0.948,1.914,1.877,3.838,2.801,5.764
			c0.423,0.882,0.158,1.747-0.622,2.127c-0.785,0.382-1.606,0.065-2.064-0.815c-0.919-1.767-1.828-3.538-2.743-5.307
			c-0.123-0.237-0.257-0.469-0.471-0.676c0.713,3.49,1.427,6.979,2.157,10.551c-0.793,0-1.489,0-2.252,0c0,0.311,0,0.555,0,0.8
			c-0.001,2.223,0.011,4.445-0.009,6.668c-0.008,0.865-0.561,1.49-1.347,1.627c-0.702,0.122-1.453-0.262-1.723-0.943
			c-0.118-0.299-0.159-0.645-0.162-0.97c-0.014-2.077-0.007-4.155-0.007-6.232c0-0.288,0-0.576,0-0.923
			c-0.236-0.011-0.428-0.019-0.71-0.032c0,0.27,0,0.491,0,0.711c-0.001,2.202,0.012,4.404-0.008,6.606
			c-0.012,1.356-1.186,2.172-2.312,1.63c-0.673-0.323-0.935-0.899-0.933-1.627c0.005-2.181,0.002-4.362,0.002-6.543
			C30.791,48.639,30.791,48.395,30.791,48.103z"/>
		<path id="XMLID_6599_" fill="#6DD8A0" d="M17.208,8.599c2.972,0.005,5.415,2.476,5.397,5.459
			c-0.019,2.988-2.464,5.399-5.464,5.389c-2.965-0.011-5.383-2.433-5.382-5.394C11.759,11.006,14.169,8.594,17.208,8.599z"/>
		<path id="XMLID_6597_" fill="#6DD8A0" d="M37.99,28.44c0.012,2.012-1.553,3.607-3.555,3.626c-2.03,0.019-3.655-1.584-3.651-3.601
			c0.004-1.986,1.61-3.599,3.595-3.61C36.361,24.844,37.978,26.45,37.99,28.44z"/>
	</g>
</g>
</svg>
