<?xml version="1.0" encoding="utf-8"?>
<!-- Generator: Adobe Illustrator 17.0.0, SVG Export Plug-In . SVG Version: 6.00 Build 0)  -->
<!DOCTYPE svg PUBLIC "-//W3C//DTD SVG 1.1//EN" "http://www.w3.org/Graphics/SVG/1.1/DTD/svg11.dtd">
<svg version="1.1" id="Layer_1" xmlns="http://www.w3.org/2000/svg" xmlns:xlink="http://www.w3.org/1999/xlink" x="0px" y="0px"
	 width="47.167px" height="47.167px" viewBox="0 0 47.167 47.167" enable-background="new 0 0 47.167 47.167" xml:space="preserve">
<g id="XMLID_193_">
	<g id="XMLID_178_">
		<path id="XMLID_791_" fill="#6DD8A0" d="M3.384,30.885c0,0.219-0.177,0.396-0.396,0.396H1.944c-0.475,0-0.861-0.385-0.861-0.857
			v-9.016c0-0.473,0.386-0.858,0.861-0.858h14.839c0.716,0,3.322,6.252,3.322,6.315l-0.625,3.627
			c0.006,0.405-0.38,0.789-0.855,0.789h-0.844c-0.219,0-0.396-0.177-0.396-0.396"/>
		<path id="XMLID_3311_" fill="#FFFFFF" d="M7.088,25.252H4.617c-0.171,0-0.312-0.14-0.312-0.312v-2.289
			c0-0.171,0.14-0.312,0.312-0.312h2.471c0.171,0,0.312,0.14,0.312,0.312v2.289C7.399,25.112,7.259,25.252,7.088,25.252z"/>
		<path id="XMLID_3308_" fill="#FFFFFF" d="M11.775,25.252H9.569c-0.245,0-0.444-0.199-0.444-0.444v-2.025
			c0-0.245,0.199-0.444,0.444-0.444h2.206c0.245,0,0.444,0.199,0.444,0.444v2.025C12.219,25.053,12.02,25.252,11.775,25.252z"/>
		<path id="XMLID_2822_" fill="#FFFFFF" d="M18.7,25.252h-4.408c-0.194,0-0.352-0.157-0.352-0.352v-2.209
			c0-0.194,0.157-0.352,0.352-0.352h2.936"/>
		<path id="XMLID_179_" fill="#FFFFFF" d="M5.065,33.68c-1.684,0-3.054-1.362-3.054-3.036c0-1.674,1.37-3.036,3.054-3.036
			s3.054,1.362,3.054,3.036C8.119,32.318,6.749,33.68,5.065,33.68z"/>
		<path id="XMLID_1734_" fill="#6DD8A0" d="M5.065,32.971c-1.291,0-2.341-1.044-2.341-2.327c0-1.283,1.05-2.327,2.341-2.327
			c1.291,0,2.341,1.044,2.341,2.327C7.406,31.927,6.356,32.971,5.065,32.971z"/>
		<path id="XMLID_162_" fill="#FFFFFF" d="M15.67,33.68c-1.684,0-3.054-1.362-3.054-3.036c0-1.674,1.37-3.036,3.054-3.036
			s3.054,1.362,3.054,3.036C18.724,32.318,17.354,33.68,15.67,33.68z"/>
		<path id="XMLID_172_" fill="#6DD8A0" d="M15.67,32.971c-1.291,0-2.341-1.044-2.341-2.327c0-1.283,1.05-2.327,2.341-2.327
			s2.341,1.044,2.341,2.327C18.011,31.927,16.96,32.971,15.67,32.971z"/>
	</g>
	<g id="XMLID_4754_">
		<path id="XMLID_6419_" fill="#6DD8A0" d="M45.364,15.265c-0.112,0-0.225-0.026-0.331-0.081L33.744,9.301l-11.288,5.883
			c-0.354,0.184-0.786,0.046-0.969-0.305s-0.047-0.786,0.305-0.969l11.62-6.056c0.208-0.108,0.456-0.108,0.664,0l11.62,6.056
			c0.352,0.183,0.489,0.618,0.305,0.969C45.873,15.125,45.624,15.265,45.364,15.265z"/>
		<path id="XMLID_4728_" fill="#FFFFFF" d="M37.753,38.446c0,0.397-0.321,0.719-0.718,0.719c-0.397,0-0.719-0.321-0.719-0.719
			v-6.923h-5.141v6.701c0.044,0.093,0.069,0.199,0.069,0.309c0,0.397-0.321,0.719-0.718,0.719s-0.788-0.422-0.788-0.819v-7.528
			c0-0.397,0.391-0.82,0.788-0.82h6.44c0.397,0,0.788,0.423,0.788,0.82V38.446z"/>
		<path id="XMLID_6441_" fill="#6DD8A0" d="M44.021,13.289H23.468c-0.527,0-0.94,0.457-0.94,1.041v24.024
			c0,0.584,0.413,1.041,0.94,1.041h20.553c0.527,0,0.94-0.457,0.94-1.041V14.33C44.962,13.746,44.548,13.289,44.021,13.289z
			 M27.526,17.962h4.218v3.203h-4.218V17.962z M27.526,24.387h4.218v3.203h-4.218V24.387z M37.753,38.446
			c0,0.397-0.321,0.719-0.718,0.719c-0.397,0-0.719-0.321-0.719-0.719v-6.923h-5.141v6.701c0.044,0.093,0.069,0.199,0.069,0.309
			c0,0.397-0.321,0.719-0.718,0.719s-0.788-0.422-0.788-0.819v-7.528c0-0.397,0.391-0.82,0.788-0.82h6.44
			c0.397,0,0.788,0.423,0.788,0.82V38.446z M39.964,27.59h-4.218v-3.203h4.218V27.59z M39.964,21.165h-4.218v-3.203h4.218V21.165z"
			/>
	</g>
</g>
</svg>
