<?xml version="1.0" encoding="utf-8"?>
<!-- Generator: Adobe Illustrator 17.0.0, SVG Export Plug-In . SVG Version: 6.00 Build 0)  -->
<!DOCTYPE svg PUBLIC "-//W3C//DTD SVG 1.1//EN" "http://www.w3.org/Graphics/SVG/1.1/DTD/svg11.dtd">
<svg version="1.1" id="Layer_1" xmlns="http://www.w3.org/2000/svg" xmlns:xlink="http://www.w3.org/1999/xlink" x="0px" y="0px"
	 width="47.167px" height="47.167px" viewBox="0 0 47.167 47.167" enable-background="new 0 0 47.167 47.167" xml:space="preserve">
<rect x="7.5" y="5.667" fill="#FFFFFF" width="31" height="36"/>
<g id="XMLID_6673_">
	<path id="XMLID_6678_" fill="#6DD8A0" d="M39.816,3.403H7.351c-0.71,0-1.268,0.624-1.268,1.421v37.52
		c0,0.797,0.558,1.421,1.268,1.421h32.465c0.71,0,1.267-0.624,1.267-1.421V4.824C41.083,4.027,40.526,3.403,39.816,3.403z
		 M17.492,36.952h-5.337v-4.936h5.337V36.952z M17.492,28.094h-5.337v-4.935h5.337V28.094z M26.212,36.952h-5.336v-4.936h5.336
		V36.952z M26.212,28.094h-5.336v-4.935h5.336V28.094z M34.932,36.952h-5.336v-4.936h5.336V36.952z M34.932,28.094h-5.336v-4.935
		h5.336V28.094z M35.928,18.101c0,0.507-0.41,0.917-0.917,0.917H12.155c-0.507,0-0.917-0.41-0.917-0.917v-7.887
		c0-0.507,0.41-0.917,0.917-0.917h22.855c0.507,0,0.917,0.41,0.917,0.917V18.101z"/>
</g>
</svg>
