<?xml version="1.0" encoding="utf-8"?>
<!-- Generator: Adobe Illustrator 17.0.0, SVG Export Plug-In . SVG Version: 6.00 Build 0)  -->
<!DOCTYPE svg PUBLIC "-//W3C//DTD SVG 1.1//EN" "http://www.w3.org/Graphics/SVG/1.1/DTD/svg11.dtd">
<svg version="1.1" id="Layer_1" xmlns="http://www.w3.org/2000/svg" xmlns:xlink="http://www.w3.org/1999/xlink" x="0px" y="0px"
	 width="111.295px" height="111.295px" viewBox="0 0 111.295 111.295" enable-background="new 0 0 111.295 111.295"
	 xml:space="preserve">
<g id="XMLID_632_">
	<circle id="XMLID_694_" fill="#6DD8A0" cx="55.648" cy="55.648" r="55.647"/>
	<g id="XMLID_648_">
		<defs>
			<circle id="XMLID_674_" cx="55.648" cy="55.648" r="55.647"/>
		</defs>
		<clipPath id="XMLID_2_">
			<use xlink:href="#XMLID_674_"  overflow="visible"/>
		</clipPath>
		
			<polygon id="XMLID_680_" clip-path="url(#XMLID_2_)" fill="#FFAB81" stroke="#FFFFFF" stroke-width="2" stroke-miterlimit="10" points="
			55.648,132.899 -26.677,132.899 -12.439,81.835 55.648,58.266 		"/>
	</g>
</g>
<g>
	<path fill="#2E3C54" d="M40.911,33.975v0.64c0,0.182-0.02,0.331-0.06,0.448s-0.081,0.216-0.124,0.296l-4.744,9.576
		c-0.069,0.139-0.166,0.257-0.288,0.356c-0.123,0.099-0.288,0.148-0.496,0.148h-1.016l4.816-9.456
		c0.069-0.133,0.14-0.256,0.212-0.368c0.072-0.112,0.153-0.218,0.244-0.32h-5.984c-0.091,0-0.172-0.036-0.244-0.108
		c-0.072-0.072-0.108-0.153-0.108-0.244v-0.968H40.911z"/>
	<path fill="#2E3C54" d="M43.814,44.351h2.464v-7.816c0-0.235,0.009-0.472,0.024-0.712l-2.048,1.752
		c-0.054,0.042-0.106,0.073-0.16,0.092s-0.104,0.028-0.152,0.028c-0.079,0-0.151-0.017-0.216-0.052
		c-0.063-0.035-0.111-0.076-0.144-0.124l-0.448-0.616l3.408-2.952h1.16v10.4h2.256v1.088h-6.145V44.351z"/>
	<path fill="#2E3C54" d="M51.502,44.559c0-0.139,0.025-0.27,0.075-0.392c0.051-0.123,0.12-0.229,0.208-0.32
		c0.089-0.091,0.193-0.163,0.316-0.216c0.123-0.053,0.253-0.08,0.392-0.08s0.27,0.027,0.393,0.08
		c0.122,0.054,0.229,0.125,0.32,0.216c0.09,0.09,0.161,0.197,0.212,0.32c0.05,0.123,0.075,0.253,0.075,0.392
		c0,0.144-0.025,0.276-0.075,0.396c-0.051,0.12-0.122,0.225-0.212,0.316c-0.091,0.091-0.198,0.161-0.32,0.212
		c-0.123,0.051-0.254,0.076-0.393,0.076s-0.269-0.025-0.392-0.076s-0.228-0.121-0.316-0.212c-0.088-0.091-0.157-0.196-0.208-0.316
		C51.528,44.835,51.502,44.703,51.502,44.559z"/>
	<path fill="#2E3C54" d="M58.997,33.847c0.485,0,0.938,0.072,1.36,0.216c0.421,0.144,0.785,0.354,1.092,0.628
		c0.307,0.275,0.548,0.609,0.724,1.004c0.177,0.395,0.265,0.843,0.265,1.344c0,0.427-0.064,0.821-0.192,1.184
		s-0.302,0.71-0.52,1.044c-0.219,0.333-0.471,0.656-0.757,0.968c-0.285,0.312-0.588,0.631-0.907,0.956l-3.017,3.088
		c0.214-0.059,0.43-0.105,0.648-0.14s0.429-0.052,0.632-0.052h3.84c0.155,0,0.277,0.045,0.368,0.136
		c0.091,0.09,0.136,0.208,0.136,0.352v0.864h-7.647v-0.488c0-0.102,0.02-0.206,0.06-0.312c0.04-0.107,0.105-0.206,0.196-0.296
		l3.672-3.688c0.304-0.309,0.581-0.606,0.832-0.892c0.251-0.286,0.465-0.572,0.644-0.86s0.316-0.58,0.412-0.876
		c0.097-0.296,0.145-0.612,0.145-0.948s-0.054-0.631-0.16-0.884c-0.106-0.253-0.254-0.462-0.44-0.628
		c-0.187-0.165-0.405-0.289-0.655-0.372c-0.251-0.083-0.521-0.124-0.809-0.124s-0.555,0.043-0.8,0.128
		c-0.245,0.085-0.463,0.204-0.652,0.356c-0.189,0.152-0.349,0.332-0.479,0.54c-0.131,0.208-0.223,0.438-0.276,0.688
		c-0.043,0.154-0.106,0.267-0.191,0.336c-0.086,0.069-0.197,0.104-0.336,0.104c-0.027,0-0.056-0.001-0.084-0.004
		c-0.03-0.002-0.063-0.006-0.101-0.012l-0.744-0.128c0.075-0.523,0.219-0.985,0.433-1.388c0.213-0.402,0.483-0.74,0.812-1.012
		c0.328-0.272,0.704-0.479,1.128-0.62C58.049,33.917,58.507,33.847,58.997,33.847z"/>
	<path fill="#2E3C54" d="M71.294,34.599c0,0.203-0.064,0.369-0.192,0.5c-0.128,0.13-0.344,0.196-0.648,0.196h-3.6l-0.528,3.008
		c0.598-0.128,1.149-0.192,1.656-0.192c0.598,0,1.124,0.088,1.58,0.264c0.456,0.176,0.839,0.419,1.148,0.728
		c0.309,0.309,0.542,0.675,0.699,1.096c0.157,0.421,0.236,0.88,0.236,1.376c0,0.608-0.106,1.157-0.32,1.648
		c-0.213,0.491-0.505,0.911-0.876,1.26c-0.37,0.35-0.807,0.617-1.308,0.804c-0.502,0.187-1.043,0.28-1.624,0.28
		c-0.336,0-0.659-0.033-0.968-0.1c-0.31-0.066-0.598-0.156-0.864-0.268c-0.267-0.112-0.515-0.24-0.744-0.384
		s-0.432-0.296-0.608-0.456l0.433-0.608c0.096-0.139,0.224-0.208,0.384-0.208c0.102,0,0.22,0.042,0.356,0.124
		c0.136,0.083,0.3,0.175,0.491,0.276c0.192,0.102,0.418,0.193,0.677,0.276c0.258,0.083,0.566,0.124,0.924,0.124
		c0.399,0,0.76-0.064,1.08-0.192c0.319-0.128,0.593-0.311,0.819-0.548s0.401-0.521,0.524-0.852s0.184-0.701,0.184-1.112
		c0-0.357-0.052-0.68-0.155-0.968c-0.104-0.288-0.262-0.533-0.473-0.736c-0.21-0.203-0.473-0.36-0.788-0.472
		c-0.314-0.112-0.683-0.168-1.104-0.168c-0.288,0-0.587,0.024-0.896,0.072c-0.309,0.048-0.629,0.125-0.96,0.232l-0.896-0.264
		l0.928-5.36h5.433V34.599z"/>
	<path fill="#2E3C54" d="M78.406,36.743c0,0.448-0.069,0.849-0.208,1.204c-0.139,0.355-0.324,0.653-0.557,0.896
		c-0.231,0.243-0.502,0.428-0.812,0.556s-0.632,0.192-0.968,0.192c-0.363,0-0.697-0.064-1.004-0.192
		c-0.308-0.128-0.575-0.313-0.805-0.556c-0.229-0.243-0.408-0.541-0.535-0.896c-0.129-0.354-0.192-0.756-0.192-1.204
		c0-0.459,0.063-0.867,0.192-1.224c0.127-0.357,0.306-0.659,0.535-0.904c0.229-0.245,0.497-0.432,0.805-0.56
		c0.307-0.128,0.641-0.192,1.004-0.192c0.357,0,0.691,0.064,1.004,0.192c0.312,0.128,0.581,0.314,0.808,0.56
		c0.227,0.246,0.405,0.547,0.536,0.904S78.406,36.284,78.406,36.743z M82.413,34.263c0.069-0.091,0.143-0.162,0.22-0.212
		c0.077-0.05,0.181-0.076,0.309-0.076h1.023l-8.376,11.232c-0.053,0.069-0.117,0.125-0.191,0.168
		c-0.075,0.042-0.163,0.064-0.265,0.064h-1.056L82.413,34.263z M77.293,36.743c0-0.352-0.037-0.651-0.112-0.896
		c-0.074-0.246-0.177-0.447-0.308-0.604s-0.283-0.271-0.456-0.34c-0.174-0.069-0.358-0.104-0.556-0.104s-0.383,0.035-0.557,0.104
		c-0.173,0.069-0.323,0.183-0.452,0.34c-0.128,0.157-0.228,0.358-0.3,0.604c-0.071,0.245-0.107,0.544-0.107,0.896
		c0,0.347,0.036,0.641,0.107,0.884c0.072,0.243,0.172,0.44,0.3,0.592c0.129,0.152,0.279,0.262,0.452,0.328
		c0.174,0.067,0.359,0.1,0.557,0.1s0.382-0.033,0.556-0.1c0.173-0.066,0.325-0.176,0.456-0.328c0.131-0.152,0.233-0.349,0.308-0.592
		C77.256,37.384,77.293,37.09,77.293,36.743z M84.742,42.735c0,0.448-0.069,0.848-0.208,1.2s-0.324,0.649-0.557,0.892
		c-0.231,0.243-0.501,0.428-0.808,0.556s-0.628,0.192-0.964,0.192c-0.363,0-0.697-0.064-1.004-0.192s-0.575-0.313-0.804-0.556
		c-0.229-0.243-0.408-0.54-0.536-0.892s-0.192-0.752-0.192-1.2c0-0.458,0.064-0.868,0.192-1.228c0.128-0.36,0.307-0.663,0.536-0.908
		c0.229-0.246,0.497-0.432,0.804-0.56s0.641-0.192,1.004-0.192c0.357,0,0.69,0.064,1,0.192s0.578,0.314,0.808,0.56
		c0.229,0.245,0.408,0.548,0.536,0.908C84.677,41.867,84.742,42.276,84.742,42.735z M83.637,42.735c0-0.352-0.037-0.652-0.111-0.9
		c-0.075-0.248-0.178-0.449-0.309-0.604s-0.282-0.267-0.456-0.336c-0.173-0.069-0.358-0.104-0.556-0.104s-0.383,0.035-0.556,0.104
		c-0.174,0.069-0.324,0.181-0.452,0.336s-0.229,0.356-0.3,0.604c-0.072,0.248-0.108,0.548-0.108,0.9c0,0.347,0.036,0.64,0.108,0.88
		c0.071,0.24,0.172,0.436,0.3,0.588c0.128,0.152,0.278,0.261,0.452,0.328c0.173,0.067,0.358,0.1,0.556,0.1s0.383-0.033,0.556-0.1
		c0.174-0.066,0.325-0.176,0.456-0.328c0.131-0.152,0.233-0.348,0.309-0.588C83.6,43.375,83.637,43.081,83.637,42.735z"/>
</g>
</svg>
