<?xml version="1.0" encoding="utf-8"?>
<!-- Generator: Adobe Illustrator 17.0.0, SVG Export Plug-In . SVG Version: 6.00 Build 0)  -->
<!DOCTYPE svg PUBLIC "-//W3C//DTD SVG 1.1//EN" "http://www.w3.org/Graphics/SVG/1.1/DTD/svg11.dtd">
<svg version="1.1" id="Layer_1" xmlns="http://www.w3.org/2000/svg" xmlns:xlink="http://www.w3.org/1999/xlink" x="0px" y="0px"
	 width="12.634px" height="13.971px" viewBox="0 0 12.634 13.971" enable-background="new 0 0 12.634 13.971" xml:space="preserve">
<g id="XMLID_20820_">
	<path fill="#BFBFBF" d="M5.621,11.35c-2.728,0-5.055-1.969-5.533-4.681c-0.543-3.079,1.5-6.031,4.553-6.58
		C4.969,0.03,5.303,0,5.633,0c2.728,0,5.056,1.969,5.534,4.682c0.543,3.08-1.5,6.031-4.553,6.579
		C6.286,11.32,5.952,11.35,5.621,11.35z M5.633,1C5.362,1,5.087,1.025,4.818,1.073C2.305,1.525,0.625,3.957,1.072,6.495
		c0.394,2.234,2.307,3.855,4.549,3.855c0.272,0,0.546-0.024,0.816-0.073c2.513-0.451,4.193-2.883,3.746-5.421
		C9.789,2.622,7.875,1,5.633,1z"/>
	<path fill="#BFBFBF" d="M12.135,13.971c-0.143,0-0.285-0.061-0.383-0.179L8.556,9.985c-0.178-0.211-0.15-0.527,0.062-0.704
		c0.212-0.177,0.528-0.15,0.704,0.062l3.195,3.807c0.178,0.211,0.15,0.527-0.062,0.704C12.362,13.933,12.248,13.971,12.135,13.971z"
		/>
</g>
</svg>
