<?xml version="1.0" encoding="utf-8"?>
<!-- Generator: Adobe Illustrator 17.0.0, SVG Export Plug-In . SVG Version: 6.00 Build 0)  -->
<!DOCTYPE svg PUBLIC "-//W3C//DTD SVG 1.1//EN" "http://www.w3.org/Graphics/SVG/1.1/DTD/svg11.dtd">
<svg version="1.1" id="Layer_1" xmlns="http://www.w3.org/2000/svg" xmlns:xlink="http://www.w3.org/1999/xlink" x="0px" y="0px"
	 width="39.19px" height="38.51px" viewBox="0 0 39.19 38.51" enable-background="new 0 0 39.19 38.51" xml:space="preserve">
<path id="XMLID_81_" fill="#E0E0E0" d="M21.672,38.51h-4.157c-0.602,0-1.089-0.487-1.089-1.089l0.002-1.196
	c0.002-0.474,0.004-0.949-0.009-1.423c-0.015-0.604-0.387-0.703-0.508-0.736c-1.669-0.444-3.143-1.048-4.501-1.843
	c-0.408-0.24-0.793,0.053-0.936,0.191c-0.432,0.415-0.857,0.839-1.274,1.253l-0.525,0.521c-0.425,0.419-1.103,0.418-1.529,0.003
	l-2.843-2.797C4.097,31.189,3.98,30.91,3.98,30.617c0-0.292,0.119-0.572,0.327-0.776l1.729-1.69
	c0.525-0.517,0.553-0.719,0.172-1.353c-0.742-1.249-1.246-2.481-1.537-3.769c-0.128-0.557-0.287-0.743-0.982-0.745l-2.6-0.001
	C0.487,22.283,0,21.796,0,21.194v-3.955c0-0.578,0.453-1.056,1.029-1.086c0.264-0.018,0.391-0.027,0.521-0.028l0.887,0.001
	c0.523,0.002,1.055,0.004,1.576-0.007c0.508-0.012,0.717-0.174,0.827-0.643c0.287-1.226,0.802-2.427,1.618-3.78
	c0.31-0.513,0.281-0.744-0.155-1.175L4.337,8.597C4.129,8.393,4.01,8.112,4.01,7.82c0-0.292,0.117-0.573,0.325-0.778l2.843-2.791
	c0.425-0.415,1.103-0.417,1.529,0.002l1.852,1.826c0.508,0.5,0.697,0.572,1.533,0.196c1.063-0.478,2.25-0.937,3.632-1.401
	c0.578-0.195,0.691-0.444,0.7-0.838c0.011-0.574,0.009-1.149,0.006-1.724l-0.002-1.224C16.427,0.487,16.914,0,17.516,0h4.057
	c0.602,0,1.089,0.487,1.089,1.089v2.843c-0.002,0.618,0.038,0.809,0.94,1.091c1.055,0.328,2.175,0.777,3.523,1.41
	c0.676,0.315,0.925,0.214,1.278-0.13l2.092-2.057c0.421-0.419,1.101-0.418,1.527-0.001l2.924,2.875
	c0.236,0.233,0.355,0.561,0.319,0.892c-0.036,0.331-0.219,0.627-0.5,0.805l-0.321,0.186c-0.474,0.448-0.946,0.911-1.416,1.375
	l-0.323,0.319c-0.347,0.342-0.208,0.586-0.155,0.677c0.816,1.434,1.427,2.852,1.871,4.335c0.106,0.363,0.559,0.409,0.751,0.412
	c0.568,0.01,1.14,0.009,1.707,0.006l1.225-0.002c0.602,0,1.089,0.487,1.089,1.089v3.981c0,0.602-0.487,1.089-1.089,1.089h-2.428
	c-0.88,0.002-0.972,0.068-1.206,0.888c-0.427,1.503-0.963,2.768-1.633,3.869c-0.138,0.229-0.249,0.543,0.14,0.936l1.894,1.88
	c0.07,0.071,0.132,0.151,0.179,0.236c0.062,0.105,0.104,0.221,0.125,0.343c0.045,0.232,0.017,0.477-0.091,0.695
	c-0.079,0.156-0.191,0.288-0.325,0.387L32.029,34.2c-0.425,0.42-1.108,0.417-1.533-0.005l-1.795-1.793
	c-0.349-0.348-0.559-0.384-0.989-0.144c-1.48,0.819-2.919,1.406-4.405,1.8c-0.264,0.07-0.536,0.217-0.544,0.78
	c-0.009,0.577-0.006,1.155-0.004,1.745l0.002,0.839C22.761,38.023,22.274,38.51,21.672,38.51z M18.606,36.332h1.975
	c-0.002-0.515-0.004-1.022,0.004-1.528c0.023-1.433,0.831-2.499,2.164-2.852c1.31-0.347,2.588-0.87,3.908-1.6
	c1.269-0.705,2.545-0.528,3.578,0.507l1.035,1.031l1.284-1.263l-1.127-1.119c-1.01-1.021-1.184-2.399-0.455-3.601
	c0.568-0.932,1.027-2.023,1.401-3.335c0.498-1.748,1.452-2.463,3.293-2.467h1.344v-1.803l-0.128,0.001
	c-0.593-0.001-1.169,0.002-1.754-0.006c-1.354-0.023-2.454-0.796-2.8-1.969c-0.393-1.321-0.942-2.591-1.675-3.879
	c-0.619-1.084-0.415-2.382,0.519-3.305l0.323-0.318c0.347-0.341,0.691-0.681,1.042-1.018l-1.282-1.26L29.92,7.863
	c-1.046,1.023-2.296,1.209-3.719,0.54c-1.259-0.589-2.29-1.004-3.249-1.302C21.8,6.74,20.48,6.054,20.484,3.927v-1.75h-1.877v0.127
	c0.002,0.591,0.004,1.183-0.006,1.773c-0.028,1.381-0.802,2.396-2.184,2.861c-1.312,0.442-2.434,0.874-3.43,1.322
	C11.373,8.99,10.223,8.806,9.03,7.631L7.939,6.556L6.655,7.817l1.178,1.156c1.152,1.141,1.32,2.472,0.487,3.848
	c-0.695,1.151-1.127,2.154-1.363,3.152c-0.336,1.44-1.393,2.288-2.894,2.323c-0.544,0.011-1.091,0.009-1.635,0.007H2.177v1.802
	l1.516,0.001c1.667,0.004,2.739,0.848,3.1,2.44c0.242,1.062,0.661,2.088,1.286,3.136c0.889,1.49,0.721,2.806-0.517,4.022
	l-0.94,0.917l1.284,1.262c0.349-0.346,0.702-0.696,1.061-1.041c1.008-0.968,2.392-1.166,3.54-0.501
	c1.191,0.696,2.488,1.227,3.965,1.621c1.274,0.339,2.088,1.403,2.124,2.779c0.013,0.498,0.011,0.996,0.009,1.495V36.332z
	 M19.597,28.642c-0.002,0-0.004,0-0.006,0c-5.25-0.003-9.532-4.192-9.547-9.336c-0.006-2.53,0.982-4.904,2.785-6.684
	c1.799-1.775,4.201-2.756,6.763-2.761l0,0c0.006,0,0.013,0,0.019,0c5.243,0,9.517,4.2,9.532,9.371
	c0.006,2.478-0.963,4.82-2.734,6.593C24.598,27.642,22.178,28.642,19.597,28.642z M19.597,12.039
	c-1.988,0.004-3.848,0.761-5.237,2.133c-1.384,1.366-2.145,3.187-2.139,5.128c0.011,3.948,3.317,7.162,7.369,7.165
	c0.002,0,0.004,0,0.006,0c1.999,0,3.872-0.773,5.273-2.177c1.357-1.36,2.101-3.153,2.096-5.049c-0.011-3.973-3.31-7.2-7.357-7.2
	C19.606,12.039,19.601,12.039,19.597,12.039L19.597,12.039z"/>
</svg>
