<?xml version="1.0" encoding="utf-8"?>
<!-- Generator: Adobe Illustrator 17.0.0, SVG Export Plug-In . SVG Version: 6.00 Build 0)  -->
<!DOCTYPE svg PUBLIC "-//W3C//DTD SVG 1.1//EN" "http://www.w3.org/Graphics/SVG/1.1/DTD/svg11.dtd">
<svg version="1.1" id="Layer_1" xmlns="http://www.w3.org/2000/svg" xmlns:xlink="http://www.w3.org/1999/xlink" x="0px" y="0px"
	 width="56.479px" height="42px" viewBox="0 0 56.479 42" enable-background="new 0 0 56.479 42" xml:space="preserve">
<g>
	<g id="XMLID_33_">
		<g id="XMLID_159_">
			<path id="XMLID_2031_" fill="#3A3A3A" d="M28.534,25.737H41.4c0.218,0,0.394,0.227,0.394,0.508c0,0.281-0.176,0.508-0.394,0.508
				H28.534c-0.218,0-0.394-0.227-0.394-0.508C28.14,25.964,28.316,25.737,28.534,25.737z"/>
			<path id="XMLID_1939_" fill="#3A3A3A" d="M28.534,21.823H41.4c0.218,0,0.394,0.227,0.394,0.508s-0.176,0.508-0.394,0.508H28.534
				c-0.218,0-0.394-0.227-0.394-0.508S28.316,21.823,28.534,21.823z"/>
		</g>
	</g>
	<path fill="#3A3A3A" d="M44.735,39.46H11.744c-1.379,0-2.5-1.121-2.5-2.5V11.426c0-1.379,1.121-2.5,2.5-2.5h13.471
		c0.276,0,0.5,0.224,0.5,0.5s-0.224,0.5-0.5,0.5H11.744c-0.827,0-1.5,0.673-1.5,1.5V36.96c0,0.827,0.673,1.5,1.5,1.5h32.991
		c0.827,0,1.5-0.673,1.5-1.5V11.426c0-0.827-0.673-1.5-1.5-1.5H31.441c-0.276,0-0.5-0.224-0.5-0.5s0.224-0.5,0.5-0.5h13.294
		c1.379,0,2.5,1.121,2.5,2.5V36.96C47.235,38.339,46.114,39.46,44.735,39.46z"/>
	<path fill="#3A3A3A" d="M26.125,30.319c-0.005,0-0.012,0-0.02,0H14.564c-0.151,0-0.294-0.068-0.389-0.187
		c-0.096-0.117-0.132-0.271-0.1-0.419l0.043-0.217c0.031-0.16,0.061-0.304,0.103-0.442c0.339-1.107,1.225-1.634,1.96-1.969
		c0.3-0.137,0.604-0.262,0.91-0.387c0.198-0.082,0.397-0.163,0.595-0.248c0.632-0.271,0.726-0.59,0.672-0.984
		c-0.014-0.097-0.014-0.197-0.012-0.299c0.001-0.045,0.004-0.091-0.001-0.136c-0.004-0.021-0.019-0.061-0.046-0.12
		c-0.187-0.408-0.378-0.816-0.571-1.224c-0.599-0.502-0.766-1.324-0.397-2.021c-0.04-0.237-0.063-0.444-0.085-0.65
		c-0.049-0.448-0.099-0.912-0.083-1.383c0.037-1.111,0.62-1.952,1.6-2.306c1.1-0.397,2.197-0.312,3.228,0.251
		c0.838,0.457,1.241,0.794,1.422,1.582c0.21,0.919,0.039,1.786-0.137,2.526c0.263,0.546,0.229,1.387-0.251,1.789
		c-0.121,0.101-0.167,0.228-0.245,0.461l-0.038,0.114c-0.092,0.271-0.174,0.515-0.359,0.709c-0.149,0.158-0.158,0.345-0.144,0.733
		c0.008,0.153,0.012,0.24,0.004,0.326c-0.008,0.092,0.007,0.195,0.169,0.318c0.185,0.141,0.367,0.252,0.542,0.333
		c0.173,0.08,0.351,0.149,0.527,0.22c0.299,0.117,0.608,0.239,0.905,0.407c0.102,0.056,0.213,0.099,0.36,0.136
		c0.039,0.01,0.077,0.024,0.113,0.044c0.536,0.287,1.285,0.784,1.589,1.775c0.043,0.144,0.073,0.291,0.105,0.457l0.016,0.078
		c0.036,0.068,0.056,0.147,0.056,0.23C26.625,30.095,26.401,30.319,26.125,30.319z M15.186,29.319h10.297
		c-0.152-0.472-0.468-0.813-1.046-1.133c-0.203-0.056-0.376-0.124-0.539-0.215c-0.251-0.142-0.518-0.245-0.785-0.351
		c-0.194-0.077-0.39-0.154-0.579-0.241c-0.24-0.111-0.485-0.261-0.728-0.444c-0.408-0.31-0.602-0.726-0.561-1.203
		c0.003-0.038-0.001-0.075-0.003-0.111c-0.02-0.503-0.041-1.068,0.414-1.548c0.033-0.036,0.082-0.18,0.11-0.266l0.063-0.185
		c0.093-0.279,0.208-0.626,0.553-0.914c0.062-0.064,0.084-0.377-0.007-0.555c-0.101-0.198-0.129-0.466-0.073-0.698
		c0.186-0.782,0.28-1.435,0.135-2.072c-0.089-0.385-0.207-0.534-0.927-0.928c-0.777-0.426-1.577-0.486-2.408-0.188
		c-0.748,0.271-0.924,0.909-0.939,1.398c-0.014,0.4,0.03,0.81,0.077,1.242c0.023,0.218,0.047,0.435,0.063,0.652
		c0.009,0.129,0.024,0.362-0.09,0.575c-0.14,0.266-0.083,0.566,0.144,0.745c0.15,0.119,0.224,0.273,0.273,0.376
		c0.195,0.412,0.389,0.826,0.578,1.239c0.058,0.126,0.113,0.265,0.13,0.424c0.01,0.085,0.01,0.178,0.008,0.27
		c-0.001,0.047-0.004,0.094,0.002,0.14c0.088,0.646-0.061,1.521-1.268,2.039c-0.202,0.087-0.406,0.171-0.609,0.255
		c-0.294,0.12-0.588,0.241-0.876,0.372C15.779,28.368,15.369,28.752,15.186,29.319z"/>
	<path fill="#3A3A3A" d="M30.249,13.856H26.23c-0.827,0-1.5-0.673-1.5-1.5V4.04c0-0.827,0.673-1.5,1.5-1.5h4.019
		c0.827,0,1.5,0.673,1.5,1.5v8.316C31.749,13.183,31.076,13.856,30.249,13.856z M26.23,3.54c-0.275,0-0.5,0.225-0.5,0.5v8.316
		c0,0.275,0.225,0.5,0.5,0.5h4.019c0.275,0,0.5-0.225,0.5-0.5V4.04c0-0.275-0.225-0.5-0.5-0.5H26.23z"/>
</g>
</svg>
