<?xml version="1.0" encoding="utf-8"?>
<!-- Generator: Adobe Illustrator 17.0.0, SVG Export Plug-In . SVG Version: 6.00 Build 0)  -->
<!DOCTYPE svg PUBLIC "-//W3C//DTD SVG 1.1//EN" "http://www.w3.org/Graphics/SVG/1.1/DTD/svg11.dtd">
<svg version="1.1" id="Layer_1" xmlns="http://www.w3.org/2000/svg" xmlns:xlink="http://www.w3.org/1999/xlink" x="0px" y="0px"
	 width="44.479px" height="42px" viewBox="0 0 44.479 42" enable-background="new 0 0 44.479 42" xml:space="preserve">
<g>
	<path fill="#3A3A3A" d="M25.268,34.56c-0.005,0.001-0.013,0.001-0.02,0H2.256c-0.151,0-0.294-0.068-0.39-0.187
		c-0.095-0.117-0.131-0.272-0.099-0.42l0.091-0.448c0.058-0.297,0.11-0.564,0.189-0.823c0.618-2.019,2.267-2.992,3.635-3.615
		c0.587-0.267,1.184-0.512,1.78-0.757c0.403-0.166,0.807-0.331,1.207-0.504c1.308-0.563,1.797-1.305,1.636-2.482
		c-0.023-0.171-0.021-0.345-0.019-0.52c0.003-0.114,0.007-0.229-0.006-0.341s-0.073-0.256-0.131-0.382
		c-0.375-0.818-0.756-1.635-1.143-2.447c-0.029-0.062-0.091-0.189-0.126-0.222c-1.018-0.807-1.295-2.189-0.673-3.362
		c0.015-0.037,0.017-0.15,0.003-0.331c-0.03-0.419-0.076-0.84-0.121-1.26c-0.094-0.873-0.19-1.774-0.161-2.676
		c0.067-2.029,1.082-3.5,2.858-4.142c2.06-0.741,4.099-0.586,6.025,0.468c1.563,0.854,2.267,1.437,2.585,2.827
		c0.396,1.726,0.068,3.387-0.27,4.808c-0.03,0.13-0.012,0.295,0.025,0.367c0.442,0.872,0.402,2.29-0.362,2.931
		c-0.36,0.301-0.483,0.672-0.641,1.143l-0.125,0.37c-0.121,0.363-0.26,0.775-0.556,1.087c-0.439,0.463-0.453,0.997-0.423,1.82
		l0.007,0.132c0.009,0.151,0.016,0.303,0.003,0.451c-0.037,0.433,0.132,0.774,0.53,1.077c0.394,0.3,0.788,0.541,1.174,0.719
		c0.353,0.163,0.715,0.306,1.076,0.448c0.58,0.229,1.179,0.466,1.742,0.783c0.237,0.133,0.504,0.233,0.838,0.317
		c0.039,0.011,0.078,0.025,0.113,0.044c0.992,0.53,2.375,1.444,2.927,3.247c0.079,0.263,0.133,0.532,0.191,0.833l0.063,0.314
		c0.036,0.069,0.056,0.148,0.056,0.231C25.768,34.337,25.545,34.56,25.268,34.56z M2.866,33.56h21.773
		c-0.041-0.208-0.082-0.399-0.139-0.587c-0.337-1.103-1.075-1.916-2.389-2.629c-0.394-0.104-0.72-0.23-1.021-0.399
		c-0.505-0.284-1.047-0.498-1.62-0.725c-0.379-0.15-0.759-0.3-1.129-0.471c-0.45-0.208-0.907-0.487-1.359-0.83
		c-0.668-0.509-0.987-1.186-0.921-1.958c0.009-0.103,0.001-0.205-0.006-0.309l-0.008-0.152c-0.029-0.818-0.063-1.745,0.697-2.547
		c0.145-0.151,0.24-0.438,0.333-0.716l0.125-0.369c0.173-0.521,0.37-1.111,0.947-1.594c0.354-0.296,0.363-1.215,0.111-1.71
		c-0.149-0.295-0.189-0.697-0.105-1.052c0.312-1.311,0.615-2.837,0.268-4.354c-0.219-0.957-0.609-1.363-2.09-2.173
		c-1.675-0.916-3.415-1.051-5.206-0.403c-1.75,0.632-2.161,2.107-2.198,3.233c-0.028,0.831,0.062,1.659,0.155,2.535
		c0.047,0.432,0.093,0.863,0.125,1.294c0.02,0.276,0.029,0.594-0.117,0.872c-0.393,0.74-0.224,1.608,0.411,2.111
		c0.212,0.166,0.324,0.402,0.406,0.575c0.389,0.816,0.771,1.637,1.148,2.46c0.096,0.207,0.188,0.435,0.217,0.688
		c0.018,0.156,0.016,0.315,0.012,0.474c-0.003,0.122-0.007,0.244,0.009,0.363c0.222,1.614-0.529,2.804-2.23,3.535
		c-0.405,0.175-0.814,0.343-1.224,0.511c-0.585,0.24-1.17,0.48-1.745,0.742c-1.25,0.569-2.595,1.37-3.092,2.997
		C2.948,33.161,2.907,33.352,2.866,33.56z"/>
	<g id="XMLID_8858_">
		<path fill="#3A3A3A" d="M29.446,23.454c-0.276,0-0.5-0.224-0.5-0.5v-4.299c-0.005-0.041-0.005-0.082,0-0.124v-6.489
			c0-0.237,0.167-0.441,0.399-0.489c0.15-0.031,3.751-0.752,5.812,0.727c0.786,0.564,1.248,1.364,1.373,2.378
			c0.188,1.534-0.17,2.723-1.065,3.531c-1.557,1.404-4.295,1.188-5.52,1.004v3.762C29.946,23.23,29.722,23.454,29.446,23.454z
			 M29.946,18.178c0.979,0.16,3.552,0.441,4.851-0.734c0.648-0.585,0.891-1.457,0.742-2.665c-0.091-0.735-0.406-1.287-0.964-1.688
			c-1.353-0.972-3.697-0.76-4.629-0.626V18.178z"/>
		<path fill="#3A3A3A" d="M32.762,27.364c-5.493,0-9.963-4.469-9.963-9.962s4.47-9.963,9.963-9.963s9.962,4.47,9.962,9.963
			S38.255,27.364,32.762,27.364z M32.762,8.439c-4.942,0-8.963,4.021-8.963,8.963c0,4.941,4.021,8.962,8.963,8.962
			c4.941,0,8.962-4.021,8.962-8.962C41.723,12.46,37.703,8.439,32.762,8.439z"/>
	</g>
</g>
</svg>
