<?xml version="1.0" encoding="utf-8"?>
<!-- Generator: Adobe Illustrator 17.0.0, SVG Export Plug-In . SVG Version: 6.00 Build 0)  -->
<!DOCTYPE svg PUBLIC "-//W3C//DTD SVG 1.1//EN" "http://www.w3.org/Graphics/SVG/1.1/DTD/svg11.dtd">
<svg version="1.1" id="Layer_1" xmlns="http://www.w3.org/2000/svg" xmlns:xlink="http://www.w3.org/1999/xlink" x="0px" y="0px"
	 width="50.292px" height="42px" viewBox="0 0 50.292 42" enable-background="new 0 0 50.292 42" xml:space="preserve">
<g>
	<path fill="#3A3A3A" d="M38.935,40.63c-1.525,0-2.961-0.595-4.043-1.676c-6.183-6.177-12.362-12.358-18.536-18.545
		c-0.168-0.169-0.271-0.197-0.437-0.197c-0.309,0.018-0.535,0.025-0.757,0.025c-5.263,0-9.333-3.992-9.467-9.286
		C5.666,9.788,5.86,8.685,6.288,7.581c0.061-0.157,0.198-0.273,0.363-0.309c0.166-0.033,0.337,0.017,0.457,0.136l4.426,4.428
		c0.223,0.226,0.445,0.45,0.675,0.669c0.659,0.625,1.544,0.621,2.196-0.015c0.714-0.699,1.42-1.408,2.122-2.122
		c0.657-0.667,0.657-1.56,0-2.22c-1.108-1.115-2.223-2.225-3.338-3.335L11.335,2.95c-0.111-0.116-0.159-0.279-0.129-0.438
		s0.134-0.293,0.28-0.36c0.828-0.386,1.735-0.617,2.773-0.71c3.07-0.273,5.984,0.915,7.957,3.171
		c1.783,2.038,2.596,4.764,2.23,7.477c-0.021,0.152-0.003,0.22,0.153,0.375c6.095,6.081,12.185,12.166,18.273,18.253
		c1.952,1.951,2.36,4.799,1.016,7.085C42.847,39.573,40.995,40.63,38.935,40.63z M15.919,19.212c0.453,0,0.806,0.151,1.145,0.49
		c6.172,6.187,12.352,12.368,18.535,18.545c0.893,0.892,2.078,1.383,3.336,1.383c1.703,0,3.232-0.872,4.092-2.335
		c1.11-1.887,0.764-4.246-0.86-5.87c-6.088-6.087-12.177-12.172-18.272-18.252c-0.247-0.245-0.52-0.605-0.438-1.216
		c0.327-2.428-0.399-4.864-1.992-6.686c-1.763-2.018-4.369-3.077-7.115-2.833c-0.646,0.058-1.231,0.174-1.772,0.354l1.317,1.313
		c1.116,1.11,2.232,2.222,3.342,3.338c1.04,1.047,1.041,2.572,0.003,3.626c-0.706,0.718-1.416,1.432-2.135,2.136
		c-1.02,0.998-2.548,1.009-3.584,0.024c-0.237-0.226-0.468-0.458-0.698-0.691l-3.85-3.852c-0.206,0.732-0.296,1.471-0.277,2.239
		c0.125,4.94,4.083,8.632,9.077,8.291L15.919,19.212z M39.106,38.292C39.106,38.292,39.106,38.292,39.106,38.292
		c-1.794-0.012-3.235-1.461-3.233-3.232c0.002-1.767,1.445-3.214,3.215-3.226c0.902-0.025,1.692,0.339,2.305,0.957
		c0.612,0.617,0.945,1.434,0.937,2.298C42.315,36.854,40.868,38.292,39.106,38.292z M39.108,32.334l-0.013,0.5
		c-1.223,0.008-2.22,1.007-2.222,2.228c-0.001,1.222,0.993,2.223,2.217,2.23c1.211,0,2.229-1.013,2.24-2.213
		c0.005-0.595-0.225-1.158-0.647-1.585c-0.422-0.426-0.982-0.66-1.575-0.66V32.334z"/>
	<path fill="#3A3A3A" d="M29.314,15.773c-0.124,0-0.247-0.046-0.344-0.137c-0.201-0.19-0.209-0.507-0.019-0.707l0.103-0.11
		c0.079-0.084,0.161-0.172,0.246-0.257l9.562-9.563c0.195-0.195,0.512-0.195,0.707,0s0.195,0.512,0,0.707l-9.562,9.563
		c-0.076,0.076-0.149,0.155-0.22,0.231l-0.109,0.116C29.579,15.72,29.447,15.773,29.314,15.773z"/>
	<path fill="#3A3A3A" d="M30.918,17.392c-0.115,0-0.23-0.039-0.324-0.119c-0.21-0.18-0.235-0.495-0.056-0.705l0.113-0.137
		c0.091-0.111,0.176-0.214,0.271-0.309c3.183-3.191,6.369-6.382,9.557-9.569c0.195-0.195,0.512-0.195,0.707,0s0.195,0.512,0,0.707
		c-3.188,3.188-6.373,6.378-9.557,9.569c-0.072,0.072-0.136,0.151-0.205,0.235l-0.126,0.151
		C31.199,17.333,31.059,17.392,30.918,17.392z"/>
	<path fill="#3A3A3A" d="M33.232,19.617c-0.164,0-0.324-0.071-0.417-0.211c-0.151-0.225-0.118-0.514,0.103-0.671l0.336,0.378
		l-0.243-0.438l2.723-2.72c2.349-2.341,4.697-4.682,7.02-7.05c1.207-1.229,1.373-3.226,0.394-4.744
		c-0.644-0.999-1.678-1.645-2.837-1.77c-1.189-0.126-2.381,0.303-3.265,1.183c-2.305,2.294-4.604,4.595-6.902,6.896l-2.57,2.571
		c-0.055,0.055-0.105,0.112-0.144,0.155l-0.41-0.291l-0.338-0.372c0.05-0.057,0.116-0.131,0.186-0.2l2.568-2.57
		c2.299-2.302,4.598-4.604,6.904-6.898c1.098-1.094,2.584-1.624,4.078-1.468c1.46,0.158,2.761,0.968,3.57,2.223
		c1.229,1.907,1.011,4.425-0.521,5.986c-2.325,2.369-4.676,4.713-7.027,7.057L33.696,19.4c-0.065,0.065-0.132,0.107-0.176,0.136
		C33.433,19.591,33.332,19.617,33.232,19.617z"/>
	<path fill="#3A3A3A" d="M7.783,40.605c-0.13,0-0.255-0.051-0.348-0.142l-1.772-1.725c-0.172-0.167-0.201-0.433-0.069-0.633
		l2.81-4.273c0.541-0.825,1.082-1.65,1.64-2.465c0.179-0.26,0.548-0.557,0.937-0.594c1.364-0.129,2.461-0.716,3.453-1.847
		c0.873-0.994,1.833-1.926,2.763-2.827c0.397-0.386,0.794-0.771,1.185-1.161c0.078-0.078,0.159-0.152,0.227-0.216
		c0.198-0.183,0.57-0.237,0.759-0.049l2.117,2.109c0.094,0.094,0.147,0.221,0.147,0.354s-0.052,0.26-0.146,0.354l-3.152,3.157
		c-0.789,0.787-1.578,1.574-2.357,2.37c-0.082,0.084-0.158,0.227-0.192,0.363c-0.09,0.355-0.165,0.714-0.241,1.072
		c-0.062,0.293-0.123,0.585-0.192,0.876c-0.034,0.144-0.144,0.498-0.434,0.691c-1.977,1.312-3.959,2.613-5.941,3.915l-0.867,0.569
		C8.027,40.559,7.881,40.605,7.783,40.605z M6.656,38.31l1.198,1.166L8.427,39.1c1.981-1.301,3.961-2.602,5.937-3.912
		c-0.025,0.017,0.001-0.032,0.014-0.089c0.067-0.283,0.127-0.567,0.187-0.852c0.078-0.371,0.157-0.743,0.25-1.11
		c0.077-0.309,0.24-0.606,0.446-0.817c0.783-0.8,1.575-1.59,2.367-2.38l2.796-2.801l-1.417-1.412
		c-0.368,0.366-0.741,0.729-1.114,1.091c-0.916,0.888-1.862,1.806-2.708,2.77c-1.155,1.316-2.499,2.03-4.11,2.183
		c-0.04,0.009-0.154,0.087-0.207,0.164c-0.554,0.808-1.091,1.627-1.628,2.446L6.656,38.31z"/>
</g>
</svg>
