<?xml version="1.0" encoding="utf-8"?>
<!-- Generator: Adobe Illustrator 17.0.0, SVG Export Plug-In . SVG Version: 6.00 Build 0)  -->
<!DOCTYPE svg PUBLIC "-//W3C//DTD SVG 1.1//EN" "http://www.w3.org/Graphics/SVG/1.1/DTD/svg11.dtd">
<svg version="1.1" id="Layer_1" xmlns="http://www.w3.org/2000/svg" xmlns:xlink="http://www.w3.org/1999/xlink" x="0px" y="0px"
	 width="50.292px" height="42px" viewBox="0 0 50.292 42" enable-background="new 0 0 50.292 42" xml:space="preserve">
<g id="XMLID_257_">
	<path fill="#3A3A3A" d="M23.563,41.321c-1.373,0-2.744-0.138-4.073-0.408c-0.271-0.056-0.445-0.319-0.39-0.59
		c0.055-0.271,0.321-0.445,0.59-0.391c1.264,0.258,2.567,0.389,3.873,0.389c0.276,0,0.5,0.224,0.5,0.5S23.84,41.321,23.563,41.321z
		 M14.869,39.317c-0.074,0-0.148-0.017-0.219-0.051c-1.225-0.6-2.395-1.326-3.478-2.159c-0.219-0.169-0.259-0.482-0.091-0.701
		c0.167-0.219,0.482-0.259,0.701-0.092c1.029,0.793,2.142,1.484,3.307,2.054c0.248,0.121,0.351,0.421,0.229,0.669
		C15.232,39.215,15.054,39.317,14.869,39.317z M7.939,33.697c-0.149,0-0.296-0.066-0.395-0.192
		c-0.373-0.477-0.728-0.976-1.057-1.484c-0.15-0.231-0.083-0.541,0.148-0.691c0.232-0.148,0.542-0.085,0.691,0.148
		c0.313,0.483,0.651,0.958,1.005,1.412c0.17,0.218,0.131,0.531-0.086,0.701C8.155,33.663,8.047,33.697,7.939,33.697z"/>
	<path fill="#3A3A3A" d="M26.243,41.142c-0.247,0-0.461-0.182-0.495-0.433c-0.037-0.274,0.155-0.525,0.429-0.563
		c9.525-1.288,16.708-9.52,16.708-19.146c0-10.653-8.667-19.321-19.321-19.321c-5.862,0-11.341,2.617-15.032,7.182
		C8.406,9.016,8.202,9.082,8.008,9.027C7.816,8.974,7.674,8.811,7.647,8.613L6.806,2.415C6.769,2.142,6.961,1.89,7.234,1.853
		C7.509,1.806,7.76,2.007,7.797,2.28l0.69,5.093c3.855-4.269,9.288-6.694,15.076-6.694c11.205,0,20.321,9.116,20.321,20.321
		c0,10.126-7.555,18.782-17.574,20.137C26.288,41.141,26.265,41.142,26.243,41.142z"/>
	<path fill="#3A3A3A" d="M8.142,9.046c-0.274,0-0.498-0.222-0.5-0.496C7.64,8.273,7.863,8.048,8.138,8.046L14.1,8
		c0.001,0,0.003,0,0.004,0c0.274,0,0.498,0.222,0.5,0.496c0.002,0.276-0.22,0.502-0.496,0.504L8.146,9.046
		C8.145,9.046,8.144,9.046,8.142,9.046z"/>
</g>
<g id="XMLID_279_">
	<path fill="#3A3A3A" d="M22.731,32.011c-0.131,0-0.274-0.02-0.451-0.063c-0.517-0.128-1.015-0.311-1.496-0.488l-0.302-0.11
		c-0.537-0.195-0.831-0.772-0.686-1.342c0.121-0.474,0.247-0.944,0.374-1.416c0.023-0.086,0.005-0.103-0.028-0.131
		c-0.42-0.358-0.848-0.711-1.277-1.061c-0.038-0.015-0.071-0.013-0.136,0.018l-0.436,0.208c-0.277,0.134-0.555,0.268-0.836,0.393
		c-0.175,0.079-0.384,0.123-0.585,0.123c-0.402-0.015-0.706-0.211-0.908-0.553l-0.095-0.16c-0.291-0.493-0.582-0.985-0.865-1.483
		c-0.291-0.513-0.13-1.128,0.392-1.495l0.199-0.141c0.291-0.205,0.581-0.411,0.876-0.61c0.143-0.095,0.146-0.145,0.122-0.263
		c-0.064-0.314-0.119-0.63-0.172-0.945l-0.096-0.548c-0.014-0.073-0.032-0.101-0.123-0.124l-0.251-0.066
		c-0.329-0.088-0.658-0.176-0.99-0.251c-1.07-0.243-0.981-1.041-0.943-1.382c0.048-0.428,0.113-0.853,0.179-1.278l0.073-0.481
		c0.081-0.557,0.583-0.978,1.167-0.978c0.02,0,0.122,0.006,0.142,0.009c0.478,0.059,0.958,0.102,1.438,0.133
		c0.316-0.505,0.605-1.001,0.88-1.503c0.006-0.015,0.005-0.06-0.075-0.17l-0.083-0.114c-0.246-0.34-0.492-0.68-0.726-1.028
		c-0.131-0.194-0.178-0.42-0.202-0.572c-0.053-0.335,0.076-0.663,0.354-0.899c0.517-0.443,1.006-0.863,1.506-1.271
		c0.446-0.361,1.054-0.324,1.49,0.101c0.302,0.293,0.6,0.593,0.896,0.893l0.088,0.09c0.081,0.081,0.125,0.081,0.142,0.081
		c0.027,0,0.062-0.008,0.101-0.022c0.498-0.188,0.924-0.35,1.354-0.499c0.138-0.048,0.189-0.1,0.2-0.292
		c0.021-0.389,0.053-0.778,0.084-1.169l0.015-0.186c0.044-0.553,0.438-0.933,0.98-0.945c0.617-0.016,1.236-0.026,1.854-0.026h0.214
		c0.601,0.002,1.022,0.41,1.074,1.042c0.039,0.476,0.083,0.952,0.128,1.429c0.572,0.26,1.117,0.45,1.663,0.636
		c0.005-0.003,0.04-0.022,0.104-0.087l0.951-0.958c0.507-0.508,1.075-0.538,1.631-0.081l1.253,1.034
		c0.002,0.002,0.077,0.067,0.079,0.069c0.52,0.467,0.592,1.052,0.207,1.613l-0.121,0.177c-0.205,0.301-0.411,0.601-0.628,0.893
		c-0.093,0.124-0.095,0.176-0.012,0.308c0.245,0.393,0.473,0.795,0.701,1.197c0.056,0.099,0.102,0.15,0.129,0.175l0.508-0.052
		c0.318-0.032,0.592-0.06,0.864-0.094c0.781-0.104,1.297,0.316,1.394,1.028c0.032,0.236,0.071,0.472,0.11,0.707
		c0.061,0.371,0.122,0.741,0.159,1.114c0.065,0.65-0.199,1.036-0.833,1.216l-0.25,0.071c-0.31,0.09-0.621,0.18-0.936,0.241
		c-0.214,0.042-0.29,0.102-0.319,0.371c-0.036,0.319-0.092,0.637-0.15,0.953l-0.071,0.401c-0.013,0.078-0.008,0.103,0.069,0.154
		c0.378,0.258,0.756,0.516,1.131,0.778c0.6,0.421,0.727,0.981,0.368,1.618c-0.282,0.501-0.567,0.999-0.854,1.497
		c-0.295,0.512-0.688,0.619-0.965,0.619c-0.17,0-0.351-0.042-0.536-0.124c-0.379-0.168-0.752-0.342-1.126-0.517l-0.123-0.058
		c-0.055-0.025-0.101-0.039-0.134-0.039c-0.015,0-0.056,0-0.135,0.071c-0.372,0.331-0.755,0.65-1.139,0.969
		c-0.064,0.054-0.082,0.08-0.053,0.188l0.089,0.326c0.083,0.307,0.167,0.613,0.255,0.918c0.215,0.734-0.073,1.306-0.79,1.566
		l-1.341,0.495c-0.352,0.126-0.639,0.161-0.954,0.101c-0.409-0.078-0.608-0.329-0.704-0.526l-0.579-1.222
		c-0.046-0.101-0.063-0.141-0.085-0.177l-0.267-0.026c-0.144,0.009-0.288,0.018-0.432,0.018c-0.341-0.002-0.665-0.014-0.988-0.032
		c-0.095,0.001-0.125-0.001-0.18,0.124c-0.073,0.166-0.15,0.332-0.226,0.497c-0.094,0.202-0.187,0.404-0.274,0.608
		C23.661,31.438,23.417,32.011,22.731,32.011z M18.837,26.384c0.24,0,0.468,0.083,0.661,0.24c0.435,0.355,0.868,0.712,1.294,1.076
		c0.338,0.288,0.463,0.708,0.345,1.15c-0.125,0.468-0.25,0.935-0.371,1.404c-0.005,0.021-0.027,0.123,0.058,0.154l0.305,0.111
		c0.478,0.176,0.928,0.341,1.392,0.456c0.115,0.028,0.178,0.034,0.21,0.034l0.014-0.001c0-0.009,0.035-0.057,0.088-0.18
		c0.091-0.215,0.189-0.427,0.287-0.638l0.218-0.479c0.204-0.466,0.584-0.722,1.072-0.722c0.386,0.019,0.694,0.03,1.001,0.032
		c0,0,0,0,0,0c0.134,0,0.256-0.008,0.379-0.016l0.254-0.015c0.001,0,0.002,0,0.003,0c0.401,0,0.712,0.18,0.917,0.504
		c0.046,0.073,0.084,0.153,0.121,0.233l0.599,1.266c0.023-0.016,0.056-0.013,0.092-0.012c0.092,0,0.196-0.022,0.326-0.069
		l1.339-0.493c0.219-0.08,0.238-0.119,0.171-0.347c-0.091-0.312-0.176-0.624-0.26-0.937l-0.088-0.323
		c-0.13-0.476,0.003-0.908,0.377-1.22c0.375-0.313,0.75-0.624,1.114-0.948c0.394-0.351,0.871-0.421,1.358-0.19l0.123,0.057
		c0.368,0.172,0.736,0.344,1.107,0.509c0.079,0.035,0.121,0.038,0.132,0.038l0,0c0.005,0,0.042-0.02,0.099-0.119
		c0.285-0.494,0.569-0.99,0.849-1.487c0.071-0.126,0.071-0.177,0.071-0.181l0,0c-0.001,0-0.024-0.046-0.142-0.129
		c-0.37-0.259-0.744-0.515-1.119-0.77c-0.396-0.269-0.571-0.676-0.494-1.146l0.073-0.415c0.053-0.294,0.107-0.589,0.14-0.885
		c0.095-0.864,0.662-1.153,1.121-1.242c0.287-0.057,0.568-0.14,0.851-0.221l0.256-0.074c0.062-0.018,0.099-0.032,0.119-0.042
		c-0.004-0.014-0.004-0.052-0.01-0.111c-0.035-0.352-0.093-0.701-0.151-1.051c-0.041-0.245-0.081-0.489-0.114-0.735
		c-0.023-0.17-0.074-0.177-0.188-0.177c-0.371,0.041-0.653,0.069-0.981,0.103l-0.555,0.056c-0.005,0-0.011,0-0.017,0
		c-0.442,0-0.788-0.245-1.019-0.653c-0.236-0.417-0.458-0.808-0.694-1.188c-0.303-0.483-0.283-0.98,0.059-1.438
		c0.209-0.279,0.406-0.568,0.604-0.857l0.122-0.178c0.099-0.145,0.105-0.164-0.042-0.296l-1.307-1.083
		c-0.1-0.081-0.148-0.091-0.151-0.091c0,0-0.046,0.015-0.139,0.106l-0.951,0.958c-0.118,0.117-0.604,0.509-1.133,0.326
		c-0.555-0.188-1.11-0.383-1.661-0.59c-0.383-0.143-0.635-0.479-0.675-0.898c-0.046-0.48-0.09-0.961-0.13-1.441
		c-0.007-0.092-0.029-0.121-0.029-0.122l-0.261-0.001c-0.61,0-1.22,0.011-1.83,0.026l-0.022,0.211
		c-0.03,0.382-0.061,0.764-0.083,1.145c-0.041,0.739-0.495,1.05-0.869,1.181c-0.422,0.147-0.84,0.305-1.257,0.463
		c-0.224,0.085-0.377,0.114-0.527,0.114c-0.218,0-0.543-0.065-0.852-0.378l-0.089-0.089c-0.292-0.295-0.584-0.591-0.883-0.879
		c-0.06-0.059-0.101-0.071-0.111-0.071c-0.543,0.431-1.027,0.846-1.51,1.26c-0.024,0.138-0.002,0.176,0,0.18
		c0.227,0.339,0.466,0.669,0.706,0.999l0.083,0.114c0.385,0.531,0.29,0.966,0.142,1.236c-0.281,0.512-0.575,1.016-0.87,1.519
		c-0.186,0.315-0.516,0.504-0.883,0.504c-0.569-0.035-1.068-0.08-1.565-0.141c-0.111,0.004-0.188,0.059-0.198,0.122l-0.074,0.488
		c-0.063,0.411-0.126,0.823-0.173,1.237c-0.018,0.159-0.012,0.222-0.008,0.243c0,0.001,0.057,0.025,0.179,0.053
		c0.344,0.078,0.685,0.168,1.026,0.259l0.249,0.066c0.456,0.119,0.767,0.451,0.852,0.91l0.098,0.56
		c0.052,0.305,0.104,0.609,0.166,0.912c0.077,0.373,0.045,0.901-0.544,1.296c-0.288,0.193-0.572,0.395-0.856,0.596l-0.2,0.142
		c-0.066,0.047-0.136,0.116-0.098,0.184c0.28,0.493,0.568,0.981,0.856,1.469l0.095,0.161c0.106,0.06,0.174,0.047,0.224,0.024
		c0.274-0.121,0.542-0.251,0.81-0.38l0.445-0.213C18.485,26.427,18.664,26.384,18.837,26.384z M25.124,26.348
		C25.124,26.348,25.124,26.348,25.124,26.348c-2.986-0.036-5.343-2.451-5.326-5.383c0.018-2.932,2.386-5.317,5.279-5.317
		c0.003,0,0.075,0.002,0.079,0.001c1.431,0,2.789,0.574,3.782,1.573c1.017,1.024,1.572,2.384,1.563,3.827
		C30.481,23.971,28.069,26.348,25.124,26.348z M25.076,16.647c-2.305,0-4.265,1.98-4.279,4.323
		c-0.014,2.384,1.901,4.348,4.268,4.377c0,0,0,0,0.001,0c2.455,0,4.418-1.931,4.434-4.305c0.008-1.176-0.444-2.282-1.272-3.116
		c-0.808-0.813-1.908-1.278-3.018-1.278L25.076,16.647z"/>
</g>
</svg>
