<?xml version="1.0" encoding="utf-8"?>
<!-- Generator: Adobe Illustrator 17.0.0, SVG Export Plug-In . SVG Version: 6.00 Build 0)  -->
<!DOCTYPE svg PUBLIC "-//W3C//DTD SVG 1.1//EN" "http://www.w3.org/Graphics/SVG/1.1/DTD/svg11.dtd">
<svg version="1.1" id="Layer_1" xmlns="http://www.w3.org/2000/svg" xmlns:xlink="http://www.w3.org/1999/xlink" x="0px" y="0px"
	 width="56.479px" height="42px" viewBox="0 0 56.479 42" enable-background="new 0 0 56.479 42" xml:space="preserve">
<g>
	<path fill="#3A3A3A" d="M46.525,38.365H9.955c-0.827,0-1.5-0.673-1.5-1.5V10.583c0-0.827,0.673-1.5,1.5-1.5h36.57
		c0.827,0,1.5,0.673,1.5,1.5v26.282C48.025,37.692,47.352,38.365,46.525,38.365z M9.955,10.083c-0.275,0-0.5,0.225-0.5,0.5v26.282
		c0,0.275,0.225,0.5,0.5,0.5h36.57c0.275,0,0.5-0.225,0.5-0.5V10.583c0-0.275-0.225-0.5-0.5-0.5H9.955z"/>
	<g id="XMLID_4165_">
		<path fill="#3A3A3A" d="M31.077,24.079h-5.273c-0.827,0-1.5-0.673-1.5-1.5v-3.71c0-0.827,0.673-1.5,1.5-1.5h5.273
			c0.827,0,1.5,0.673,1.5,1.5v3.71C32.577,23.406,31.904,24.079,31.077,24.079z M25.803,18.369c-0.275,0-0.5,0.225-0.5,0.5v3.71
			c0,0.275,0.225,0.5,0.5,0.5h5.273c0.275,0,0.5-0.225,0.5-0.5v-3.71c0-0.275-0.225-0.5-0.5-0.5H25.803z"/>
		<path fill="#3A3A3A" d="M24.78,21.488H9.143c-0.276,0-0.5-0.224-0.5-0.5s0.224-0.5,0.5-0.5H24.78c0.276,0,0.5,0.224,0.5,0.5
			S25.056,21.488,24.78,21.488z"/>
		<path fill="#3A3A3A" d="M47.337,21.488H32.539c-0.276,0-0.5-0.224-0.5-0.5s0.224-0.5,0.5-0.5h14.798c0.276,0,0.5,0.224,0.5,0.5
			S47.614,21.488,47.337,21.488z"/>
	</g>
	<path fill="#3A3A3A" d="M34.321,9.717c-0.276,0-0.5-0.224-0.5-0.5V5.135c0-0.275-0.225-0.5-0.5-0.5H23.159
		c-0.275,0-0.5,0.225-0.5,0.5v4.082c0,0.276-0.224,0.5-0.5,0.5s-0.5-0.224-0.5-0.5V5.135c0-0.827,0.673-1.5,1.5-1.5h10.162
		c0.827,0,1.5,0.673,1.5,1.5v4.082C34.821,9.493,34.597,9.717,34.321,9.717z"/>
</g>
</svg>
