<?xml version="1.0" encoding="utf-8"?>
<!-- Generator: Adobe Illustrator 17.0.0, SVG Export Plug-In . SVG Version: 6.00 Build 0)  -->
<!DOCTYPE svg PUBLIC "-//W3C//DTD SVG 1.1//EN" "http://www.w3.org/Graphics/SVG/1.1/DTD/svg11.dtd">
<svg version="1.1" id="Layer_1" xmlns="http://www.w3.org/2000/svg" xmlns:xlink="http://www.w3.org/1999/xlink" x="0px" y="0px"
	 width="56.479px" height="42px" viewBox="0 0 56.479 42" enable-background="new 0 0 56.479 42" xml:space="preserve">
<g>
	<path fill="#3A3A3A" d="M52.775,39.241H10.921c-1.378,0-2.5-1.121-2.5-2.5v-0.478c0-1.379,1.122-2.5,2.5-2.5h41.854
		c1.378,0,2.5,1.121,2.5,2.5v0.478C55.275,38.12,54.154,39.241,52.775,39.241z M10.921,34.763c-0.827,0-1.5,0.673-1.5,1.5v0.478
		c0,0.827,0.673,1.5,1.5,1.5h41.854c0.827,0,1.5-0.673,1.5-1.5v-0.478c0-0.827-0.673-1.5-1.5-1.5H10.921z"/>
	<path fill="#3A3A3A" d="M50.344,34.61c-0.276,0-0.5-0.224-0.5-0.5V13.332c0-0.827-0.673-1.5-1.5-1.5H27.121
		c-0.276,0-0.5-0.224-0.5-0.5s0.224-0.5,0.5-0.5h21.223c1.378,0,2.5,1.121,2.5,2.5V34.11C50.844,34.386,50.62,34.61,50.344,34.61z"
		/>
	<path fill="#3A3A3A" d="M13.353,34.61c-0.276,0-0.5-0.224-0.5-0.5v-7.291c0-0.276,0.224-0.5,0.5-0.5s0.5,0.224,0.5,0.5v7.291
		C13.853,34.386,13.629,34.61,13.353,34.61z"/>
	<g id="XMLID_3726_">
		<path fill="#3A3A3A" d="M9.938,24.782c-0.132,0-0.276-0.021-0.453-0.064c-0.521-0.129-1.025-0.314-1.512-0.493l-0.286-0.105
			c-0.537-0.195-0.831-0.772-0.685-1.342c0.121-0.472,0.247-0.942,0.373-1.414c0.023-0.088,0.006-0.103-0.028-0.132
			c-0.42-0.359-0.848-0.712-1.276-1.061c-0.039-0.015-0.073-0.015-0.136,0.017l-0.423,0.202c-0.281,0.136-0.563,0.271-0.848,0.399
			c-0.179,0.078-0.386,0.122-0.586,0.122c-0.4-0.014-0.705-0.209-0.907-0.553L3.053,20.16c-0.284-0.48-0.567-0.96-0.843-1.444
			c-0.291-0.512-0.13-1.127,0.39-1.495l0.205-0.146c0.29-0.204,0.579-0.409,0.873-0.605c0.142-0.096,0.146-0.146,0.121-0.264
			c-0.065-0.317-0.12-0.636-0.174-0.954l-0.094-0.539c-0.013-0.068-0.027-0.099-0.124-0.124l-0.249-0.066
			c-0.33-0.088-0.659-0.176-0.991-0.251c-1.07-0.241-0.981-1.04-0.943-1.382c0.047-0.422,0.111-0.843,0.176-1.263l0.075-0.496
			c0.082-0.558,0.584-0.979,1.168-0.979c0.02,0,0.12,0.006,0.139,0.009c0.479,0.059,0.959,0.103,1.439,0.133
			c0.317-0.505,0.605-1.001,0.881-1.503c0.007-0.015,0.005-0.06-0.075-0.17L4.933,8.49C4.69,8.156,4.448,7.821,4.219,7.479
			c-0.13-0.195-0.177-0.42-0.202-0.571c-0.052-0.336,0.077-0.663,0.353-0.9l0.16-0.137c0.445-0.382,0.892-0.765,1.347-1.136
			c0.449-0.364,1.056-0.323,1.491,0.101c0.29,0.281,0.574,0.568,0.858,0.855l0.126,0.127C8.433,5.9,8.476,5.9,8.494,5.9
			c0.028,0,0.063-0.009,0.104-0.023c0.448-0.17,0.897-0.34,1.351-0.498c0.133-0.047,0.19-0.097,0.201-0.292
			c0.021-0.393,0.053-0.784,0.084-1.176l0.014-0.179c0.044-0.552,0.437-0.932,0.978-0.946c0.636-0.017,1.272-0.026,1.907-0.026
			h0.162c0.602,0.002,1.023,0.41,1.075,1.042c0.039,0.477,0.083,0.953,0.127,1.429c0.572,0.26,1.117,0.45,1.663,0.637
			c0.004-0.004,0.039-0.022,0.104-0.088l0.951-0.958c0.507-0.509,1.074-0.538,1.631-0.081L20.1,5.775
			c0.005,0.005,0.083,0.072,0.088,0.077c0.511,0.457,0.583,1.042,0.199,1.604l-0.124,0.182c-0.204,0.299-0.409,0.599-0.625,0.889
			c-0.094,0.126-0.096,0.175-0.013,0.309c0.246,0.392,0.474,0.795,0.702,1.197c0.055,0.099,0.102,0.15,0.128,0.174l0.453-0.046
			c0.342-0.034,0.631-0.063,0.92-0.1c0.784-0.103,1.296,0.316,1.394,1.028c0.032,0.234,0.07,0.468,0.109,0.701
			c0.062,0.373,0.123,0.746,0.161,1.121c0.065,0.649-0.2,1.035-0.833,1.215l-0.22,0.063c-0.32,0.093-0.64,0.186-0.965,0.249
			c-0.214,0.042-0.29,0.102-0.32,0.372c-0.035,0.318-0.092,0.636-0.149,0.952l-0.071,0.402c-0.013,0.078-0.008,0.101,0.069,0.153
			c0.379,0.258,0.756,0.517,1.131,0.779c0.6,0.42,0.727,0.979,0.367,1.618c-0.282,0.5-0.567,1-0.854,1.497
			c-0.295,0.511-0.688,0.618-0.965,0.618c-0.17,0-0.351-0.042-0.537-0.123c-0.419-0.186-0.835-0.381-1.25-0.576
			c-0.054-0.024-0.1-0.038-0.133-0.038c-0.015,0-0.056,0-0.135,0.071c-0.373,0.331-0.755,0.65-1.139,0.969
			c-0.064,0.054-0.082,0.08-0.053,0.188l0.081,0.297c0.086,0.316,0.171,0.633,0.263,0.947c0.215,0.735-0.073,1.307-0.792,1.566
			l-1.34,0.495c-0.352,0.126-0.638,0.161-0.954,0.101c-0.409-0.075-0.609-0.329-0.705-0.528l-0.578-1.221
			c-0.045-0.097-0.062-0.138-0.085-0.174l-0.275-0.027c-0.489,0.032-0.961,0.012-1.412-0.015c-0.095,0-0.127-0.001-0.181,0.123
			c-0.074,0.168-0.151,0.336-0.229,0.503c-0.092,0.2-0.185,0.4-0.271,0.603C10.867,24.207,10.624,24.782,9.938,24.782z
			 M6.041,19.155c0.24,0,0.47,0.083,0.663,0.24c0.435,0.354,0.868,0.711,1.294,1.076c0.337,0.288,0.463,0.707,0.344,1.149
			c-0.125,0.469-0.251,0.936-0.371,1.404c-0.005,0.021-0.027,0.123,0.058,0.154l0.29,0.106c0.482,0.178,0.938,0.346,1.406,0.461
			c0.117,0.029,0.18,0.035,0.212,0.035l0.013-0.001c0-0.009,0.035-0.058,0.087-0.181c0.091-0.213,0.187-0.422,0.284-0.631
			c0.075-0.161,0.149-0.323,0.221-0.486c0.204-0.465,0.584-0.722,1.07-0.722c0.389,0.02,0.695,0.031,1.002,0.032
			c0.001,0,0.002,0,0.003,0c0.14,0,0.255-0.008,0.371-0.015l0.263-0.015c0.001,0,0.002,0,0.002,0c0.399,0,0.71,0.18,0.916,0.504
			c0.046,0.073,0.085,0.153,0.123,0.234l0.598,1.264c0.023-0.015,0.056-0.014,0.092-0.012c0.092,0,0.196-0.022,0.326-0.069
			l1.338-0.493c0.22-0.08,0.239-0.118,0.172-0.347c-0.093-0.32-0.181-0.643-0.269-0.965l-0.08-0.295
			c-0.13-0.476,0.003-0.909,0.377-1.22c0.375-0.313,0.75-0.624,1.113-0.948c0.392-0.35,0.87-0.422,1.358-0.19
			c0.408,0.191,0.817,0.383,1.229,0.565c0.08,0.035,0.122,0.038,0.133,0.038l0,0c0.004,0,0.042-0.02,0.099-0.118
			c0.286-0.495,0.568-0.991,0.849-1.488c0.071-0.125,0.072-0.176,0.072-0.181l0,0c-0.001,0-0.024-0.046-0.142-0.127
			c-0.371-0.262-0.745-0.517-1.119-0.771c-0.397-0.27-0.572-0.676-0.494-1.146l0.073-0.415c0.053-0.294,0.107-0.588,0.139-0.884
			c0.096-0.865,0.663-1.154,1.121-1.243c0.296-0.059,0.587-0.145,0.879-0.229l0.226-0.065c0.063-0.019,0.1-0.033,0.121-0.043
			c-0.004-0.014-0.004-0.051-0.01-0.11c-0.036-0.354-0.094-0.706-0.152-1.058c-0.04-0.242-0.08-0.485-0.114-0.729
			c-0.023-0.17-0.074-0.177-0.187-0.177c-0.386,0.043-0.685,0.073-1.036,0.108l-0.5,0.05c-0.438,0.03-0.802-0.24-1.035-0.653
			c-0.235-0.416-0.457-0.808-0.694-1.187c-0.303-0.484-0.282-0.981,0.06-1.438c0.208-0.278,0.404-0.566,0.601-0.854l0.125-0.183
			c0.099-0.145,0.104-0.164-0.041-0.295l-1.308-1.083c-0.1-0.082-0.147-0.092-0.151-0.092c0,0-0.046,0.015-0.138,0.106l-0.95,0.958
			c-0.117,0.117-0.601,0.511-1.132,0.328c-0.557-0.19-1.112-0.385-1.662-0.59c-0.383-0.144-0.636-0.479-0.676-0.899
			c-0.046-0.48-0.09-0.961-0.129-1.442c-0.007-0.092-0.029-0.121-0.029-0.122l-0.21-0.001c-0.627,0-1.254,0.01-1.881,0.026
			L11.23,3.991c-0.031,0.384-0.062,0.768-0.083,1.151c-0.042,0.74-0.496,1.05-0.87,1.181C9.833,6.478,9.392,6.644,8.952,6.812
			C8.797,6.87,8.643,6.9,8.494,6.9c-0.218,0-0.543-0.065-0.852-0.378L7.516,6.395C7.236,6.112,6.956,5.83,6.67,5.552
			c-0.059-0.058-0.1-0.07-0.11-0.07c-0.5,0.395-0.94,0.771-1.379,1.147L5.02,6.767c0.005,0.112,0.026,0.15,0.03,0.156
			c0.222,0.331,0.457,0.655,0.692,0.979l0.096,0.132c0.385,0.534,0.289,0.968,0.141,1.237c-0.28,0.511-0.573,1.015-0.869,1.518
			c-0.187,0.315-0.516,0.504-0.883,0.504c-0.569-0.034-1.068-0.08-1.565-0.141c-0.077,0.009-0.188,0.06-0.198,0.123l-0.076,0.503
			C2.326,12.185,2.263,12.591,2.218,13C2.2,13.16,2.205,13.222,2.21,13.244h0c0.011,0,0.062,0.026,0.177,0.053
			c0.345,0.078,0.686,0.168,1.027,0.259l0.249,0.066c0.458,0.122,0.768,0.454,0.851,0.911l0.096,0.55
			c0.053,0.308,0.105,0.615,0.168,0.921c0.077,0.372,0.045,0.899-0.543,1.296c-0.288,0.192-0.57,0.393-0.853,0.592l-0.206,0.146
			c-0.065,0.047-0.136,0.116-0.097,0.185c0.272,0.479,0.553,0.954,0.834,1.43l0.118,0.199c0.107,0.061,0.177,0.045,0.227,0.024
			c0.275-0.123,0.547-0.254,0.819-0.386l0.432-0.207C5.69,19.197,5.869,19.155,6.041,19.155z M12.331,19.118L12.331,19.118
			c-2.988-0.036-5.345-2.451-5.328-5.383s2.385-5.317,5.278-5.317c0.003,0,0.075,0.001,0.079,0.001c1.43,0,2.789,0.574,3.783,1.574
			c1.017,1.024,1.572,2.383,1.563,3.826C17.686,16.741,15.275,19.118,12.331,19.118z M12.282,9.417c-2.305,0-4.265,1.98-4.278,4.323
			c-0.014,2.384,1.9,4.348,4.268,4.377h0c2.456,0,4.418-1.931,4.434-4.305c0.008-1.176-0.444-2.282-1.272-3.115
			c-0.808-0.813-1.909-1.279-3.021-1.279L12.282,9.417z"/>
	</g>
	<path fill="#3A3A3A" d="M22.008,34.215h-3.793c-0.827,0-1.5-0.673-1.5-1.5v-1.131c0-0.827,0.673-1.5,1.5-1.5h3.793
		c0.827,0,1.5,0.673,1.5,1.5v1.131C23.508,33.542,22.835,34.215,22.008,34.215z M18.214,31.084c-0.276,0-0.5,0.225-0.5,0.5v1.131
		c0,0.275,0.224,0.5,0.5,0.5h3.793c0.276,0,0.5-0.225,0.5-0.5v-1.131c0-0.275-0.224-0.5-0.5-0.5H18.214z"/>
</g>
</svg>
