<?xml version="1.0" encoding="utf-8"?>
<!-- Generator: Adobe Illustrator 17.0.0, SVG Export Plug-In . SVG Version: 6.00 Build 0)  -->
<!DOCTYPE svg PUBLIC "-//W3C//DTD SVG 1.1//EN" "http://www.w3.org/Graphics/SVG/1.1/DTD/svg11.dtd">
<svg version="1.1" id="Layer_1" xmlns="http://www.w3.org/2000/svg" xmlns:xlink="http://www.w3.org/1999/xlink" x="0px" y="0px"
	 width="56.479px" height="42px" viewBox="0 0 56.479 42" enable-background="new 0 0 56.479 42" xml:space="preserve">
<g>
	<path fill="#3A3A3A" d="M21.833,23.416H10.801c-1.378,0-2.5-1.121-2.5-2.5V9.857c0-1.379,1.122-2.5,2.5-2.5h11.032
		c1.379,0,2.5,1.121,2.5,2.5v11.059C24.333,22.294,23.212,23.416,21.833,23.416z M10.801,8.357c-0.827,0-1.5,0.673-1.5,1.5v11.059
		c0,0.827,0.673,1.5,1.5,1.5h11.032c0.827,0,1.5-0.673,1.5-1.5V9.857c0-0.827-0.673-1.5-1.5-1.5H10.801z"/>
	<path fill="#3A3A3A" d="M39.016,41.055H27.983c-1.379,0-2.5-1.121-2.5-2.5V27.497c0-1.379,1.121-2.5,2.5-2.5h11.032
		c1.379,0,2.5,1.121,2.5,2.5v11.059C41.516,39.934,40.394,41.055,39.016,41.055z M27.983,25.997c-0.827,0-1.5,0.673-1.5,1.5v11.059
		c0,0.827,0.673,1.5,1.5,1.5h11.032c0.827,0,1.5-0.673,1.5-1.5V27.497c0-0.827-0.673-1.5-1.5-1.5H27.983z"/>
	<path fill="#3A3A3A" d="M21.573,41.055H10.541c-1.378,0-2.5-1.121-2.5-2.5V27.497c0-1.379,1.122-2.5,2.5-2.5h11.032
		c1.379,0,2.5,1.121,2.5,2.5v11.059C24.073,39.934,22.952,41.055,21.573,41.055z M10.541,25.997c-0.827,0-1.5,0.673-1.5,1.5v11.059
		c0,0.827,0.673,1.5,1.5,1.5h11.032c0.827,0,1.5-0.673,1.5-1.5V27.497c0-0.827-0.673-1.5-1.5-1.5H10.541z"/>
	<g id="XMLID_6692_">
		<path fill="#3A3A3A" d="M34.877,22.967c-0.132,0-0.276-0.021-0.452-0.064c-0.522-0.129-1.026-0.314-1.514-0.494l-0.284-0.104
			c-0.536-0.193-0.831-0.771-0.686-1.342c0.122-0.473,0.247-0.944,0.373-1.416c0.023-0.085,0.005-0.102-0.028-0.13
			c-0.42-0.36-0.848-0.711-1.275-1.062c-0.04-0.015-0.073-0.013-0.136,0.017l-0.415,0.199c-0.284,0.138-0.568,0.274-0.857,0.403
			c-0.178,0.078-0.386,0.122-0.586,0.122c-0.4-0.014-0.706-0.21-0.908-0.554l-0.1-0.17c-0.289-0.489-0.578-0.978-0.859-1.472
			c-0.291-0.512-0.131-1.127,0.39-1.495l0.213-0.15c0.287-0.203,0.573-0.405,0.865-0.601c0.142-0.096,0.146-0.146,0.121-0.265
			c-0.066-0.321-0.122-0.646-0.177-0.971l-0.092-0.521c-0.013-0.067-0.027-0.099-0.124-0.124l-0.258-0.068
			c-0.327-0.087-0.652-0.174-0.981-0.249c-1.071-0.241-0.982-1.04-0.944-1.382c0.047-0.419,0.11-0.834,0.175-1.251l0.076-0.508
			c0.084-0.559,0.586-0.979,1.168-0.979c0.021,0,0.12,0.006,0.14,0.009c0.479,0.059,0.959,0.103,1.439,0.133
			c0.316-0.505,0.605-1,0.881-1.503c0.007-0.015,0.005-0.06-0.074-0.169l-0.108-0.15c-0.237-0.328-0.476-0.656-0.7-0.992
			c-0.133-0.199-0.179-0.424-0.202-0.575c-0.054-0.33,0.075-0.658,0.352-0.896l0.118-0.102c0.46-0.394,0.921-0.789,1.391-1.171
			c0.442-0.365,1.053-0.326,1.49,0.1c0.309,0.301,0.612,0.606,0.915,0.912c0.15,0.152,0.193,0.152,0.212,0.152
			c0.027,0,0.063-0.009,0.103-0.023c0.447-0.17,0.897-0.34,1.351-0.498c0.128-0.045,0.189-0.088,0.201-0.292
			c0.023-0.418,0.058-0.835,0.091-1.252l0.009-0.103c0.044-0.552,0.437-0.932,0.978-0.946c0.641-0.016,1.278-0.026,1.918-0.026
			h0.151c0.603,0.003,1.023,0.412,1.074,1.042c0.039,0.477,0.083,0.953,0.129,1.429c0.57,0.26,1.115,0.45,1.662,0.637
			c0.004-0.004,0.038-0.022,0.103-0.087l0.952-0.959c0.507-0.506,1.075-0.539,1.632-0.079l1.252,1.033
			c0.007,0.006,0.086,0.075,0.092,0.081c0.507,0.453,0.58,1.039,0.194,1.601l-0.141,0.206c-0.198,0.29-0.397,0.581-0.608,0.863
			c-0.094,0.126-0.096,0.175-0.013,0.308c0.245,0.393,0.474,0.795,0.701,1.197c0.057,0.099,0.103,0.15,0.13,0.175l0.453-0.046
			c0.342-0.034,0.631-0.063,0.92-0.1c0.779-0.099,1.296,0.317,1.393,1.029c0.032,0.235,0.071,0.471,0.11,0.705
			c0.062,0.371,0.122,0.742,0.159,1.116c0.065,0.649-0.199,1.035-0.833,1.215l-0.22,0.063c-0.319,0.093-0.64,0.186-0.965,0.249
			c-0.214,0.042-0.29,0.102-0.319,0.372c-0.035,0.315-0.092,0.627-0.147,0.939l-0.073,0.415c-0.013,0.076-0.008,0.102,0.069,0.154
			c0.379,0.257,0.757,0.516,1.132,0.778c0.6,0.42,0.727,0.979,0.366,1.618c-0.282,0.5-0.567,0.999-0.854,1.497
			c-0.296,0.511-0.688,0.618-0.965,0.618c-0.171,0-0.352-0.042-0.537-0.124c-0.419-0.185-0.835-0.38-1.25-0.574
			c-0.054-0.025-0.1-0.039-0.133-0.039c-0.016,0-0.056,0-0.134,0.07c-0.374,0.332-0.757,0.651-1.14,0.97
			c-0.064,0.054-0.083,0.08-0.053,0.188l0.081,0.3c0.085,0.314,0.171,0.63,0.263,0.943c0.215,0.737-0.074,1.308-0.791,1.567
			l-1.34,0.495c-0.345,0.126-0.642,0.159-0.954,0.101c-0.407-0.075-0.608-0.328-0.704-0.526l-0.579-1.223
			c-0.043-0.094-0.06-0.135-0.083-0.172l-0.277-0.029c-0.491,0.033-0.963,0.012-1.411-0.015c-0.116,0-0.127,0-0.181,0.123
			c-0.074,0.168-0.151,0.336-0.229,0.503c-0.093,0.2-0.186,0.4-0.271,0.603C35.807,22.392,35.563,22.967,34.877,22.967z
			 M30.979,17.34c0.24,0,0.47,0.083,0.663,0.239c0.435,0.356,0.868,0.713,1.294,1.077c0.338,0.289,0.464,0.709,0.344,1.15
			c-0.125,0.467-0.25,0.935-0.37,1.404c-0.003,0.011-0.028,0.122,0.058,0.152l0.29,0.106c0.482,0.178,0.938,0.347,1.406,0.462
			c0.117,0.029,0.181,0.035,0.213,0.035l0.013-0.001c0-0.009,0.035-0.058,0.087-0.181c0.091-0.213,0.188-0.422,0.284-0.631
			c0.075-0.161,0.149-0.323,0.221-0.486c0.204-0.465,0.584-0.722,1.069-0.722c0.39,0.02,0.696,0.031,1.003,0.032
			c0.158-0.033,0.256-0.008,0.373-0.015l0.265-0.015c0.001,0,0.001,0,0.002,0c0.398,0,0.709,0.18,0.915,0.504
			c0.048,0.073,0.088,0.157,0.126,0.241l0.596,1.258c0.022-0.016,0.058-0.012,0.093-0.013c0.093,0,0.195-0.021,0.323-0.068
			l1.341-0.494c0.219-0.08,0.238-0.119,0.171-0.348c-0.094-0.318-0.181-0.641-0.268-0.962l-0.081-0.297
			c-0.131-0.475,0.003-0.908,0.377-1.22c0.375-0.313,0.75-0.624,1.114-0.948c0.391-0.349,0.867-0.421,1.357-0.19
			c0.408,0.191,0.816,0.383,1.229,0.565c0.08,0.035,0.121,0.038,0.133,0.038l0,0c0.004,0,0.041-0.02,0.099-0.118
			c0.285-0.494,0.568-0.991,0.849-1.488c0.071-0.125,0.072-0.176,0.071-0.181l0,0c-0.001,0-0.024-0.046-0.141-0.127
			c-0.371-0.262-0.745-0.517-1.12-0.771c-0.396-0.271-0.571-0.677-0.493-1.146l0.075-0.429c0.053-0.29,0.105-0.58,0.138-0.872
			c0.095-0.864,0.662-1.153,1.121-1.243c0.296-0.058,0.587-0.144,0.878-0.228l0.227-0.065c0.063-0.019,0.1-0.033,0.12-0.043
			c-0.004-0.014-0.003-0.051-0.009-0.11c-0.036-0.353-0.094-0.702-0.151-1.053c-0.041-0.244-0.081-0.488-0.114-0.733
			c-0.023-0.171-0.074-0.178-0.188-0.178c-0.387,0.043-0.685,0.073-1.036,0.108l-0.5,0.05c-0.456-0.016-0.801-0.239-1.035-0.652
			c-0.237-0.419-0.458-0.81-0.694-1.188c-0.304-0.481-0.283-0.979,0.059-1.437c0.202-0.271,0.394-0.55,0.584-0.829L44.5,5.077
			c0.099-0.144,0.104-0.164-0.041-0.295L43.151,3.7C43.051,3.617,43.003,3.607,43,3.607c0,0.001-0.047,0.015-0.139,0.106
			L41.91,4.671C41.794,4.789,41.307,5.18,40.779,5c-0.558-0.19-1.112-0.385-1.662-0.591c-0.383-0.143-0.636-0.479-0.676-0.898
			c-0.046-0.48-0.09-0.961-0.129-1.442c-0.008-0.091-0.029-0.121-0.029-0.121l-0.2-0.002c-0.631,0-1.262,0.011-1.893,0.026
			l-0.015,0.13c-0.033,0.408-0.066,0.817-0.09,1.228c-0.041,0.739-0.496,1.05-0.87,1.18c-0.444,0.155-0.885,0.321-1.325,0.489
			c-0.154,0.058-0.309,0.088-0.457,0.088c-0.219,0-0.543-0.065-0.853-0.378c-0.368-0.372-0.668-0.674-0.972-0.97
			c-0.059-0.058-0.1-0.07-0.11-0.07c-0.515,0.406-0.969,0.796-1.423,1.185l-0.117,0.101c0.005,0.114,0.027,0.152,0.03,0.156
			c0.218,0.325,0.448,0.644,0.679,0.962l0.108,0.149c0.387,0.532,0.29,0.967,0.141,1.237c-0.278,0.51-0.573,1.015-0.869,1.518
			c-0.184,0.315-0.514,0.504-0.883,0.504c-0.567-0.034-1.067-0.08-1.564-0.141c-0.001,0-0.002,0-0.003,0
			c-0.1,0-0.186,0.061-0.195,0.123l-0.077,0.515c-0.062,0.402-0.124,0.805-0.169,1.21c-0.018,0.159-0.013,0.222-0.008,0.243
			c-0.002-0.001,0.052,0.023,0.179,0.053c0.341,0.077,0.68,0.167,1.018,0.257l0.257,0.068c0.458,0.122,0.768,0.453,0.852,0.91
			l0.094,0.533c0.054,0.313,0.107,0.627,0.171,0.938c0.077,0.374,0.045,0.9-0.543,1.297c-0.286,0.191-0.565,0.389-0.846,0.587
			l-0.213,0.15c-0.065,0.047-0.136,0.116-0.098,0.185c0.278,0.488,0.564,0.973,0.851,1.457l0.102,0.172
			c0.108,0.062,0.178,0.046,0.227,0.024c0.278-0.124,0.553-0.257,0.828-0.39l0.423-0.203C30.629,17.382,30.807,17.34,30.979,17.34z
			 M37.269,17.303C37.269,17.303,37.27,17.303,37.269,17.303c-2.986-0.036-5.344-2.451-5.327-5.383s2.385-5.317,5.278-5.317
			c0.003,0,0.074,0.001,0.077,0.001c0,0,0.001,0,0.002,0c1.43,0,2.789,0.574,3.782,1.574c1.018,1.024,1.572,2.383,1.563,3.826
			C42.625,14.926,40.214,17.303,37.269,17.303z M37.221,7.603c-2.306,0-4.265,1.98-4.278,4.323c-0.014,2.384,1.9,4.348,4.268,4.377
			c0.001,0,0.001,0,0.001,0c2.456,0,4.418-1.931,4.434-4.305c0.008-1.176-0.443-2.282-1.271-3.115
			c-0.808-0.813-1.909-1.279-3.021-1.279L37.221,7.603z"/>
	</g>
</g>
</svg>
