<?xml version="1.0" encoding="utf-8"?>
<!-- Generator: Adobe Illustrator 17.0.0, SVG Export Plug-In . SVG Version: 6.00 Build 0)  -->
<!DOCTYPE svg PUBLIC "-//W3C//DTD SVG 1.1//EN" "http://www.w3.org/Graphics/SVG/1.1/DTD/svg11.dtd">
<svg version="1.1" id="Layer_1" xmlns="http://www.w3.org/2000/svg" xmlns:xlink="http://www.w3.org/1999/xlink" x="0px" y="0px"
	 width="44.25px" height="42px" viewBox="-0.5 0 44.25 42" enable-background="new -0.5 0 44.25 42" xml:space="preserve">
<g id="XMLID_9395_">
	<path fill="#3A3A3A" d="M18.544,30.669c-0.022,0-0.045-0.001-0.068-0.004c-0.136-0.019-0.258-0.092-0.337-0.203L10.93,20.47
		c-0.162-0.224-0.111-0.537,0.113-0.698c0.225-0.162,0.537-0.111,0.698,0.113l6.902,9.565l19.749-15.749
		c0.215-0.172,0.531-0.137,0.703,0.08c0.172,0.216,0.137,0.53-0.08,0.703L18.856,30.56C18.767,30.631,18.657,30.669,18.544,30.669z"
		/>
	<path fill="#3A3A3A" d="M34.348,37.381H6.508c-1.357,0-2.461-1.104-2.461-2.461V7.08c0-1.357,1.104-2.46,2.461-2.46h27.84
		c1.357,0,2.46,1.104,2.46,2.46v3.12c0,0.276-0.224,0.5-0.5,0.5s-0.5-0.224-0.5-0.5V7.08c0-0.805-0.655-1.46-1.46-1.46H6.508
		c-0.806,0-1.461,0.655-1.461,1.46v27.84c0,0.806,0.655,1.461,1.461,1.461h27.84c0.805,0,1.46-0.655,1.46-1.461V21.571
		c0-0.276,0.224-0.5,0.5-0.5s0.5,0.224,0.5,0.5V34.92C36.809,36.277,35.705,37.381,34.348,37.381z"/>
</g>
</svg>
