<?xml version="1.0" encoding="utf-8"?>
<!-- Generator: Adobe Illustrator 17.0.0, SVG Export Plug-In . SVG Version: 6.00 Build 0)  -->
<!DOCTYPE svg PUBLIC "-//W3C//DTD SVG 1.1//EN" "http://www.w3.org/Graphics/SVG/1.1/DTD/svg11.dtd">
<svg version="1.1" id="Layer_1" xmlns="http://www.w3.org/2000/svg" xmlns:xlink="http://www.w3.org/1999/xlink" x="0px" y="0px"
	 width="44.25px" height="42px" viewBox="-0.5 0 44.25 42" enable-background="new -0.5 0 44.25 42" xml:space="preserve">
<g>
	<g id="XMLID_9041_">
		<g id="XMLID_9047_">
			<path id="XMLID_9049_" fill="#3A3A3A" d="M7.516,31.614h14.442c0.363,0,0.657,0.227,0.657,0.508c0,0.281-0.294,0.508-0.657,0.508
				H7.516c-0.363,0-0.657-0.227-0.657-0.508C6.859,31.841,7.152,31.614,7.516,31.614z"/>
			<path id="XMLID_9048_" fill="#3A3A3A" d="M7.516,27.699h14.442c0.363,0,0.657,0.227,0.657,0.508s-0.294,0.508-0.657,0.508H7.516
				c-0.363,0-0.657-0.227-0.657-0.508S7.152,27.699,7.516,27.699z"/>
		</g>
		<g id="XMLID_9042_">
			<path fill="#3A3A3A" d="M14.484,24.766c-0.015,0-0.03,0-0.045-0.002c-0.275-0.025-0.478-0.268-0.453-0.543l1.388-15.463
				c0.025-0.274,0.259-0.479,0.543-0.453c0.275,0.025,0.478,0.268,0.453,0.543l-1.388,15.463
				C14.958,24.571,14.74,24.766,14.484,24.766z"/>
			<path fill="#3A3A3A" d="M15.117,22.684c-0.079,0-0.158-0.001-0.238-0.005c-2.628-0.125-4.144-1.488-4.207-1.546
				c-0.203-0.186-0.217-0.5-0.031-0.705c0.187-0.203,0.502-0.217,0.706-0.034c0.013,0.012,1.331,1.179,3.581,1.286
				c1.156,0.054,2.206-0.39,2.722-1.163c0.378-0.565,0.415-1.24,0.104-1.9c-0.245-0.52-1.391-1.06-2.5-1.582
				c-1.987-0.936-4.46-2.1-4.025-4.273c0.402-1.155,1.078-1.884,2.028-2.235c2.277-0.843,5.308,0.882,5.436,0.956
				c0.239,0.138,0.321,0.444,0.183,0.683c-0.139,0.239-0.445,0.32-0.683,0.184c-0.026-0.015-2.752-1.563-4.591-0.883
				c-0.666,0.247-1.128,0.757-1.411,1.561c-0.243,1.237,1.292,2.07,3.49,3.104c1.385,0.652,2.581,1.215,2.979,2.061
				c0.459,0.976,0.394,2.026-0.178,2.881C17.808,22.079,16.534,22.684,15.117,22.684z"/>
		</g>
	</g>
	<path fill="#3A3A3A" d="M31.594,39.995H4.061c-1.378,0-2.5-1.122-2.5-2.5V4.505c0-1.378,1.122-2.5,2.5-2.5h7.515
		c0.276,0,0.5,0.224,0.5,0.5s-0.224,0.5-0.5,0.5H4.061c-0.827,0-1.5,0.673-1.5,1.5v32.991c0,0.827,0.673,1.5,1.5,1.5h27.533
		c0.827,0,1.5-0.673,1.5-1.5c0-0.276,0.224-0.5,0.5-0.5s0.5,0.224,0.5,0.5C34.094,38.874,32.972,39.995,31.594,39.995z"/>
	<path fill="#3A3A3A" d="M33.594,17.19c-0.276,0-0.5-0.224-0.5-0.5V4.505c0-0.827-0.673-1.5-1.5-1.5H10.029
		c-0.276,0-0.5-0.224-0.5-0.5s0.224-0.5,0.5-0.5h21.564c1.378,0,2.5,1.122,2.5,2.5V16.69C34.094,16.966,33.87,17.19,33.594,17.19z"
		/>
	<path id="XMLID_7465_" fill="#3A3A3A" d="M33.63,35.824c-4.445,0-8.061-3.616-8.061-8.06s3.616-8.06,8.061-8.06
		c4.444,0,8.06,3.616,8.06,8.06S38.074,35.824,33.63,35.824z M33.63,20.674c-3.91,0-7.091,3.181-7.091,7.09s3.181,7.09,7.091,7.09
		c3.909,0,7.09-3.181,7.09-7.09S37.539,20.674,33.63,20.674z"/>
	<g id="XMLID_7207_">
		<path id="XMLID_7211_" fill="#3A3A3A" d="M33.63,32.112c-0.268,0-0.485-0.217-0.485-0.485v-7.725c0-0.268,0.217-0.485,0.485-0.485
			c0.268,0,0.485,0.217,0.485,0.485v7.725C34.114,31.895,33.898,32.112,33.63,32.112z"/>
		<path id="XMLID_7209_" fill="#3A3A3A" d="M37.491,28.249h-7.725c-0.268,0-0.485-0.217-0.485-0.485
			c0-0.268,0.217-0.485,0.485-0.485h7.725c0.268,0,0.485,0.217,0.485,0.485C37.976,28.032,37.759,28.249,37.491,28.249z"/>
	</g>
</g>
</svg>
