<?xml version="1.0" encoding="utf-8"?>
<!-- Generator: Adobe Illustrator 17.0.0, SVG Export Plug-In . SVG Version: 6.00 Build 0)  -->
<!DOCTYPE svg PUBLIC "-//W3C//DTD SVG 1.1//EN" "http://www.w3.org/Graphics/SVG/1.1/DTD/svg11.dtd">
<svg version="1.1" id="Layer_1" xmlns="http://www.w3.org/2000/svg" xmlns:xlink="http://www.w3.org/1999/xlink" x="0px" y="0px"
	 width="44.25px" height="42px" viewBox="-0.5 0 44.25 42" enable-background="new -0.5 0 44.25 42" xml:space="preserve">
<g id="XMLID_9050_">
	<g id="XMLID_9052_">
		<g id="XMLID_9369_">
			<g id="XMLID_9370_">
				<path id="XMLID_9374_" fill="#3A3A3A" d="M10.904,31.523h21.442c0.363,0,0.657,0.227,0.657,0.508s-0.294,0.508-0.657,0.508
					H10.904c-0.363,0-0.657-0.227-0.657-0.508S10.541,31.523,10.904,31.523z"/>
				<path id="XMLID_9373_" fill="#3A3A3A" d="M10.904,27.608h21.442c0.363,0,0.657,0.227,0.657,0.508s-0.294,0.508-0.657,0.508
					H10.904c-0.363,0-0.657-0.227-0.657-0.508S10.541,27.608,10.904,27.608z"/>
			</g>
		</g>
		<g id="XMLID_9358_">
			<g id="XMLID_9361_">
				<path id="XMLID_9366_" fill="#3A3A3A" d="M10.663,22.698h13.588c0.23,0,0.416,0.227,0.416,0.508s-0.186,0.508-0.416,0.508
					H10.663c-0.23,0-0.416-0.227-0.416-0.508S10.433,22.698,10.663,22.698z"/>
				<path id="XMLID_9362_" fill="#3A3A3A" d="M10.663,18.783h13.588c0.23,0,0.416,0.227,0.416,0.508
					c0,0.281-0.186,0.508-0.416,0.508H10.663c-0.23,0-0.416-0.227-0.416-0.508C10.247,19.01,10.433,18.783,10.663,18.783z"/>
			</g>
		</g>
		<g id="XMLID_9053_">
			<g id="XMLID_9054_">
				<path id="XMLID_9337_" fill="#3A3A3A" d="M18.999,13.377h13.588c0.23,0,0.416,0.227,0.416,0.508
					c0,0.281-0.186,0.508-0.416,0.508H18.999c-0.23,0-0.416-0.227-0.416-0.508C18.582,13.604,18.768,13.377,18.999,13.377z"/>
				<path id="XMLID_9308_" fill="#3A3A3A" d="M18.999,9.462h13.588c0.23,0,0.416,0.227,0.416,0.508s-0.186,0.508-0.416,0.508H18.999
					c-0.23,0-0.416-0.227-0.416-0.508S18.768,9.462,18.999,9.462z"/>
			</g>
		</g>
	</g>
	<path fill="#3A3A3A" d="M35.392,39.995H7.858c-1.378,0-2.5-1.122-2.5-2.5V4.505c0-1.378,1.122-2.5,2.5-2.5h27.533
		c1.378,0,2.5,1.122,2.5,2.5v32.991C37.892,38.874,36.77,39.995,35.392,39.995z M7.858,3.005c-0.827,0-1.5,0.673-1.5,1.5v32.991
		c0,0.827,0.673,1.5,1.5,1.5h27.533c0.827,0,1.5-0.673,1.5-1.5V4.505c0-0.827-0.673-1.5-1.5-1.5H7.858z"/>
</g>
</svg>
