<?xml version="1.0" encoding="utf-8"?>
<!-- Generator: Adobe Illustrator 17.0.0, SVG Export Plug-In . SVG Version: 6.00 Build 0)  -->
<!DOCTYPE svg PUBLIC "-//W3C//DTD SVG 1.1//EN" "http://www.w3.org/Graphics/SVG/1.1/DTD/svg11.dtd">
<svg version="1.1" id="Layer_1" xmlns="http://www.w3.org/2000/svg" xmlns:xlink="http://www.w3.org/1999/xlink" x="0px" y="0px"
	 width="44.25px" height="42px" viewBox="-0.5 0 44.25 42" enable-background="new -0.5 0 44.25 42" xml:space="preserve">
<g id="XMLID_6768_">
	<g id="XMLID_7197_">
		<g id="XMLID_7199_">
			<path id="XMLID_7201_" fill="#3A3A3A" d="M19.337,8.365h18.182c0.308,0,0.557,0.201,0.557,0.449s-0.249,0.449-0.557,0.449H19.337
				c-0.308,0-0.557-0.201-0.557-0.449S19.029,8.365,19.337,8.365z"/>
			<path id="XMLID_7200_" fill="#3A3A3A" d="M19.337,4.905h18.182c0.308,0,0.557,0.201,0.557,0.449s-0.249,0.449-0.557,0.449H19.337
				c-0.308,0-0.557-0.201-0.557-0.449S19.029,4.905,19.337,4.905z"/>
		</g>
	</g>
	<path fill="#3A3A3A" d="M13.064,12.407h-5.39c-1.378,0-2.5-1.122-2.5-2.5V4.5c0-1.378,1.122-2.5,2.5-2.5h5.39
		c1.379,0,2.5,1.122,2.5,2.5v5.407C15.564,11.286,14.443,12.407,13.064,12.407z M7.674,3c-0.827,0-1.5,0.673-1.5,1.5v5.407
		c0,0.827,0.673,1.5,1.5,1.5h5.39c0.827,0,1.5-0.673,1.5-1.5V4.5c0-0.827-0.673-1.5-1.5-1.5H7.674z"/>
	<g id="XMLID_7152_">
		<g id="XMLID_7153_">
			<path id="XMLID_7160_" fill="#3A3A3A" d="M19.337,22.161h18.182c0.308,0,0.557,0.201,0.557,0.449s-0.249,0.449-0.557,0.449
				H19.337c-0.308,0-0.557-0.201-0.557-0.449S19.029,22.161,19.337,22.161z"/>
			<path id="XMLID_7157_" fill="#3A3A3A" d="M19.337,18.701h18.182c0.308,0,0.557,0.201,0.557,0.449s-0.249,0.449-0.557,0.449
				H19.337c-0.308,0-0.557-0.201-0.557-0.449S19.029,18.701,19.337,18.701z"/>
		</g>
	</g>
	<path fill="#3A3A3A" d="M13.064,26.204h-5.39c-1.378,0-2.5-1.122-2.5-2.5v-5.407c0-1.378,1.122-2.5,2.5-2.5h5.39
		c1.379,0,2.5,1.122,2.5,2.5v5.407C15.564,25.082,14.443,26.204,13.064,26.204z M7.674,16.797c-0.827,0-1.5,0.673-1.5,1.5v5.407
		c0,0.827,0.673,1.5,1.5,1.5h5.39c0.827,0,1.5-0.673,1.5-1.5v-5.407c0-0.827-0.673-1.5-1.5-1.5H7.674z"/>
	<g id="XMLID_6792_">
		<g id="XMLID_6794_">
			<path id="XMLID_6818_" fill="#3A3A3A" d="M19.337,35.958h18.182c0.308,0,0.557,0.201,0.557,0.449s-0.249,0.449-0.557,0.449
				H19.337c-0.308,0-0.557-0.201-0.557-0.449S19.029,35.958,19.337,35.958z"/>
			<path id="XMLID_6797_" fill="#3A3A3A" d="M19.337,32.498h18.182c0.308,0,0.557,0.201,0.557,0.449s-0.249,0.449-0.557,0.449
				H19.337c-0.308,0-0.557-0.201-0.557-0.449S19.029,32.498,19.337,32.498z"/>
		</g>
	</g>
	<path fill="#3A3A3A" d="M13.064,40h-5.39c-1.378,0-2.5-1.122-2.5-2.5v-5.407c0-1.378,1.122-2.5,2.5-2.5h5.39
		c1.379,0,2.5,1.122,2.5,2.5V37.5C15.564,38.878,14.443,40,13.064,40z M7.674,30.593c-0.827,0-1.5,0.673-1.5,1.5V37.5
		c0,0.827,0.673,1.5,1.5,1.5h5.39c0.827,0,1.5-0.673,1.5-1.5v-5.407c0-0.827-0.673-1.5-1.5-1.5H7.674z"/>
</g>
</svg>
