<?xml version="1.0" encoding="utf-8"?>
<!-- Generator: Adobe Illustrator 17.0.0, SVG Export Plug-In . SVG Version: 6.00 Build 0)  -->
<!DOCTYPE svg PUBLIC "-//W3C//DTD SVG 1.1//EN" "http://www.w3.org/Graphics/SVG/1.1/DTD/svg11.dtd">
<svg version="1.1" id="Layer_1" xmlns="http://www.w3.org/2000/svg" xmlns:xlink="http://www.w3.org/1999/xlink" x="0px" y="0px"
	 width="44.25px" height="42px" viewBox="-0.5 0 44.25 42" enable-background="new -0.5 0 44.25 42" xml:space="preserve">
<g id="XMLID_9377_">
	<g id="XMLID_9387_">
		<g id="XMLID_9390_">
			<path id="XMLID_9394_" fill="#3A3A3A" d="M10.904,30.09h21.442c0.363,0,0.657,0.227,0.657,0.508s-0.294,0.508-0.657,0.508H10.904
				c-0.363,0-0.657-0.227-0.657-0.508S10.541,30.09,10.904,30.09z"/>
			<path id="XMLID_9391_" fill="#3A3A3A" d="M10.904,26.175h21.442c0.363,0,0.657,0.227,0.657,0.508s-0.294,0.508-0.657,0.508
				H10.904c-0.363,0-0.657-0.227-0.657-0.508S10.541,26.175,10.904,26.175z"/>
		</g>
	</g>
	<path fill="#3A3A3A" d="M35.392,39.995H7.858c-1.379,0-2.5-1.122-2.5-2.5V4.505c0-1.378,1.121-2.5,2.5-2.5h27.533
		c1.379,0,2.5,1.122,2.5,2.5v32.991C37.892,38.874,36.771,39.995,35.392,39.995z M7.858,3.005c-0.827,0-1.5,0.673-1.5,1.5v32.991
		c0,0.827,0.673,1.5,1.5,1.5h27.533c0.827,0,1.5-0.673,1.5-1.5V4.505c0-0.827-0.673-1.5-1.5-1.5H7.858z"/>
	<g id="XMLID_9378_">
		<path fill="#3A3A3A" d="M21.373,23.242c-0.016,0-0.03,0-0.046-0.002c-0.274-0.025-0.478-0.268-0.453-0.543l1.388-15.463
			c0.024-0.276,0.269-0.483,0.543-0.453c0.274,0.025,0.478,0.268,0.453,0.543L21.87,22.787
			C21.847,23.047,21.629,23.242,21.373,23.242z"/>
		<path fill="#3A3A3A" d="M22.006,21.16c-0.079,0-0.158-0.002-0.238-0.006c-2.629-0.125-4.144-1.489-4.207-1.546
			c-0.203-0.187-0.217-0.501-0.031-0.705c0.186-0.202,0.502-0.218,0.706-0.034c0.013,0.012,1.33,1.179,3.579,1.286
			c1.163,0.054,2.206-0.39,2.723-1.162c0.378-0.565,0.415-1.24,0.104-1.9c-0.245-0.52-1.392-1.06-2.5-1.582
			c-1.987-0.936-4.46-2.1-4.025-4.273c0.402-1.155,1.078-1.884,2.027-2.234c2.285-0.842,5.309,0.883,5.437,0.956
			c0.239,0.138,0.321,0.444,0.183,0.683c-0.137,0.239-0.44,0.322-0.683,0.184c-0.027-0.015-2.749-1.564-4.592-0.884
			c-0.665,0.247-1.127,0.757-1.41,1.561c-0.242,1.237,1.292,2.07,3.489,3.104c1.385,0.652,2.581,1.215,2.979,2.061
			c0.46,0.976,0.395,2.025-0.177,2.881C24.696,20.555,23.423,21.16,22.006,21.16z"/>
	</g>
</g>
</svg>
