<?xml version="1.0" encoding="utf-8"?>
<!-- Generator: Adobe Illustrator 17.0.0, SVG Export Plug-In . SVG Version: 6.00 Build 0)  -->
<!DOCTYPE svg PUBLIC "-//W3C//DTD SVG 1.1//EN" "http://www.w3.org/Graphics/SVG/1.1/DTD/svg11.dtd">
<svg version="1.1" id="Layer_1" xmlns="http://www.w3.org/2000/svg" xmlns:xlink="http://www.w3.org/1999/xlink" x="0px" y="0px"
	 width="44.25px" height="42px" viewBox="-0.5 0 44.25 42" enable-background="new -0.5 0 44.25 42" xml:space="preserve">
<g id="XMLID_5852_">
	<path fill="#3A3A3A" d="M17.271,18.395H7.989c-1.379,0-2.5-1.122-2.5-2.5V6.589c0-1.378,1.121-2.5,2.5-2.5h9.282
		c1.379,0,2.5,1.122,2.5,2.5v9.306C19.771,17.274,18.65,18.395,17.271,18.395z M7.989,5.089c-0.827,0-1.5,0.673-1.5,1.5v9.306
		c0,0.827,0.673,1.5,1.5,1.5h9.282c0.827,0,1.5-0.673,1.5-1.5V6.589c0-0.827-0.673-1.5-1.5-1.5H7.989z"/>
	<path fill="#3A3A3A" d="M17.271,37.911H7.989c-1.379,0-2.5-1.122-2.5-2.5v-9.306c0-1.378,1.121-2.5,2.5-2.5h9.282
		c1.379,0,2.5,1.122,2.5,2.5v9.306C19.771,36.789,18.65,37.911,17.271,37.911z M7.989,24.605c-0.827,0-1.5,0.673-1.5,1.5v9.306
		c0,0.827,0.673,1.5,1.5,1.5h9.282c0.827,0,1.5-0.673,1.5-1.5v-9.306c0-0.827-0.673-1.5-1.5-1.5H7.989z"/>
	<path fill="#3A3A3A" d="M35.261,18.395h-9.282c-1.379,0-2.5-1.122-2.5-2.5V6.589c0-1.378,1.121-2.5,2.5-2.5h9.282
		c1.379,0,2.5,1.122,2.5,2.5v9.306C37.761,17.274,36.64,18.395,35.261,18.395z M25.979,5.089c-0.827,0-1.5,0.673-1.5,1.5v9.306
		c0,0.827,0.673,1.5,1.5,1.5h9.282c0.827,0,1.5-0.673,1.5-1.5V6.589c0-0.827-0.673-1.5-1.5-1.5H25.979z"/>
	<path fill="#3A3A3A" d="M35.261,37.911h-9.282c-1.379,0-2.5-1.122-2.5-2.5v-9.306c0-1.378,1.121-2.5,2.5-2.5h9.282
		c1.379,0,2.5,1.122,2.5,2.5v9.306C37.761,36.789,36.64,37.911,35.261,37.911z M25.979,24.605c-0.827,0-1.5,0.673-1.5,1.5v9.306
		c0,0.827,0.673,1.5,1.5,1.5h9.282c0.827,0,1.5-0.673,1.5-1.5v-9.306c0-0.827-0.673-1.5-1.5-1.5H25.979z"/>
</g>
</svg>
