<?xml version="1.0" encoding="utf-8"?>
<!-- Generator: Adobe Illustrator 17.0.0, SVG Export Plug-In . SVG Version: 6.00 Build 0)  -->
<!DOCTYPE svg PUBLIC "-//W3C//DTD SVG 1.1//EN" "http://www.w3.org/Graphics/SVG/1.1/DTD/svg11.dtd">
<svg version="1.1" id="Layer_1" xmlns="http://www.w3.org/2000/svg" xmlns:xlink="http://www.w3.org/1999/xlink" x="0px" y="0px"
	 width="44.25px" height="42px" viewBox="-0.5 0 44.25 42" enable-background="new -0.5 0 44.25 42" xml:space="preserve">
<g id="XMLID_7959_">
	<g id="XMLID_9030_">
		<g id="XMLID_9037_">
			<g id="XMLID_9038_">
				<path id="XMLID_9040_" fill="#3A3A3A" d="M9.899,31.265h19.2c0.325,0,0.588,0.203,0.588,0.454s-0.263,0.454-0.588,0.454h-19.2
					c-0.325,0-0.588-0.203-0.588-0.454S9.574,31.265,9.899,31.265z"/>
				<path id="XMLID_9039_" fill="#3A3A3A" d="M9.899,27.76h19.2c0.325,0,0.588,0.203,0.588,0.454c0,0.251-0.263,0.454-0.588,0.454
					h-19.2c-0.325,0-0.588-0.203-0.588-0.454C9.31,27.963,9.574,27.76,9.899,27.76z"/>
			</g>
		</g>
		<path fill="#3A3A3A" d="M31.617,40.188H7.381c-1.379,0-2.5-1.122-2.5-2.5V8.564c0-1.378,1.121-2.5,2.5-2.5h24.235
			c1.379,0,2.5,1.122,2.5,2.5v29.123C34.117,39.066,32.996,40.188,31.617,40.188z M7.381,7.064c-0.827,0-1.5,0.673-1.5,1.5v29.123
			c0,0.827,0.673,1.5,1.5,1.5h24.235c0.827,0,1.5-0.673,1.5-1.5V8.564c0-0.827-0.673-1.5-1.5-1.5H7.381z"/>
		<g id="XMLID_9031_">
			<path fill="#3A3A3A" d="M19.273,25.186c-0.016,0-0.03,0-0.046-0.002c-0.274-0.025-0.478-0.268-0.453-0.543l1.243-13.846
				c0.024-0.276,0.265-0.485,0.543-0.453c0.274,0.025,0.478,0.268,0.453,0.543L19.77,24.73
				C19.747,24.99,19.529,25.186,19.273,25.186z"/>
			<path fill="#3A3A3A" d="M19.839,23.321c-0.071,0-0.144-0.001-0.216-0.005c-2.371-0.113-3.742-1.346-3.8-1.398
				c-0.203-0.187-0.217-0.503-0.03-0.707c0.188-0.203,0.504-0.216,0.706-0.031c0.01,0.009,1.178,1.042,3.171,1.137
				c1.028,0.054,1.94-0.341,2.393-1.017c0.328-0.491,0.359-1.077,0.09-1.65c-0.211-0.448-1.275-0.949-2.214-1.391
				c-1.796-0.845-4.031-1.897-3.634-3.884c0.367-1.057,0.983-1.72,1.85-2.04c2.067-0.763,4.796,0.794,4.911,0.86
				c0.239,0.138,0.321,0.444,0.183,0.683c-0.136,0.239-0.441,0.322-0.683,0.184c-0.023-0.014-2.439-1.39-4.066-0.787
				c-0.581,0.215-0.984,0.662-1.232,1.366c-0.208,1.063,1.152,1.799,3.098,2.715c1.249,0.588,2.328,1.096,2.692,1.87
				c0.419,0.891,0.359,1.85-0.163,2.632C22.282,22.771,21.125,23.321,19.839,23.321z"/>
		</g>
	</g>
	<g id="XMLID_9028_">
		<path fill="#3A3A3A" d="M36.078,35.935c-0.276,0-0.5-0.224-0.5-0.5s0.224-0.5,0.5-0.5c0.712,0,1.291-0.579,1.291-1.291V4.103
			c0-0.711-0.579-1.291-1.291-1.291H11.423c-0.711,0-1.29,0.579-1.29,1.291c0,0.276-0.224,0.5-0.5,0.5s-0.5-0.224-0.5-0.5
			c0-1.263,1.027-2.291,2.29-2.291h24.654c1.264,0,2.291,1.027,2.291,2.291v29.542C38.369,34.908,37.341,35.935,36.078,35.935z"/>
	</g>
</g>
</svg>
