<?xml version="1.0" encoding="utf-8"?>
<!-- Generator: Adobe Illustrator 17.0.0, SVG Export Plug-In . SVG Version: 6.00 Build 0)  -->
<!DOCTYPE svg PUBLIC "-//W3C//DTD SVG 1.1//EN" "http://www.w3.org/Graphics/SVG/1.1/DTD/svg11.dtd">
<svg version="1.1" id="Layer_1" xmlns="http://www.w3.org/2000/svg" xmlns:xlink="http://www.w3.org/1999/xlink" x="0px" y="0px"
	 width="43.75px" height="42px" viewBox="0 0 43.75 42" enable-background="new 0 0 43.75 42" xml:space="preserve">
<g id="XMLID_9198_">
	<path fill="#3A3A3A" d="M31.844,41.326H4.311c-1.378,0-2.5-1.122-2.5-2.5V5.834c0-1.378,1.122-2.5,2.5-2.5h7.515
		c0.276,0,0.5,0.224,0.5,0.5s-0.224,0.5-0.5,0.5H4.311c-0.827,0-1.5,0.673-1.5,1.5v32.991c0,0.827,0.673,1.5,1.5,1.5h27.533
		c0.827,0,1.5-0.673,1.5-1.5c0-0.276,0.224-0.5,0.5-0.5s0.5,0.224,0.5,0.5C34.344,40.204,33.222,41.326,31.844,41.326z"/>
	<path fill="#3A3A3A" d="M33.844,18.52c-0.276,0-0.5-0.224-0.5-0.5V5.834c0-0.827-0.673-1.5-1.5-1.5h-7.626
		c-0.276,0-0.5-0.224-0.5-0.5s0.224-0.5,0.5-0.5h7.626c1.378,0,2.5,1.122,2.5,2.5V18.02C34.344,18.296,34.12,18.52,33.844,18.52z"/>
	<path fill="#3A3A3A" d="M24.066,7.197H12.088c-0.276,0-0.5-0.224-0.5-0.5V1.174c0-0.276,0.224-0.5,0.5-0.5h11.978
		c0.276,0,0.5,0.224,0.5,0.5v5.522C24.566,6.973,24.342,7.197,24.066,7.197z M12.588,6.197h10.978V1.674H12.588V6.197z"/>
	<path id="XMLID_9264_" fill="#3A3A3A" d="M33.88,37.154c-4.445,0-8.061-3.616-8.061-8.06s3.616-8.06,8.061-8.06
		c4.444,0,8.06,3.616,8.06,8.06S38.324,37.154,33.88,37.154z M33.88,22.004c-3.91,0-7.091,3.181-7.091,7.09s3.181,7.09,7.091,7.09
		c3.909,0,7.09-3.181,7.09-7.09S37.789,22.004,33.88,22.004z"/>
	<g id="XMLID_9216_">
		<path id="XMLID_9263_" fill="#3A3A3A" d="M33.88,33.441c-0.268,0-0.485-0.217-0.485-0.485v-7.725c0-0.268,0.217-0.485,0.485-0.485
			s0.485,0.217,0.485,0.485v7.725C34.364,33.225,34.148,33.441,33.88,33.441z"/>
		<path id="XMLID_9217_" fill="#3A3A3A" d="M37.741,29.579h-7.725c-0.268,0-0.485-0.217-0.485-0.485
			c0-0.268,0.217-0.485,0.485-0.485h7.725c0.268,0,0.485,0.217,0.485,0.485C38.226,29.362,38.009,29.579,37.741,29.579z"/>
	</g>
	<g id="XMLID_9207_">
		<g id="XMLID_9211_">
			<path id="XMLID_9214_" fill="#3A3A3A" d="M22.736,25.95H6.177c-0.281,0-0.508-0.227-0.508-0.508s0.227-0.508,0.508-0.508h16.559
				c0.281,0,0.508,0.227,0.508,0.508S23.016,25.95,22.736,25.95z"/>
			<path id="XMLID_9213_" fill="#3A3A3A" d="M22.736,29.865H6.177c-0.281,0-0.508-0.227-0.508-0.508s0.227-0.508,0.508-0.508h16.559
				c0.281,0,0.508,0.227,0.508,0.508S23.016,29.865,22.736,29.865z"/>
			<path id="XMLID_9212_" fill="#3A3A3A" d="M22.736,33.779H6.177c-0.281,0-0.508-0.227-0.508-0.508s0.227-0.508,0.508-0.508h16.559
				c0.281,0,0.508,0.227,0.508,0.508S23.016,33.779,22.736,33.779z"/>
		</g>
	</g>
	<g id="XMLID_9199_">
		<g id="XMLID_9200_">
			<path id="XMLID_9206_" fill="#3A3A3A" d="M22.736,14.008H6.177c-0.281,0-0.508-0.227-0.508-0.508
				c0-0.281,0.227-0.508,0.508-0.508h16.559c0.281,0,0.508,0.227,0.508,0.508C23.243,13.781,23.016,14.008,22.736,14.008z"/>
			<path id="XMLID_9204_" fill="#3A3A3A" d="M22.736,17.922H6.177c-0.281,0-0.508-0.227-0.508-0.508s0.227-0.508,0.508-0.508h16.559
				c0.281,0,0.508,0.227,0.508,0.508S23.016,17.922,22.736,17.922z"/>
			<path id="XMLID_9203_" fill="#3A3A3A" d="M22.736,21.837H6.177c-0.281,0-0.508-0.227-0.508-0.508
				c0-0.281,0.227-0.508,0.508-0.508h16.559c0.281,0,0.508,0.227,0.508,0.508C23.243,21.61,23.016,21.837,22.736,21.837z"/>
		</g>
	</g>
</g>
</svg>
