<?xml version="1.0" encoding="utf-8"?>
<!-- Generator: Adobe Illustrator 17.0.0, SVG Export Plug-In . SVG Version: 6.00 Build 0)  -->
<!DOCTYPE svg PUBLIC "-//W3C//DTD SVG 1.1//EN" "http://www.w3.org/Graphics/SVG/1.1/DTD/svg11.dtd">
<svg version="1.1" id="Layer_1" xmlns="http://www.w3.org/2000/svg" xmlns:xlink="http://www.w3.org/1999/xlink" x="0px" y="0px"
	 width="44.25px" height="42px" viewBox="-0.5 0 44.25 42" enable-background="new -0.5 0 44.25 42" xml:space="preserve">
<g id="XMLID_9022_">
	<path fill="#3A3A3A" d="M29.685,41.326H2.152c-1.378,0-2.5-1.122-2.5-2.5V5.834c0-1.378,1.122-2.5,2.5-2.5h7.516
		c0.276,0,0.5,0.224,0.5,0.5s-0.224,0.5-0.5,0.5H2.152c-0.827,0-1.5,0.673-1.5,1.5v32.991c0,0.827,0.673,1.5,1.5,1.5h27.533
		c0.827,0,1.5-0.673,1.5-1.5c0-0.276,0.224-0.5,0.5-0.5s0.5,0.224,0.5,0.5C32.185,40.204,31.063,41.326,29.685,41.326z"/>
	<path fill="#3A3A3A" d="M31.685,18.52c-0.276,0-0.5-0.224-0.5-0.5V5.834c0-0.827-0.673-1.5-1.5-1.5h-7.626
		c-0.276,0-0.5-0.224-0.5-0.5s0.224-0.5,0.5-0.5h7.626c1.378,0,2.5,1.122,2.5,2.5V18.02C32.185,18.296,31.961,18.52,31.685,18.52z"
		/>
	<path fill="#3A3A3A" d="M21.907,7.197H9.93c-0.276,0-0.5-0.224-0.5-0.5V1.174c0-0.276,0.224-0.5,0.5-0.5h11.978
		c0.276,0,0.5,0.224,0.5,0.5v5.522C22.407,6.973,22.184,7.197,21.907,7.197z M10.43,6.197h10.978V1.674H10.43V6.197z"/>
	<g id="XMLID_9070_">
		<g id="XMLID_9071_">
			<path id="XMLID_9096_" fill="#3A3A3A" d="M17.577,25.95H4.018c-0.281,0-0.508-0.227-0.508-0.508s0.227-0.508,0.508-0.508h13.559
				c0.281,0,0.508,0.227,0.508,0.508S17.858,25.95,17.577,25.95z"/>
			<path id="XMLID_9095_" fill="#3A3A3A" d="M17.577,29.865H4.018c-0.281,0-0.508-0.227-0.508-0.508
				c0-0.281,0.227-0.508,0.508-0.508h13.559c0.281,0,0.508,0.227,0.508,0.508C18.085,29.638,17.858,29.865,17.577,29.865z"/>
			<path id="XMLID_9094_" fill="#3A3A3A" d="M17.577,33.779H4.018c-0.281,0-0.508-0.227-0.508-0.508s0.227-0.508,0.508-0.508h13.559
				c0.281,0,0.508,0.227,0.508,0.508S17.858,33.779,17.577,33.779z"/>
		</g>
	</g>
	<g id="XMLID_9026_">
		<path fill="#3A3A3A" d="M32.598,35.738c-5.982,0-10.705-6.311-10.902-6.579c-0.13-0.177-0.13-0.417,0-0.594
			c0.198-0.269,4.92-6.579,10.902-6.579s10.705,6.311,10.902,6.579c0.13,0.177,0.13,0.417,0,0.594
			C43.303,29.428,38.581,35.738,32.598,35.738z M22.734,28.862c1.001,1.232,5.092,5.876,9.864,5.876s8.863-4.644,9.864-5.876
			c-1.001-1.232-5.092-5.876-9.864-5.876S23.735,27.63,22.734,28.862z"/>
		<path fill="#3A3A3A" d="M32.598,33.673c-2.665,0-4.833-2.158-4.833-4.811s2.168-4.81,4.833-4.81s4.833,2.158,4.833,4.81
			S35.263,33.673,32.598,33.673z M32.598,25.052c-2.114,0-3.833,1.709-3.833,3.81s1.72,3.811,3.833,3.811s3.833-1.709,3.833-3.811
			S34.712,25.052,32.598,25.052z"/>
	</g>
	<path fill="#3A3A3A" d="M8.362,21.837c-0.023,0-0.046-0.001-0.069-0.005c-0.136-0.019-0.257-0.092-0.337-0.204l-3.517-4.897
		c-0.161-0.224-0.11-0.537,0.115-0.698c0.224-0.162,0.536-0.11,0.698,0.115l3.21,4.471l9.471-7.519
		c0.216-0.172,0.531-0.135,0.703,0.081c0.172,0.216,0.136,0.531-0.081,0.703l-9.882,7.845C8.584,21.8,8.474,21.837,8.362,21.837z"/>
</g>
</svg>
