<?xml version="1.0" encoding="utf-8"?>
<!-- Generator: Adobe Illustrator 17.0.0, SVG Export Plug-In . SVG Version: 6.00 Build 0)  -->
<!DOCTYPE svg PUBLIC "-//W3C//DTD SVG 1.1//EN" "http://www.w3.org/Graphics/SVG/1.1/DTD/svg11.dtd">
<svg version="1.1" id="Layer_1" xmlns="http://www.w3.org/2000/svg" xmlns:xlink="http://www.w3.org/1999/xlink" x="0px" y="0px"
	 width="44.25px" height="42px" viewBox="-0.5 0 44.25 42" enable-background="new -0.5 0 44.25 42" xml:space="preserve">
<g id="XMLID_9281_">
	<g id="XMLID_9289_">
		<g id="XMLID_9291_">
			<path id="XMLID_9293_" fill="#3A3A3A" d="M10.904,30.09h21.442c0.363,0,0.657,0.227,0.657,0.508s-0.294,0.508-0.657,0.508H10.904
				c-0.363,0-0.657-0.227-0.657-0.508S10.541,30.09,10.904,30.09z"/>
			<path id="XMLID_9292_" fill="#3A3A3A" d="M10.904,26.175h21.442c0.363,0,0.657,0.227,0.657,0.508s-0.294,0.508-0.657,0.508
				H10.904c-0.363,0-0.657-0.227-0.657-0.508S10.541,26.175,10.904,26.175z"/>
		</g>
	</g>
	<path fill="#3A3A3A" d="M35.392,39.996H7.858c-1.378,0-2.5-1.122-2.5-2.5V4.504c0-1.378,1.122-2.5,2.5-2.5h27.533
		c1.378,0,2.5,1.122,2.5,2.5v32.991C37.892,38.874,36.77,39.996,35.392,39.996z M7.858,3.004c-0.827,0-1.5,0.673-1.5,1.5v32.991
		c0,0.827,0.673,1.5,1.5,1.5h27.533c0.827,0,1.5-0.673,1.5-1.5V4.504c0-0.827-0.673-1.5-1.5-1.5H7.858z"/>
	<path fill="#3A3A3A" d="M27.797,19.055c-0.276,0-0.5-0.224-0.5-0.5v-6.957c0-0.276,0.224-0.5,0.5-0.5s0.5,0.224,0.5,0.5v6.957
		C28.297,18.831,28.073,19.055,27.797,19.055z"/>
	<path fill="#3A3A3A" d="M31.275,15.576h-6.957c-0.276,0-0.5-0.224-0.5-0.5s0.224-0.5,0.5-0.5h6.957c0.276,0,0.5,0.224,0.5,0.5
		S31.552,15.576,31.275,15.576z"/>
	<path fill="#3A3A3A" d="M14.034,20.492c-0.062,0-0.124-0.011-0.184-0.035c-0.257-0.102-0.382-0.392-0.281-0.649l4.159-10.511
		c0.074-0.188,0.255-0.313,0.458-0.316c0.207-0.023,0.387,0.116,0.467,0.303l4.477,10.427c0.109,0.254-0.008,0.548-0.262,0.657
		c-0.255,0.106-0.548-0.008-0.657-0.262l-3.998-9.313l-3.713,9.384C14.421,20.372,14.233,20.492,14.034,20.492z"/>
	<path fill="#3A3A3A" d="M21.293,17.391h-5.898c-0.276,0-0.5-0.224-0.5-0.5s0.224-0.5,0.5-0.5h5.898c0.276,0,0.5,0.224,0.5,0.5
		S21.57,17.391,21.293,17.391z"/>
</g>
</svg>
