<?xml version="1.0" encoding="utf-8"?>
<!-- Generator: Adobe Illustrator 17.0.0, SVG Export Plug-In . SVG Version: 6.00 Build 0)  -->
<!DOCTYPE svg PUBLIC "-//W3C//DTD SVG 1.1//EN" "http://www.w3.org/Graphics/SVG/1.1/DTD/svg11.dtd">
<svg version="1.1" id="Layer_1" xmlns="http://www.w3.org/2000/svg" xmlns:xlink="http://www.w3.org/1999/xlink" x="0px" y="0px"
	 width="44.25px" height="42px" viewBox="-0.5 0 44.25 42" enable-background="new -0.5 0 44.25 42" xml:space="preserve">
<g id="XMLID_9294_">
	<path fill="#3A3A3A" d="M29.645,18.754c-0.129,0-0.255-0.05-0.351-0.143c-0.141-0.139-0.188-0.348-0.117-0.534l0.051-0.138
		c0.033-0.093,0.06-0.165,0.092-0.234c1.094-2.335,1.807-4.922,2.12-7.69c0.135-1.189,0.208-2.413,0.278-3.596
		c0.039-0.661,0.078-1.323,0.128-1.983c0.06,0.01,0.033-0.005-0.038-0.025c-2.574-0.718-5.172-1.166-7.721-1.331
		c-4.229-0.273-8.422,0.164-12.464,1.299c-0.069,0.02-0.127,0.034-0.175,0.048c-0.001,0.061,0.001,0.135,0.002,0.201
		c0.065,3.859,0.472,6.933,1.276,9.676c0.253,0.86,0.573,1.728,0.884,2.566c0.146,0.398,0.294,0.797,0.437,1.199
		c0.064,0.182,0.018,0.385-0.12,0.521c-0.137,0.137-0.34,0.182-0.522,0.115c-0.132-0.045-0.224-0.076-0.313-0.114
		c-2.121-0.901-3.771-2.492-5.047-4.864c-0.891-1.656-1.494-3.573-1.844-5.86C6.187,7.766,6.181,7.663,6.177,7.546L6.17,7.401
		C6.161,7.263,6.21,7.128,6.305,7.027C6.399,6.927,6.531,6.87,6.669,6.87h3.862c-0.04-0.713-0.066-1.454-0.08-2.224
		c-0.015-0.807,0.137-1.014,0.898-1.228c4.153-1.167,8.458-1.619,12.803-1.335c2.618,0.169,5.284,0.629,7.926,1.366
		c0.549,0.153,0.807,0.511,0.767,1.063c-0.05,0.656-0.089,1.312-0.128,1.968c-0.008,0.128-0.016,0.257-0.023,0.386h3.973
		c0.151,0,0.295,0.069,0.39,0.187c0.096,0.119,0.132,0.273,0.099,0.421c-0.075,0.335-0.144,0.665-0.212,0.99
		c-0.15,0.721-0.293,1.401-0.481,2.087c-0.63,2.285-1.613,4.143-3.007,5.679c-0.916,1.009-1.983,1.785-3.173,2.308
		c-0.086,0.038-0.175,0.073-0.29,0.118l-0.16,0.063C29.77,18.743,29.708,18.754,29.645,18.754z M7.214,7.87
		c0.336,2.104,0.896,3.868,1.712,5.385c0.999,1.858,2.238,3.186,3.773,4.036c-0.009-0.024-0.019-0.049-0.027-0.074
		c-0.315-0.854-0.642-1.738-0.904-2.631c-0.592-2.017-0.975-4.199-1.171-6.716H7.214z M32.631,7.865
		c-0.051,0.752-0.111,1.512-0.196,2.263c-0.287,2.535-0.898,4.927-1.819,7.124c0.77-0.438,1.473-1.005,2.099-1.694
		c1.285-1.417,2.195-3.142,2.782-5.272c0.183-0.661,0.322-1.333,0.468-2.026c0.027-0.13,0.055-0.262,0.083-0.394H32.631z"/>
	<path fill="#3A3A3A" d="M15.861,37.299c-0.261,0-0.48-0.202-0.498-0.466l-0.008-0.099c-0.007-0.09-0.014-0.176-0.014-0.263v-1.446
		c0.001-1.27,0.002-2.742-0.009-3.719c-0.005-0.438,0.164-0.758,0.53-1.009c1.206-0.828,2.509-1.376,3.872-1.631
		c-0.014-1.407-0.011-2.788,0-4.168c-1.69-0.454-3.108-1.379-4.387-2.842c-0.181-0.208-0.33-0.291-0.593-0.332
		c-2.396-0.367-4.493-1.456-6.231-3.234c-1.98-2.028-3.29-4.539-4.003-7.675C4.288,9.392,4.154,8.337,4.025,7.318
		c-0.06-0.469-0.119-0.938-0.188-1.405c-0.01-0.069-0.026-0.135-0.041-0.201L3.77,5.594C3.763,5.56,3.759,5.525,3.759,5.49V5.2
		c0-0.276,0.224-0.5,0.5-0.5h6.552c0.276,0,0.5,0.224,0.5,0.5s-0.224,0.5-0.5,0.5H4.816C4.82,5.722,4.824,5.745,4.827,5.768
		c0.07,0.473,0.13,0.949,0.191,1.425c0.126,0.996,0.256,2.025,0.479,3.002c0.672,2.951,1.896,5.305,3.744,7.198
		c1.583,1.62,3.489,2.61,5.668,2.944c0.493,0.076,0.861,0.28,1.194,0.662c1.161,1.329,2.439,2.159,3.909,2.535
		c0.492,0.126,0.729,0.439,0.724,0.957c-0.011,1.421-0.014,2.845,0.002,4.268c0.005,0.493-0.25,0.79-0.759,0.88
		c-1.246,0.224-2.441,0.723-3.55,1.483c-0.094,0.064-0.097,0.075-0.096,0.173c0.011,0.98,0.01,2.456,0.009,3.73v1.445
		c0,0.06,0.006,0.119,0.011,0.181l0.009,0.113c0.019,0.276-0.19,0.514-0.466,0.533C15.885,37.298,15.873,37.299,15.861,37.299z"/>
	<path fill="#3A3A3A" d="M27.501,37.299c-0.276,0-0.5-0.224-0.5-0.5v-0.985c0.001-1.489,0.002-3.349-0.009-4.613
		c-0.938-0.685-1.926-1.147-2.988-1.423c-0.224-0.058-0.45-0.109-0.68-0.161l-0.316-0.073c-0.227-0.053-0.387-0.254-0.387-0.487
		v-0.835c-0.001-1.316-0.001-2.615,0.011-3.913c0.004-0.348,0.318-0.666,0.61-0.744c1.493-0.4,2.775-1.23,3.922-2.536
		c0.355-0.405,0.739-0.623,1.244-0.705c2.726-0.442,4.993-1.883,6.739-4.283c1.789-2.46,2.805-5.408,3.195-9.279
		c0.03-0.304,0.066-0.608,0.103-0.912l0.018-0.15h-6.126c-0.276,0-0.5-0.224-0.5-0.5s0.224-0.5,0.5-0.5h6.654
		c0.276,0,0.5,0.224,0.5,0.5v0.29l-0.053,0.479c-0.036,0.298-0.071,0.595-0.102,0.893c-0.408,4.055-1.482,7.158-3.381,9.767
		c-1.906,2.621-4.393,4.196-7.388,4.682c-0.277,0.045-0.448,0.144-0.652,0.376c-1.248,1.423-2.651,2.342-4.286,2.807
		c-0.01,1.236-0.01,2.473-0.009,3.727v0.438c0.214,0.048,0.424,0.097,0.634,0.151c1.194,0.311,2.304,0.832,3.3,1.551
		c0.101,0.072,0.433,0.34,0.437,0.724c0.012,1.267,0.011,3.195,0.01,4.73v0.985C28.001,37.075,27.777,37.299,27.501,37.299z"/>
	<path fill="#3A3A3A" d="M30.411,40H12.95c-0.276,0-0.5-0.224-0.5-0.5v-2.123c0-0.276,0.224-0.5,0.5-0.5h17.461
		c0.276,0,0.5,0.224,0.5,0.5V39.5C30.911,39.776,30.687,40,30.411,40z M13.45,39h16.461v-1.123H13.45V39z"/>
</g>
</svg>
