<?xml version="1.0" encoding="utf-8"?>
<!-- Generator: Adobe Illustrator 17.0.0, SVG Export Plug-In . SVG Version: 6.00 Build 0)  -->
<!DOCTYPE svg PUBLIC "-//W3C//DTD SVG 1.1//EN" "http://www.w3.org/Graphics/SVG/1.1/DTD/svg11.dtd">
<svg version="1.1" id="Layer_1" xmlns="http://www.w3.org/2000/svg" xmlns:xlink="http://www.w3.org/1999/xlink" x="0px" y="0px"
	 width="63.755px" height="42px" viewBox="-10.667 0 63.755 42" enable-background="new -10.667 0 63.755 42" xml:space="preserve">
<g id="XMLID_9309_">
	<path fill="#3A3A3A" d="M34.368,36.736c-0.001,0-0.003,0-0.004,0l-16.079-0.139c-0.276-0.002-0.498-0.229-0.496-0.504
		s0.226-0.496,0.5-0.496c0.001,0,0.003,0,0.004,0l16.079,0.139c0.276,0.002,0.498,0.229,0.496,0.504S34.643,36.736,34.368,36.736z"
		/>
	<path fill="#3A3A3A" d="M45.448,36.597h-1.571c-0.276,0-0.5-0.224-0.5-0.5s0.224-0.5,0.5-0.5h1.571
		c0.709,0,1.287-0.577,1.287-1.287c0-0.035,0.004-0.071,0.011-0.105l1.616-7.475c-0.225-1.364-5.896-13.636-7.088-14.717h-22.66
		c-0.276,0-0.5-0.224-0.5-0.5s0.224-0.5,0.5-0.5h22.776c0.394,0,0.989,0,4.559,7.542c0.951,2.009,3.418,7.398,3.418,8.207
		c0,0.035-0.004,0.071-0.011,0.105l-1.621,7.499C47.704,35.602,46.69,36.597,45.448,36.597z"/>
	<path fill="#3A3A3A" d="M8.592,36.597H6.307c-1.261,0-2.287-1.026-2.287-2.287v-7.339c0-0.276,0.224-0.5,0.5-0.5s0.5,0.224,0.5,0.5
		v7.339c0,0.71,0.577,1.287,1.287,1.287h2.286c0.276,0,0.5,0.224,0.5,0.5S8.869,36.597,8.592,36.597z"/>
	<path fill="#3A3A3A" d="M13.604,40.152c-2.915,0-5.286-2.371-5.286-5.286s2.372-5.286,5.286-5.286s5.286,2.371,5.286,5.286
		S16.519,40.152,13.604,40.152z M13.604,30.58c-2.363,0-4.286,1.923-4.286,4.286s1.923,4.286,4.286,4.286s4.286-1.923,4.286-4.286
		S15.967,30.58,13.604,30.58z"/>
	<path fill="#3A3A3A" d="M39.028,40.152c-2.915,0-5.286-2.371-5.286-5.286s2.372-5.286,5.286-5.286s5.286,2.371,5.286,5.286
		S41.943,40.152,39.028,40.152z M39.028,30.58c-2.363,0-4.286,1.923-4.286,4.286s1.923,4.286,4.286,4.286s4.286-1.923,4.286-4.286
		S41.392,30.58,39.028,30.58z"/>
	<path fill="#3A3A3A" d="M17.531,22.694h-3.257c-0.276,0-0.5-0.224-0.5-0.5s0.224-0.5,0.5-0.5h3.257c0.276,0,0.5-0.225,0.5-0.5
		v-4.845c0-0.276,0.224-0.5,0.5-0.5s0.5,0.224,0.5,0.5v4.845C19.031,22.021,18.358,22.694,17.531,22.694z"/>
	<path fill="#3A3A3A" d="M29.831,22.694h-5.579c-0.827,0-1.5-0.673-1.5-1.5v-4.845c0-0.827,0.673-1.5,1.5-1.5h5.579
		c0.827,0,1.5,0.673,1.5,1.5v4.845C31.331,22.021,30.658,22.694,29.831,22.694z M24.252,15.849c-0.276,0-0.5,0.225-0.5,0.5v4.845
		c0,0.275,0.224,0.5,0.5,0.5h5.579c0.276,0,0.5-0.225,0.5-0.5v-4.845c0-0.275-0.224-0.5-0.5-0.5H24.252z"/>
	<path fill="#3A3A3A" d="M46.892,22.694H36.369c-0.769,0-1.394-0.625-1.394-1.394v-5.058c0-0.769,0.625-1.394,1.394-1.394h7.345
		c0.276,0,0.5,0.224,0.5,0.5s-0.224,0.5-0.5,0.5h-7.345c-0.217,0-0.394,0.177-0.394,0.394V21.3c0,0.217,0.177,0.394,0.394,0.394
		h10.523c0.276,0,0.5,0.224,0.5,0.5S47.169,22.694,46.892,22.694z"/>
	<g id="XMLID_9313_">
		<path fill="#3A3A3A" d="M1.789,23.87c-0.132,0-0.275-0.02-0.451-0.063c-0.518-0.129-1.017-0.312-1.499-0.489l-0.299-0.109
			c-0.537-0.195-0.831-0.771-0.686-1.342c0.121-0.474,0.247-0.944,0.374-1.416c0.023-0.086,0.004-0.102-0.029-0.131
			c-0.42-0.358-0.847-0.711-1.276-1.061c-0.037-0.015-0.071-0.013-0.135,0.017l-0.441,0.211c-0.276,0.134-0.552,0.267-0.833,0.391
			C-3.66,19.955-3.869,20-4.071,20c-0.402-0.015-0.706-0.211-0.908-0.553l-0.094-0.159c-0.292-0.493-0.583-0.986-0.866-1.484
			c-0.291-0.513-0.13-1.128,0.392-1.495l0.225-0.159c0.282-0.199,0.564-0.398,0.85-0.592c0.143-0.095,0.147-0.146,0.123-0.264
			c-0.065-0.314-0.119-0.632-0.173-0.948l-0.095-0.544c-0.013-0.068-0.027-0.099-0.123-0.124l-0.251-0.066
			c-0.329-0.088-0.658-0.176-0.99-0.251c-1.07-0.243-0.981-1.041-0.943-1.382c0.048-0.428,0.113-0.853,0.179-1.278l0.073-0.481
			c0.082-0.557,0.583-0.978,1.167-0.978c0.021,0,0.122,0.006,0.142,0.009c0.477,0.058,0.958,0.102,1.438,0.133
			c0.316-0.506,0.605-1.001,0.88-1.503c0.006-0.015,0.005-0.06-0.075-0.17l-0.082-0.111C-3.449,7.257-3.696,6.917-3.93,6.567
			c-0.131-0.195-0.178-0.42-0.202-0.572C-4.184,5.66-4.056,5.332-3.778,5.095c0.517-0.443,1.006-0.863,1.506-1.271
			c0.444-0.364,1.053-0.324,1.49,0.1c0.3,0.292,0.596,0.59,0.89,0.888l0.095,0.096c0.081,0.081,0.125,0.081,0.142,0.081
			c0.027,0,0.062-0.008,0.101-0.022C0.944,4.777,1.37,4.616,1.8,4.466c0.138-0.048,0.189-0.1,0.2-0.292
			c0.021-0.393,0.053-0.787,0.085-1.181L2.099,2.82c0.044-0.553,0.438-0.933,0.98-0.945c0.617-0.016,1.236-0.026,1.854-0.026h0.214
			C5.748,1.85,6.17,2.258,6.222,2.889c0.038,0.477,0.083,0.953,0.127,1.43c0.572,0.259,1.117,0.45,1.663,0.636
			c0.005-0.003,0.04-0.022,0.104-0.087l0.95-0.958c0.508-0.508,1.074-0.538,1.631-0.081l1.253,1.034
			c0.006,0.005,0.072,0.063,0.077,0.067c0.522,0.469,0.594,1.054,0.209,1.615l-0.121,0.176c-0.205,0.301-0.411,0.602-0.628,0.894
			c-0.093,0.124-0.095,0.176-0.012,0.309c0.25,0.4,0.484,0.813,0.717,1.225c0.043,0.077,0.086,0.124,0.113,0.146l0.508-0.052
			c0.318-0.032,0.592-0.06,0.865-0.094c0.79-0.104,1.297,0.316,1.394,1.028c0.032,0.236,0.071,0.472,0.11,0.707
			c0.061,0.371,0.122,0.741,0.159,1.114c0.065,0.65-0.199,1.036-0.833,1.216l-0.245,0.07c-0.312,0.09-0.625,0.18-0.942,0.242
			c-0.212,0.042-0.289,0.102-0.318,0.371c-0.035,0.318-0.092,0.634-0.149,0.949l-0.072,0.405c-0.013,0.078-0.008,0.103,0.069,0.154
			c0.378,0.258,0.756,0.516,1.131,0.778c0.6,0.421,0.727,0.981,0.368,1.618c-0.282,0.501-0.567,1-0.854,1.497
			c-0.295,0.511-0.688,0.618-0.964,0.618c-0.171,0-0.353-0.042-0.538-0.124c-0.38-0.168-0.757-0.344-1.134-0.52l-0.115-0.054
			c-0.055-0.025-0.101-0.039-0.134-0.039c-0.015,0-0.056,0-0.135,0.071c-0.365,0.325-0.742,0.639-1.117,0.952
			c-0.085,0.07-0.104,0.097-0.074,0.205l0.098,0.358c0.08,0.295,0.161,0.591,0.247,0.884c0.215,0.735-0.073,1.307-0.791,1.567
			l-1.341,0.495c-0.352,0.126-0.637,0.161-0.954,0.101c-0.409-0.077-0.608-0.329-0.704-0.526l-0.579-1.223
			c-0.045-0.098-0.063-0.139-0.086-0.175L4.91,21.865c-0.144,0.009-0.288,0.018-0.432,0.018c-0.34-0.002-0.665-0.014-0.988-0.032
			c-0.101-0.003-0.126,0-0.18,0.123c-0.074,0.168-0.15,0.334-0.227,0.501c-0.093,0.2-0.186,0.401-0.272,0.605
			C2.718,23.296,2.475,23.87,1.789,23.87z M-2.106,18.243c0.24,0,0.468,0.083,0.661,0.24c0.435,0.355,0.868,0.712,1.294,1.076
			c0.337,0.288,0.463,0.707,0.345,1.149c-0.126,0.469-0.251,0.936-0.371,1.405c-0.005,0.021-0.027,0.123,0.058,0.154l0.303,0.11
			c0.478,0.176,0.929,0.342,1.394,0.457c0.115,0.028,0.178,0.034,0.211,0.034l0.014-0.001c0-0.009,0.035-0.057,0.088-0.18
			c0.09-0.214,0.187-0.424,0.285-0.635c0.074-0.16,0.148-0.32,0.219-0.482c0.204-0.466,0.583-0.723,1.07-0.723
			c0.389,0.02,0.696,0.031,1.003,0.033c0,0,0,0,0,0c0.134,0,0.256-0.008,0.379-0.016l0.254-0.015c0.001,0,0.002,0,0.003,0
			c0.401,0,0.712,0.18,0.917,0.504c0.047,0.074,0.085,0.154,0.123,0.235l0.598,1.264c0.024-0.015,0.057-0.013,0.091-0.012
			c0.092,0,0.196-0.022,0.326-0.069l1.339-0.493c0.219-0.08,0.239-0.119,0.172-0.347c-0.087-0.3-0.169-0.602-0.251-0.903
			l-0.097-0.355c-0.13-0.477,0.004-0.91,0.377-1.221c0.388-0.323,0.756-0.63,1.113-0.948c0.395-0.351,0.873-0.42,1.358-0.19
			l0.113,0.053c0.371,0.173,0.741,0.347,1.115,0.512c0.081,0.035,0.123,0.038,0.134,0.038l0,0c0.004,0,0.041-0.02,0.098-0.118
			c0.286-0.495,0.569-0.99,0.849-1.487c0.071-0.126,0.071-0.177,0.071-0.181l0,0c-0.001,0-0.024-0.046-0.142-0.129
			c-0.37-0.259-0.744-0.515-1.119-0.77c-0.396-0.269-0.571-0.676-0.494-1.146l0.074-0.42c0.053-0.293,0.106-0.585,0.139-0.88
			c0.095-0.863,0.661-1.152,1.12-1.243c0.29-0.057,0.573-0.14,0.856-0.222l0.251-0.072c0.062-0.018,0.099-0.032,0.119-0.042
			c-0.004-0.014-0.004-0.052-0.01-0.111c-0.035-0.352-0.093-0.701-0.151-1.051c-0.041-0.245-0.081-0.489-0.114-0.735
			c-0.023-0.17-0.074-0.177-0.188-0.177c-0.371,0.041-0.653,0.069-0.981,0.103l-0.555,0.056c-0.005,0-0.011,0-0.017,0
			c-0.442,0-0.788-0.245-1.019-0.653c-0.226-0.4-0.452-0.799-0.694-1.188c-0.303-0.483-0.282-0.98,0.059-1.438
			c0.209-0.279,0.406-0.568,0.604-0.857l0.122-0.178c0.099-0.145,0.105-0.164-0.042-0.296l-1.307-1.083
			C9.963,4.52,9.916,4.51,9.912,4.51c0,0-0.046,0.015-0.139,0.106l-0.95,0.958C8.705,5.693,8.219,6.083,7.69,5.901
			C7.135,5.712,6.58,5.517,6.03,5.312C5.647,5.168,5.394,4.833,5.354,4.413c-0.046-0.48-0.09-0.961-0.129-1.442
			C5.217,2.879,5.195,2.85,5.195,2.849L4.934,2.848c-0.61,0-1.22,0.011-1.83,0.026L3.082,3.074C3.051,3.459,3.02,3.845,2.999,4.23
			C2.958,4.969,2.504,5.28,2.129,5.411c-0.422,0.147-0.84,0.305-1.258,0.463C0.649,5.958,0.495,5.988,0.346,5.988
			c-0.218,0-0.542-0.065-0.852-0.377l-0.096-0.097c-0.29-0.293-0.581-0.586-0.877-0.874c-0.059-0.058-0.1-0.069-0.11-0.069
			C-2.133,5.001-2.616,5.417-3.1,5.831c-0.024,0.138-0.002,0.175,0,0.179C-2.871,6.35-2.632,6.68-2.392,7.011l0.082,0.112
			c0.385,0.531,0.29,0.966,0.142,1.236c-0.281,0.512-0.575,1.015-0.87,1.518c-0.186,0.316-0.516,0.505-0.883,0.505
			c-0.569-0.035-1.068-0.081-1.564-0.141c-0.109,0.008-0.189,0.058-0.199,0.122l-0.074,0.488c-0.063,0.411-0.126,0.823-0.173,1.237
			c-0.018,0.159-0.012,0.222-0.008,0.243c0.001,0.001,0.057,0.025,0.179,0.053c0.344,0.078,0.685,0.168,1.026,0.259l0.249,0.066
			c0.457,0.12,0.768,0.452,0.852,0.911l0.097,0.555c0.053,0.306,0.105,0.612,0.167,0.916c0.077,0.373,0.044,0.901-0.545,1.296
			c-0.279,0.188-0.554,0.382-0.83,0.577l-0.227,0.16c-0.066,0.047-0.136,0.116-0.098,0.184c0.28,0.494,0.568,0.981,0.857,1.47
			l0.095,0.16C-4.01,19-3.941,18.987-3.894,18.963c0.273-0.121,0.54-0.249,0.806-0.378l0.45-0.215
			C-2.458,18.286-2.279,18.243-2.106,18.243z M4.181,18.207C4.181,18.207,4.181,18.207,4.181,18.207
			c-2.986-0.036-5.343-2.451-5.326-5.383c0.018-2.932,2.386-5.317,5.279-5.317c0.002,0,0.074,0.002,0.079,0.001
			c1.431,0,2.789,0.573,3.782,1.573c1.017,1.024,1.572,2.384,1.563,3.827C9.538,15.83,7.126,18.207,4.181,18.207z M4.133,8.506
			c-2.305,0-4.265,1.98-4.279,4.323c-0.014,2.384,1.901,4.348,4.268,4.377c0,0,0,0,0.001,0c2.455,0,4.418-1.931,4.434-4.305
			c0.008-1.176-0.444-2.282-1.272-3.116C6.477,8.973,5.378,8.507,4.267,8.507L4.133,8.506z"/>
	</g>
</g>
</svg>
