<?xml version="1.0" encoding="utf-8"?>
<!-- Generator: Adobe Illustrator 17.0.0, SVG Export Plug-In . SVG Version: 6.00 Build 0)  -->
<!DOCTYPE svg PUBLIC "-//W3C//DTD SVG 1.1//EN" "http://www.w3.org/Graphics/SVG/1.1/DTD/svg11.dtd">
<svg version="1.1" id="Layer_1" xmlns="http://www.w3.org/2000/svg" xmlns:xlink="http://www.w3.org/1999/xlink" x="0px" y="0px"
	 width="63.755px" height="42px" viewBox="-10.667 0 63.755 42" enable-background="new -10.667 0 63.755 42" xml:space="preserve">
<g id="XMLID_1748_">
	<g id="XMLID_7162_">
		<path fill="#3A3A3A" d="M31.525,36.34c-0.131,0-0.274-0.02-0.451-0.063c-0.522-0.129-1.026-0.314-1.513-0.493l-0.286-0.105
			c-0.536-0.195-0.83-0.772-0.685-1.342c0.121-0.473,0.247-0.944,0.374-1.416c0.023-0.086,0.006-0.101-0.028-0.13
			c-0.421-0.359-0.848-0.712-1.276-1.061c-0.04-0.015-0.074-0.014-0.136,0.017l-0.447,0.214c-0.274,0.132-0.547,0.264-0.825,0.388
			c-0.179,0.078-0.386,0.122-0.586,0.122c-0.4-0.014-0.705-0.209-0.908-0.553l-0.114-0.192c-0.285-0.482-0.57-0.964-0.846-1.452
			c-0.291-0.511-0.13-1.125,0.391-1.493l0.2-0.142c0.291-0.205,0.581-0.411,0.876-0.61c0.143-0.095,0.146-0.145,0.122-0.263
			c-0.064-0.311-0.117-0.623-0.171-0.936l-0.098-0.557c-0.013-0.069-0.027-0.1-0.122-0.125l-0.251-0.066
			c-0.329-0.088-0.658-0.176-0.99-0.251c-1.07-0.241-0.981-1.04-0.943-1.382c0.048-0.428,0.113-0.853,0.179-1.278l0.073-0.481
			c0.082-0.557,0.583-0.978,1.168-0.978c0.02,0,0.12,0.006,0.139,0.009c0.479,0.059,0.959,0.103,1.439,0.133
			c0.317-0.505,0.605-1.001,0.881-1.503c0.006-0.014,0.005-0.06-0.075-0.17l-0.083-0.114c-0.246-0.34-0.492-0.68-0.726-1.028
			c-0.131-0.194-0.178-0.42-0.202-0.572c-0.052-0.333,0.076-0.66,0.353-0.897l0.141-0.121c0.452-0.388,0.905-0.775,1.367-1.152
			c0.448-0.362,1.055-0.323,1.49,0.101c0.309,0.301,0.612,0.606,0.915,0.912c0.15,0.151,0.194,0.151,0.212,0.151
			c0.027,0,0.063-0.008,0.102-0.022c0.448-0.17,0.897-0.34,1.351-0.498c0.139-0.049,0.19-0.101,0.201-0.292
			c0.021-0.393,0.053-0.784,0.084-1.176l0.014-0.179c0.044-0.552,0.437-0.932,0.979-0.946c0.619-0.016,1.237-0.026,1.855-0.026
			h0.214c0.602,0.002,1.023,0.41,1.074,1.042c0.039,0.476,0.083,0.952,0.128,1.429c0.571,0.26,1.116,0.45,1.663,0.636
			c0.005-0.003,0.04-0.022,0.104-0.087l0.951-0.958c0.508-0.508,1.074-0.538,1.632-0.081l1.252,1.034
			c0.006,0.005,0.083,0.073,0.088,0.078c0.511,0.458,0.584,1.043,0.198,1.604l-0.121,0.177c-0.205,0.301-0.411,0.601-0.628,0.893
			c-0.094,0.125-0.096,0.175-0.012,0.308c0.245,0.393,0.473,0.795,0.701,1.197c0.056,0.099,0.102,0.151,0.129,0.175l0.45-0.046
			c0.343-0.034,0.633-0.063,0.922-0.1c0.784-0.103,1.296,0.316,1.394,1.028c0.032,0.234,0.07,0.468,0.109,0.701
			c0.062,0.373,0.123,0.746,0.161,1.121c0.065,0.649-0.2,1.035-0.833,1.215l-0.223,0.063c-0.319,0.093-0.638,0.186-0.963,0.249
			c-0.214,0.042-0.29,0.102-0.32,0.372c-0.035,0.318-0.092,0.636-0.149,0.952l-0.071,0.402c-0.013,0.077-0.008,0.102,0.069,0.153
			c0.379,0.258,0.757,0.517,1.132,0.779c0.6,0.42,0.727,0.979,0.367,1.617c-0.283,0.501-0.567,1.001-0.854,1.498
			c-0.295,0.511-0.688,0.618-0.965,0.618c-0.17,0-0.351-0.042-0.536-0.124c-0.42-0.185-0.835-0.38-1.25-0.575
			c-0.054-0.024-0.1-0.038-0.133-0.038c-0.015,0-0.055,0-0.135,0.071c-0.373,0.331-0.756,0.65-1.139,0.969
			c-0.064,0.054-0.082,0.08-0.053,0.188l0.081,0.298c0.086,0.316,0.171,0.632,0.263,0.946c0.215,0.734-0.073,1.306-0.791,1.566
			l-1.341,0.495c-0.352,0.126-0.639,0.161-0.954,0.101c-0.408-0.075-0.608-0.328-0.704-0.526l-0.579-1.223
			c-0.046-0.1-0.063-0.14-0.085-0.176l-0.278-0.025c-0.479,0.03-0.951,0.012-1.409-0.015c-0.093-0.003-0.126-0.001-0.18,0.122
			c-0.073,0.167-0.15,0.333-0.226,0.498c-0.094,0.202-0.187,0.404-0.274,0.608C32.454,35.767,32.211,36.34,31.525,36.34z
			 M27.629,30.714c0.24,0,0.47,0.083,0.663,0.24c0.435,0.354,0.868,0.711,1.294,1.076c0.337,0.288,0.463,0.707,0.344,1.149
			c-0.125,0.468-0.25,0.936-0.371,1.404c-0.005,0.021-0.027,0.123,0.058,0.154l0.29,0.106c0.482,0.178,0.938,0.346,1.406,0.461
			c0.116,0.028,0.179,0.034,0.211,0.034l0.014-0.001c0-0.009,0.035-0.057,0.088-0.18c0.091-0.215,0.189-0.427,0.287-0.638
			l0.218-0.479c0.203-0.465,0.583-0.722,1.069-0.722c0.388,0.02,0.695,0.031,1.002,0.032c0,0,0,0,0.001,0
			c0.132,0,0.251-0.008,0.371-0.015l0.265-0.015c0.407-0.022,0.71,0.178,0.917,0.501c0.048,0.075,0.086,0.155,0.123,0.235
			l0.599,1.266c0.023-0.016,0.056-0.012,0.092-0.012c0.092,0,0.196-0.022,0.326-0.069l1.338-0.493
			c0.219-0.08,0.239-0.119,0.172-0.347c-0.093-0.32-0.181-0.643-0.268-0.964l-0.081-0.296c-0.13-0.476,0.003-0.908,0.377-1.22
			c0.375-0.313,0.75-0.624,1.114-0.948c0.39-0.351,0.869-0.422,1.357-0.19c0.408,0.191,0.817,0.383,1.229,0.565
			c0.081,0.035,0.122,0.038,0.133,0.038l0,0c0.005,0,0.042-0.02,0.099-0.118c0.286-0.495,0.568-0.991,0.849-1.489
			c0.07-0.124,0.071-0.176,0.071-0.18l0,0c-0.001,0-0.024-0.046-0.141-0.128c-0.371-0.261-0.745-0.516-1.12-0.771
			c-0.396-0.269-0.572-0.676-0.494-1.145l0.073-0.416c0.053-0.294,0.107-0.588,0.139-0.884c0.096-0.865,0.663-1.154,1.121-1.243
			c0.295-0.059,0.586-0.144,0.877-0.229l0.228-0.065c0.063-0.019,0.1-0.033,0.121-0.043c-0.004-0.014-0.004-0.051-0.01-0.11
			c-0.036-0.354-0.094-0.706-0.152-1.058c-0.04-0.242-0.08-0.485-0.114-0.729c-0.023-0.17-0.074-0.177-0.187-0.177
			c-0.387,0.044-0.686,0.073-1.039,0.108l-0.498,0.05c-0.435-0.027-0.802-0.24-1.035-0.653c-0.236-0.417-0.457-0.808-0.694-1.188
			c-0.303-0.482-0.283-0.979,0.059-1.437c0.209-0.28,0.407-0.569,0.604-0.858l0.122-0.178c0.099-0.144,0.104-0.164-0.041-0.295
			L39.8,17.072c-0.1-0.081-0.148-0.091-0.151-0.091c0,0-0.046,0.015-0.139,0.106l-0.951,0.958c-0.118,0.117-0.605,0.509-1.133,0.326
			c-0.555-0.188-1.109-0.383-1.66-0.588c-0.384-0.146-0.636-0.481-0.676-0.9c-0.045-0.48-0.09-0.961-0.129-1.441
			c-0.007-0.092-0.029-0.121-0.029-0.122l-0.262-0.001c-0.61,0-1.22,0.011-1.83,0.026l-0.022,0.205
			c-0.031,0.384-0.062,0.768-0.083,1.151c-0.041,0.738-0.496,1.049-0.869,1.18c-0.445,0.156-0.886,0.322-1.327,0.49
			c-0.154,0.058-0.308,0.087-0.457,0.087c-0.218,0-0.542-0.064-0.852-0.376c0,0-0.07-0.071-0.071-0.071
			c-0.299-0.302-0.598-0.604-0.902-0.899c-0.059-0.058-0.1-0.07-0.11-0.07c-0.506,0.399-0.953,0.782-1.399,1.164l-0.141,0.121
			c0.005,0.112,0.026,0.15,0.029,0.154c0.227,0.339,0.466,0.669,0.706,0.999l0.083,0.114c0.385,0.533,0.29,0.967,0.142,1.236
			c-0.281,0.512-0.574,1.016-0.87,1.519c-0.187,0.315-0.516,0.504-0.883,0.504c-0.569-0.034-1.068-0.08-1.565-0.141
			c-0.074,0.003-0.188,0.06-0.198,0.122l-0.074,0.488c-0.063,0.411-0.126,0.823-0.173,1.237c-0.018,0.16-0.012,0.222-0.008,0.243
			c0.004,0.007,0.057,0.025,0.178,0.053c0.345,0.078,0.686,0.168,1.027,0.259l0.249,0.066c0.457,0.12,0.767,0.452,0.851,0.911
			l0.1,0.569c0.051,0.301,0.103,0.603,0.165,0.901c0.077,0.373,0.045,0.9-0.544,1.295c-0.288,0.194-0.572,0.396-0.856,0.597
			l-0.2,0.142c-0.066,0.047-0.136,0.116-0.098,0.184c0.273,0.482,0.556,0.96,0.837,1.437l0.114,0.193
			c0.107,0.061,0.176,0.045,0.227,0.024c0.267-0.119,0.531-0.247,0.795-0.375l0.457-0.218
			C27.278,30.756,27.456,30.714,27.629,30.714z M33.917,30.677C33.917,30.677,33.917,30.677,33.917,30.677
			c-2.986-0.036-5.343-2.451-5.326-5.383c0.018-2.932,2.386-5.317,5.279-5.317c0.003,0,0.076,0.001,0.079,0.001
			c1.43,0,2.789,0.574,3.782,1.574c1.018,1.023,1.572,2.383,1.563,3.826C39.275,28.3,36.863,30.677,33.917,30.677z M33.87,20.977
			c-2.305,0-4.265,1.98-4.279,4.323c-0.014,2.384,1.901,4.348,4.268,4.377c0,0,0,0,0.001,0c2.455,0,4.418-1.931,4.434-4.305
			c0.008-1.176-0.444-2.282-1.272-3.115c-0.808-0.813-1.909-1.279-3.02-1.279L33.87,20.977z"/>
	</g>
	<g id="XMLID_1_">
		<path fill="#3A3A3A" d="M22.752,39.258c-0.181,0-0.356-0.099-0.445-0.271c-0.126-0.246-0.03-0.548,0.215-0.674
			c0.469-0.241,1.008-0.555,1.697-0.984c0.233-0.148,0.543-0.075,0.689,0.159s0.075,0.543-0.16,0.688
			c-0.722,0.451-1.268,0.768-1.768,1.025C22.908,39.241,22.829,39.258,22.752,39.258z"/>
		<path fill="#3A3A3A" d="M16.735,40.401c-1.095,0-2.194-0.093-3.267-0.274c-0.272-0.047-0.455-0.305-0.409-0.577
			c0.046-0.272,0.302-0.454,0.577-0.409c1.017,0.173,2.06,0.261,3.099,0.261c0.342,0,0.662-0.003,0.964-0.01
			c0.324-0.007,0.505,0.214,0.511,0.489c0.006,0.275-0.213,0.505-0.489,0.511C17.413,40.398,17.085,40.401,16.735,40.401z
			 M8.593,38.563c-0.072,0-0.146-0.016-0.215-0.049c-1.286-0.614-2.508-1.374-3.632-2.26c-0.217-0.171-0.254-0.485-0.083-0.702
			c0.171-0.216,0.485-0.255,0.703-0.083c1.066,0.839,2.225,1.561,3.443,2.143c0.25,0.119,0.355,0.418,0.236,0.667
			C8.959,38.458,8.78,38.563,8.593,38.563z M1.448,32.617c-0.154,0-0.307-0.071-0.405-0.205c-0.842-1.155-1.555-2.404-2.121-3.712
			c-0.109-0.253,0.007-0.548,0.261-0.657c0.252-0.112,0.548,0.007,0.657,0.261c0.536,1.239,1.213,2.424,2.011,3.519
			c0.163,0.224,0.113,0.536-0.11,0.699C1.653,32.585,1.55,32.617,1.448,32.617z M-2.004,23.989c-0.248,0-0.462-0.184-0.495-0.435
			c-0.11-0.841-0.167-1.7-0.167-2.554c0-0.57,0.025-1.149,0.075-1.72c0.024-0.274,0.271-0.473,0.542-0.454
			c0.275,0.024,0.479,0.267,0.455,0.542C-1.642,19.91-1.666,20.458-1.666,21c0,0.811,0.053,1.625,0.158,2.423
			c0.036,0.274-0.157,0.525-0.431,0.562C-1.961,23.988-1.983,23.989-2.004,23.989z M-0.928,14.756c-0.06,0-0.12-0.011-0.179-0.033
			c-0.258-0.099-0.387-0.388-0.289-0.646c0.509-1.33,1.168-2.609,1.96-3.802c0.152-0.23,0.462-0.293,0.693-0.141
			c0.23,0.153,0.293,0.464,0.14,0.693c-0.751,1.132-1.376,2.345-1.859,3.606C-0.537,14.634-0.727,14.756-0.928,14.756z M4.426,7.156
			c-0.141,0-0.28-0.059-0.379-0.174C3.867,6.772,3.891,6.457,4.1,6.277C5.186,5.344,6.373,4.533,7.63,3.865
			c0.244-0.132,0.546-0.037,0.676,0.207C8.436,4.315,8.343,4.618,8.1,4.748C6.908,5.381,5.782,6.151,4.752,7.035
			C4.658,7.116,4.542,7.156,4.426,7.156z M25.885,4.957c-0.082,0-0.165-0.021-0.242-0.063c-1.187-0.657-2.446-1.182-3.743-1.562
			c-0.265-0.077-0.417-0.354-0.34-0.62c0.078-0.265,0.355-0.416,0.62-0.339c1.368,0.399,2.696,0.953,3.947,1.646
			c0.242,0.134,0.329,0.438,0.195,0.68C26.232,4.864,26.061,4.957,25.885,4.957z M12.748,3.02c-0.23,0-0.438-0.16-0.488-0.395
			c-0.058-0.271,0.114-0.536,0.384-0.595c1.333-0.286,2.705-0.432,4.078-0.432c0.005,0,0.009,0,0.014,0L16.903,1.6
			c0.276,0.005,0.496,0.233,0.491,0.509c-0.005,0.276-0.205,0.476-0.509,0.491l-0.149-0.001c-0.004,0-0.009,0-0.013,0
			c-1.303,0-2.604,0.138-3.868,0.41C12.819,3.016,12.783,3.02,12.748,3.02z"/>
		<path fill="#3A3A3A" d="M31.419,9.597c-0.146,0-0.29-0.063-0.389-0.186c-0.406-0.5-0.845-0.986-1.305-1.444
			C29.53,7.772,29.53,7.456,29.725,7.26c0.195-0.196,0.512-0.195,0.707-0.002c0.484,0.483,0.947,0.996,1.375,1.524
			c0.174,0.214,0.141,0.529-0.073,0.703C31.641,9.561,31.529,9.597,31.419,9.597z"/>
	</g>
</g>
</svg>
