<?xml version="1.0" encoding="utf-8"?>
<!-- Generator: Adobe Illustrator 17.0.0, SVG Export Plug-In . SVG Version: 6.00 Build 0)  -->
<!DOCTYPE svg PUBLIC "-//W3C//DTD SVG 1.1//EN" "http://www.w3.org/Graphics/SVG/1.1/DTD/svg11.dtd">
<svg version="1.1" id="Layer_1" xmlns="http://www.w3.org/2000/svg" xmlns:xlink="http://www.w3.org/1999/xlink" x="0px" y="0px"
	 width="63.755px" height="42px" viewBox="-10.667 0 63.755 42" enable-background="new -10.667 0 63.755 42" xml:space="preserve">
<g id="XMLID_171_">
	<g id="XMLID_554_">
		<g id="XMLID_738_">
			<path fill="#3A3A3A" d="M40.625,33.936c-0.125,0-0.25-0.047-0.348-0.141c-0.478-0.462-11.702-11.394-11.702-17.909
				c0-6.645,5.406-12.05,12.05-12.05s12.049,5.405,12.049,12.05c0,6.516-11.224,17.447-11.702,17.909
				C40.875,33.89,40.75,33.936,40.625,33.936z M40.625,4.837c-6.093,0-11.05,4.957-11.05,11.05c0,5.485,9.137,14.929,11.05,16.846
				c1.912-1.916,11.049-11.361,11.049-16.846C51.674,9.794,46.717,4.837,40.625,4.837z"/>
			<path fill="#3A3A3A" d="M40.625,20.51c-2.549,0-4.624-2.074-4.624-4.623s2.074-4.623,4.624-4.623s4.623,2.074,4.623,4.623
				S43.174,20.51,40.625,20.51z M40.625,12.264c-1.998,0-3.624,1.625-3.624,3.623s1.625,3.623,3.624,3.623
				c1.998,0,3.623-1.625,3.623-3.623S42.622,12.264,40.625,12.264z"/>
		</g>
	</g>
	<path fill="#3A3A3A" d="M28.755,38.162c-1.228,0-2.394-0.108-3.464-0.321c-0.271-0.054-0.447-0.317-0.393-0.588
		s0.312-0.449,0.588-0.393c1.007,0.2,2.106,0.302,3.27,0.302c0.195-0.006,0.399-0.003,0.599-0.009
		c0.253,0.012,0.506,0.209,0.515,0.485c0.008,0.276-0.209,0.506-0.485,0.515C29.175,38.16,28.973,38.166,28.755,38.162z
		 M34.328,37.542c-0.232,0-0.44-0.162-0.489-0.398c-0.057-0.27,0.117-0.535,0.387-0.591c1.254-0.262,2.539-0.603,3.816-1.014
		c0.266-0.084,0.545,0.06,0.629,0.322s-0.06,0.545-0.323,0.629c-1.312,0.423-2.63,0.772-3.919,1.041
		C34.396,37.539,34.361,37.542,34.328,37.542z M20.831,35.901c-0.103,0-0.207-0.031-0.295-0.097c-1.02-0.75-1.969-1.71-2.9-2.936
		c-0.167-0.22-0.125-0.534,0.095-0.701c0.22-0.166,0.534-0.123,0.701,0.096c0.873,1.148,1.754,2.043,2.696,2.734
		c0.223,0.164,0.271,0.477,0.107,0.699C21.136,35.831,20.985,35.901,20.831,35.901z M-9.753,32.473c-0.11,0-0.221-0.036-0.314-0.111
		c-0.214-0.174-0.248-0.488-0.075-0.703c0.043-0.053,1.076-1.326,2.787-2.973c0.199-0.19,0.515-0.184,0.707,0.014
		c0.191,0.199,0.186,0.516-0.014,0.707c-1.662,1.6-2.692,2.868-2.702,2.881C-9.462,32.41-9.607,32.473-9.753,32.473z M15.304,28.878
		c-0.167,0-0.331-0.084-0.425-0.236c-0.679-1.095-1.422-2.24-2.26-3.194c-0.182-0.208-0.161-0.523,0.046-0.706
		c0.207-0.182,0.523-0.161,0.706,0.046c0.886,1.01,1.657,2.196,2.358,3.327c0.146,0.235,0.073,0.543-0.161,0.688
		C15.485,28.853,15.394,28.878,15.304,28.878z M-3.183,26.321c-0.155,0-0.308-0.071-0.405-0.206
		c-0.162-0.224-0.112-0.536,0.111-0.698c1.171-0.851,2.339-1.571,3.471-2.145c0.245-0.124,0.546-0.025,0.672,0.221
		c0.125,0.246,0.026,0.547-0.221,0.672c-1.084,0.549-2.207,1.242-3.335,2.061C-2.978,26.29-3.081,26.321-3.183,26.321z
		 M8.905,22.886c-0.046,0-0.092-0.006-0.139-0.02c-0.589-0.169-1.226-0.271-1.893-0.304c-0.598-0.023-1.226,0.002-1.856,0.09
		c-0.276,0.032-0.526-0.152-0.564-0.426s0.153-0.526,0.426-0.564c0.691-0.096,1.373-0.126,2.04-0.099
		c0.746,0.036,1.46,0.151,2.124,0.342c0.265,0.076,0.418,0.353,0.342,0.618C9.322,22.743,9.122,22.886,8.905,22.886z"/>
</g>
</svg>
