<?xml version="1.0" encoding="utf-8"?>
<!-- Generator: Adobe Illustrator 17.0.0, SVG Export Plug-In . SVG Version: 6.00 Build 0)  -->
<!DOCTYPE svg PUBLIC "-//W3C//DTD SVG 1.1//EN" "http://www.w3.org/Graphics/SVG/1.1/DTD/svg11.dtd">
<svg version="1.1" id="Layer_1" xmlns="http://www.w3.org/2000/svg" xmlns:xlink="http://www.w3.org/1999/xlink" x="0px" y="0px"
	 width="15px" height="12.504px" viewBox="0 0 15 12.504" enable-background="new 0 0 15 12.504" xml:space="preserve">
<g id="XMLID_6710_" opacity="0.8">
	<g id="XMLID_6711_">
		<g>
			<path fill="#FFFFFF" d="M13.852,6.864H0.5c-0.276,0-0.5-0.224-0.5-0.5s0.224-0.5,0.5-0.5h13.352c0.276,0,0.5,0.224,0.5,0.5
				S14.128,6.864,13.852,6.864z"/>
			<path fill="#FFFFFF" d="M8.836,12.504c-0.126,0-0.253-0.048-0.351-0.144c-0.197-0.194-0.199-0.511-0.006-0.707l5.319-5.401
				L8.479,0.851C8.286,0.654,8.289,0.338,8.485,0.144C8.682-0.05,8.998-0.048,9.192,0.149l5.664,5.752
				c0.191,0.194,0.191,0.507,0,0.701l-5.664,5.752C9.094,12.454,8.965,12.504,8.836,12.504z"/>
		</g>
	</g>
</g>
</svg>
